<svg width="311" height="87" viewBox="0 0 311 87" fill="none" xmlns="http://www.w3.org/2000/svg">
<mask id="mask0_189_2" style="mask-type:alpha" maskUnits="userSpaceOnUse" x="0" y="0" width="311" height="87">
<rect width="311" height="87" fill="#D9D9D9"/>
</mask>
<g mask="url(#mask0_189_2)">
<mask id="mask1_189_2" style="mask-type:alpha" maskUnits="userSpaceOnUse" x="6" y="25" width="300" height="39">
<path d="M306 25H6V63.4977H306V25Z" fill="#D9D9D9"/>
</mask>
<g mask="url(#mask1_189_2)">
<path d="M91.5542 27.1125C94.8734 27.1125 97.6669 28.2299 99.9345 30.4647C102.202 32.6994 103.336 35.4435 103.336 38.6971C103.336 41.9506 102.202 44.6947 99.9345 46.9295C97.6669 49.1642 94.8734 50.2816 91.5542 50.2816H85.4908V61.6196H78.688V27.1125H91.5542ZM91.5542 43.9224C93.0002 43.9224 94.1997 43.4295 95.1528 42.4435C96.1058 41.4248 96.5824 40.1759 96.5824 38.6971C96.5824 37.1853 96.1058 35.9365 95.1528 34.9506C94.1997 33.9647 93.0002 33.4717 91.5542 33.4717H85.4908V43.9224H91.5542ZM124.565 36.9717H130.924V61.6196H124.565V58.7111C122.658 61.1102 119.98 62.3097 116.529 62.3097C113.243 62.3097 110.417 61.0609 108.05 58.5633C105.717 56.0327 104.55 52.9435 104.55 49.2957C104.55 45.6478 105.717 42.575 108.05 40.0773C110.417 37.5468 113.243 36.2816 116.529 36.2816C119.98 36.2816 122.658 37.4811 124.565 39.8802V36.9717ZM112.832 54.3238C114.114 55.6055 115.741 56.2464 117.712 56.2464C119.684 56.2464 121.311 55.6055 122.593 54.3238C123.907 53.0093 124.565 51.3332 124.565 49.2957C124.565 47.2581 123.907 45.5985 122.593 44.3168C121.311 43.0022 119.684 42.3449 117.712 42.3449C115.741 42.3449 114.114 43.0022 112.832 44.3168C111.55 45.5985 110.91 47.2581 110.91 49.2957C110.91 51.3332 111.55 53.0093 112.832 54.3238ZM143.049 41.2111C143.641 39.6337 144.611 38.4506 145.958 37.6618C147.338 36.8731 148.866 36.4788 150.542 36.4788V43.5773C148.603 43.3473 146.862 43.7417 145.317 44.7604C143.805 45.7792 143.049 47.4717 143.049 49.8379V61.6196H136.69V36.9717H143.049V41.2111ZM172.079 36.9717H178.438V61.6196H172.079V58.7111C170.173 61.1102 167.495 62.3097 164.044 62.3097C160.757 62.3097 157.931 61.0609 155.565 58.5633C153.232 56.0327 152.065 52.9435 152.065 49.2957C152.065 45.6478 153.232 42.575 155.565 40.0773C157.931 37.5468 160.757 36.2816 164.044 36.2816C167.495 36.2816 170.173 37.4811 172.079 39.8802V36.9717ZM160.347 54.3238C161.628 55.6055 163.255 56.2464 165.227 56.2464C167.199 56.2464 168.826 55.6055 170.107 54.3238C171.422 53.0093 172.079 51.3332 172.079 49.2957C172.079 47.2581 171.422 45.5985 170.107 44.3168C168.826 43.0022 167.199 42.3449 165.227 42.3449C163.255 42.3449 161.628 43.0022 160.347 44.3168C159.065 45.5985 158.424 47.2581 158.424 49.2957C158.424 51.3332 159.065 53.0093 160.347 54.3238ZM202.888 27.1125H209.247V61.6196H202.888V58.7111C201.015 61.1102 198.353 62.3097 194.902 62.3097C191.583 62.3097 188.74 61.0609 186.374 58.5633C184.041 56.0327 182.874 52.9435 182.874 49.2957C182.874 45.6478 184.041 42.575 186.374 40.0773C188.74 37.5468 191.583 36.2816 194.902 36.2816C198.353 36.2816 201.015 37.4811 202.888 39.8802V27.1125ZM191.156 54.3238C192.47 55.6055 194.113 56.2464 196.085 56.2464C198.057 56.2464 199.684 55.6055 200.965 54.3238C202.247 53.0093 202.888 51.3332 202.888 49.2957C202.888 47.2581 202.247 45.5985 200.965 44.3168C199.684 43.0022 198.057 42.3449 196.085 42.3449C194.113 42.3449 192.47 43.0022 191.156 44.3168C189.874 45.5985 189.233 47.2581 189.233 49.2957C189.233 51.3332 189.874 53.0093 191.156 54.3238ZM220.436 51.9083C221.29 54.9975 223.607 56.5421 227.387 56.5421C229.819 56.5421 231.659 55.7205 232.908 54.0773L238.034 57.0351C235.603 60.5515 232.02 62.3097 227.288 62.3097C223.213 62.3097 219.943 61.0773 217.478 58.6126C215.013 56.1478 213.781 53.0421 213.781 49.2957C213.781 45.582 214.997 42.4928 217.429 40.028C219.861 37.5304 222.983 36.2816 226.795 36.2816C230.41 36.2816 233.384 37.5304 235.718 40.028C238.084 42.5257 239.267 45.6149 239.267 49.2957C239.267 50.1172 239.185 50.9881 239.02 51.9083H220.436ZM220.337 46.9788H232.908C232.546 45.3027 231.79 44.0539 230.64 43.2323C229.523 42.4107 228.241 41.9999 226.795 41.9999C225.086 41.9999 223.673 42.4435 222.556 43.3309C221.438 44.1853 220.699 45.4013 220.337 46.9788ZM257.706 27.1125C262.439 27.1125 266.382 28.7722 269.537 32.0914C272.725 35.4107 274.319 39.5022 274.319 44.3661C274.319 49.2299 272.725 53.3215 269.537 56.6407C266.382 59.96 262.439 61.6196 257.706 61.6196H244.002V27.1125H257.706ZM257.706 55.1126C260.697 55.1126 263.129 54.1266 265.002 52.1548C266.875 50.1501 267.812 47.5539 267.812 44.3661C267.812 41.1783 266.875 38.5985 265.002 36.6266C263.129 34.6219 260.697 33.6196 257.706 33.6196H250.805V55.1126H257.706ZM299.997 43.7252C303.02 45.467 304.532 48.0961 304.532 51.6126C304.532 54.5374 303.497 56.9365 301.426 58.8097C299.356 60.683 296.809 61.6196 293.786 61.6196H279.145V27.1125H292.75C295.708 27.1125 298.189 28.0327 300.194 29.8731C302.232 31.6806 303.25 33.9975 303.25 36.8238C303.25 39.683 302.166 41.9834 299.997 43.7252ZM292.75 33.4717H285.948V41.0633H292.75C293.802 41.0633 294.673 40.7018 295.363 39.9788C296.086 39.2557 296.448 38.352 296.448 37.2675C296.448 36.183 296.103 35.2792 295.412 34.5562C294.722 33.8332 293.835 33.4717 292.75 33.4717ZM293.786 55.2604C294.936 55.2604 295.889 54.8825 296.645 54.1266C297.401 53.3379 297.779 52.352 297.779 51.1689C297.779 50.0187 297.401 49.0656 296.645 48.3097C295.889 47.521 294.936 47.1266 293.786 47.1266H285.948V55.2604H293.786Z" fill="#EEF2FF"/>
<path fill-rule="evenodd" clip-rule="evenodd" d="M38.4926 26.8779H29.229V61.7664H38.4926V26.8779Z" fill="#4F46E5"/>
<path fill-rule="evenodd" clip-rule="evenodd" d="M27.8173 26.8779H18.5537V61.7664H27.8173V26.8779Z" fill="#4F46E5"/>
<path fill-rule="evenodd" clip-rule="evenodd" d="M17.1415 26.8779H7.87793V61.7664H17.1415V26.8779Z" fill="#4F46E5"/>
<path fill-rule="evenodd" clip-rule="evenodd" d="M39.9048 26.8809V49.4682C39.9048 52.7387 41.2031 55.8462 43.514 58.1578C45.825 60.4688 48.9331 61.7671 52.2037 61.7671H57.6185V52.5034H52.2037C51.3973 52.5034 50.6325 52.1769 50.0638 51.6081C49.495 51.0393 49.1684 50.2745 49.1684 49.4682V36.363C49.1684 31.2208 45.0198 26.9994 39.9048 26.8814V26.8809Z" fill="#4F46E5"/>
</g>
</g>
</svg>
