<svg width="500" height="250" viewBox="0 0 500 250" fill="none" xmlns="http://www.w3.org/2000/svg">
<mask id="mask0_115_15" style="mask-type:alpha" maskUnits="userSpaceOnUse" x="48" y="86" width="38" height="54">
<path d="M48.2271 86.0935H85.1941V139.828H59.3873L48.2271 86.0935Z" fill="#D9D9D9"/>
</mask>
<g mask="url(#mask0_115_15)">
<path d="M40.9875 134.706C40.8564 135.012 40.733 135.303 40.6177 135.578H38.0015C38.3398 133.088 38.8043 129.842 39.3633 126.368C40.607 118.638 42.2232 110.426 43.81 106.551C45.486 102.459 47.8175 98.4467 50.5768 95.5312C53.3447 92.6064 56.1759 91.1455 58.974 91.1455C61.9073 91.1455 64.5303 92.437 67.0074 95.0705C69.5489 97.7726 71.7568 101.724 73.5901 106.472C75.3549 111.042 77.1029 119.365 78.4345 126.885C79.0162 130.17 79.5037 133.212 79.8656 135.578H77.3302C77.215 135.303 77.0916 135.012 76.9605 134.706C76.0433 132.568 74.7308 129.69 73.1681 126.786C71.6255 123.92 69.7435 120.849 67.6547 118.437C65.7828 116.275 62.8039 113.523 58.974 113.523C55.1441 113.523 52.1651 116.275 50.2932 118.437C48.2045 120.849 46.3225 123.92 44.7799 126.786C43.2172 129.69 41.9047 132.568 40.9875 134.706Z" stroke="#34D399" stroke-width="8.5"/>
</g>
<mask id="mask1_115_15" style="mask-type:alpha" maskUnits="userSpaceOnUse" x="35" y="77" width="31" height="63">
<rect x="35" y="77" width="30.174" height="62.8281" fill="#D9D9D9"/>
</mask>
<g mask="url(#mask1_115_15)">
<path d="M14.7575 134.525C14.5648 134.899 14.3863 135.251 14.2229 135.578H9.65547C9.66024 135.543 9.66504 135.507 9.66986 135.471C10.072 132.477 10.6513 128.384 11.3605 123.976C12.8116 114.956 14.7117 105.268 16.6041 100.647C18.3419 96.4042 20.6148 94.3653 23.2641 93.2159C26.174 91.9534 29.9356 91.5836 35 91.5836C40.3905 91.5836 43.7563 91.6442 46.4083 92.7252C48.6126 93.6237 50.7894 95.4626 52.7606 100.568C54.8528 105.986 56.9066 115.786 58.462 124.569C59.2134 128.812 59.8304 132.709 60.264 135.578H55.777C55.6136 135.251 55.4351 134.899 55.2424 134.525C54.1655 132.433 52.6249 129.616 50.7907 126.776C48.9769 123.967 46.7726 120.972 44.3405 118.631C42.05 116.426 38.8256 114.084 35 114.084C31.1744 114.084 27.95 116.426 25.6594 118.631C23.2273 120.972 21.023 123.967 19.2092 126.776C17.375 129.616 15.8344 132.433 14.7575 134.525Z" stroke="#34D399" stroke-width="8.5"/>
<rect x="35" y="88.5736" width="7.44017" height="28.934" fill="#34D399"/>
</g>
<mask id="mask2_115_15" style="mask-type:alpha" maskUnits="userSpaceOnUse" x="62" y="86" width="63" height="55">
<path d="M62.6941 87.3335L125 86.0935V140.655H93.5783L78.8145 119.161L69.7209 96.3796L62.6941 87.3335Z" fill="#D9D9D9"/>
</mask>
<g mask="url(#mask2_115_15)">
<path d="M59.6024 135.5C59.468 135.817 59.3416 136.12 59.2238 136.405H56.5985C56.9382 133.866 57.4076 130.535 57.9736 126.968C59.2187 119.122 60.839 110.77 62.4335 106.823C64.1155 102.659 66.4551 98.5764 69.2239 95.6102C72.0043 92.6315 74.836 91.158 77.618 91.158C80.5359 91.158 83.1591 92.4599 85.6478 95.1426C88.1995 97.8931 90.4155 101.914 92.2546 106.743C93.6921 110.518 96.6729 113.16 99.7122 114.995C102.55 116.708 105.778 117.927 108.774 118.799L104.619 120.848C104.161 120.69 103.622 120.505 103.016 120.3C100.995 119.617 98.2196 118.703 95.2075 117.788C92.2034 116.876 88.9206 115.948 85.8966 115.244C82.9664 114.562 79.95 114.01 77.618 114.01C75.6036 114.01 73.8678 114.786 72.5169 115.686C71.1604 116.59 69.9559 117.775 68.9103 118.999C66.8223 121.444 64.9404 124.558 63.397 127.465C61.8336 130.41 60.5203 133.33 59.6024 135.5Z" stroke="#34D399" stroke-width="8.5"/>
</g>
<path d="M147.5 136V101.2H153.7V104.2H154.6C155.167 103.233 156.05 102.383 157.25 101.65C158.45 100.883 160.167 100.5 162.4 100.5C164.4 100.5 166.25 101 167.95 102C169.65 102.967 171.017 104.4 172.05 106.3C173.083 108.2 173.6 110.5 173.6 113.2V114C173.6 116.7 173.083 119 172.05 120.9C171.017 122.8 169.65 124.25 167.95 125.25C166.25 126.217 164.4 126.7 162.4 126.7C160.9 126.7 159.633 126.517 158.6 126.15C157.6 125.817 156.783 125.383 156.15 124.85C155.55 124.283 155.067 123.717 154.7 123.15H153.8V136H147.5ZM160.5 121.2C162.467 121.2 164.083 120.583 165.35 119.35C166.65 118.083 167.3 116.25 167.3 113.85V113.35C167.3 110.95 166.65 109.133 165.35 107.9C164.05 106.633 162.433 106 160.5 106C158.567 106 156.95 106.633 155.65 107.9C154.35 109.133 153.7 110.95 153.7 113.35V113.85C153.7 116.25 154.35 118.083 155.65 119.35C156.95 120.583 158.567 121.2 160.5 121.2ZM178.185 113.7V112.9C178.185 110.3 178.701 108.083 179.735 106.25C180.768 104.383 182.135 102.967 183.835 102C185.568 101 187.451 100.5 189.485 100.5C191.751 100.5 193.468 100.9 194.635 101.7C195.801 102.5 196.651 103.333 197.185 104.2H198.085V101.2H204.285V130.4C204.285 132.1 203.785 133.45 202.785 134.45C201.785 135.483 200.451 136 198.785 136H182.185V130.5H196.585C197.518 130.5 197.985 130 197.985 129V122.55H197.085C196.751 123.083 196.285 123.633 195.685 124.2C195.085 124.733 194.285 125.183 193.285 125.55C192.285 125.917 191.018 126.1 189.485 126.1C187.451 126.1 185.568 125.617 183.835 124.65C182.135 123.65 180.768 122.233 179.735 120.4C178.701 118.533 178.185 116.3 178.185 113.7ZM191.285 120.6C193.218 120.6 194.835 119.983 196.135 118.75C197.435 117.517 198.085 115.783 198.085 113.55V113.05C198.085 110.783 197.435 109.05 196.135 107.85C194.868 106.617 193.251 106 191.285 106C189.351 106 187.735 106.617 186.435 107.85C185.135 109.05 184.485 110.783 184.485 113.05V113.55C184.485 115.783 185.135 117.517 186.435 118.75C187.735 119.983 189.351 120.6 191.285 120.6ZM211.02 134.1V128.4H235.52V134.1H211.02ZM249.975 126.7C248.209 126.7 246.625 126.4 245.225 125.8C243.825 125.167 242.709 124.267 241.875 123.1C241.075 121.9 240.675 120.45 240.675 118.75C240.675 117.05 241.075 115.633 241.875 114.5C242.709 113.333 243.842 112.467 245.275 111.9C246.742 111.3 248.409 111 250.275 111H257.075V109.6C257.075 108.433 256.709 107.483 255.975 106.75C255.242 105.983 254.075 105.6 252.475 105.6C250.909 105.6 249.742 105.967 248.975 106.7C248.209 107.4 247.709 108.317 247.475 109.45L241.675 107.5C242.075 106.233 242.709 105.083 243.575 104.05C244.475 102.983 245.659 102.133 247.125 101.5C248.625 100.833 250.442 100.5 252.575 100.5C255.842 100.5 258.425 101.317 260.325 102.95C262.225 104.583 263.175 106.95 263.175 110.05V119.3C263.175 120.3 263.642 120.8 264.575 120.8H266.575V126H262.375C261.142 126 260.125 125.7 259.325 125.1C258.525 124.5 258.125 123.7 258.125 122.7V122.65H257.175C257.042 123.05 256.742 123.583 256.275 124.25C255.809 124.883 255.075 125.45 254.075 125.95C253.075 126.45 251.709 126.7 249.975 126.7ZM251.075 121.6C252.842 121.6 254.275 121.117 255.375 120.15C256.509 119.15 257.075 117.833 257.075 116.2V115.7H250.725C249.559 115.7 248.642 115.95 247.975 116.45C247.309 116.95 246.975 117.65 246.975 118.55C246.975 119.45 247.325 120.183 248.025 120.75C248.725 121.317 249.742 121.6 251.075 121.6ZM271.182 126V101.2H277.382V104.45H278.282C278.682 103.583 279.432 102.767 280.532 102C281.632 101.2 283.298 100.8 285.532 100.8C287.465 100.8 289.148 101.25 290.582 102.15C292.048 103.017 293.182 104.233 293.982 105.8C294.782 107.333 295.182 109.133 295.182 111.2V126H288.882V111.7C288.882 109.833 288.415 108.433 287.482 107.5C286.582 106.567 285.282 106.1 283.582 106.1C281.648 106.1 280.148 106.75 279.082 108.05C278.015 109.317 277.482 111.1 277.482 113.4V126H271.182ZM309.692 126.7C307.926 126.7 306.342 126.4 304.942 125.8C303.542 125.167 302.426 124.267 301.592 123.1C300.792 121.9 300.392 120.45 300.392 118.75C300.392 117.05 300.792 115.633 301.592 114.5C302.426 113.333 303.559 112.467 304.992 111.9C306.459 111.3 308.126 111 309.992 111H316.792V109.6C316.792 108.433 316.426 107.483 315.692 106.75C314.959 105.983 313.792 105.6 312.192 105.6C310.626 105.6 309.459 105.967 308.692 106.7C307.926 107.4 307.426 108.317 307.192 109.45L301.392 107.5C301.792 106.233 302.426 105.083 303.292 104.05C304.192 102.983 305.376 102.133 306.842 101.5C308.342 100.833 310.159 100.5 312.292 100.5C315.559 100.5 318.142 101.317 320.042 102.95C321.942 104.583 322.892 106.95 322.892 110.05V119.3C322.892 120.3 323.359 120.8 324.292 120.8H326.292V126H322.092C320.859 126 319.842 125.7 319.042 125.1C318.242 124.5 317.842 123.7 317.842 122.7V122.65H316.892C316.759 123.05 316.459 123.583 315.992 124.25C315.526 124.883 314.792 125.45 313.792 125.95C312.792 126.45 311.426 126.7 309.692 126.7ZM310.792 121.6C312.559 121.6 313.992 121.117 315.092 120.15C316.226 119.15 316.792 117.833 316.792 116.2V115.7H310.442C309.276 115.7 308.359 115.95 307.692 116.45C307.026 116.95 306.692 117.65 306.692 118.55C306.692 119.45 307.042 120.183 307.742 120.75C308.442 121.317 309.459 121.6 310.792 121.6ZM330.898 126V91H337.198V126H330.898ZM346.88 136V130.5H360.38C361.313 130.5 361.78 130 361.78 129V122.75H360.88C360.613 123.317 360.196 123.883 359.63 124.45C359.063 125.017 358.296 125.483 357.33 125.85C356.363 126.217 355.13 126.4 353.63 126.4C351.696 126.4 349.996 125.967 348.53 125.1C347.096 124.2 345.98 122.967 345.18 121.4C344.38 119.833 343.98 118.033 343.98 116V101.2H350.28V115.5C350.28 117.367 350.73 118.767 351.63 119.7C352.563 120.633 353.88 121.1 355.58 121.1C357.513 121.1 359.013 120.467 360.08 119.2C361.146 117.9 361.68 116.1 361.68 113.8V101.2H367.98V130.4C367.98 132.1 367.48 133.45 366.48 134.45C365.48 135.483 364.146 136 362.48 136H346.88ZM384.49 126C382.857 126 381.524 125.5 380.49 124.5C379.49 123.467 378.99 122.1 378.99 120.4V106.4H372.79V101.2H378.99V93.5H385.29V101.2H392.09V106.4H385.29V119.3C385.29 120.3 385.757 120.8 386.69 120.8H391.49V126H384.49ZM397.793 126V101.2H404.093V126H397.793ZM400.943 98.3C399.81 98.3 398.843 97.9333 398.043 97.2C397.276 96.4667 396.893 95.5 396.893 94.3C396.893 93.1 397.276 92.1333 398.043 91.4C398.843 90.6667 399.81 90.3 400.943 90.3C402.11 90.3 403.076 90.6667 403.843 91.4C404.61 92.1333 404.993 93.1 404.993 94.3C404.993 95.5 404.61 96.4667 403.843 97.2C403.076 97.9333 402.11 98.3 400.943 98.3ZM422.724 126.7C420.324 126.7 418.141 126.2 416.174 125.2C414.241 124.2 412.708 122.75 411.574 120.85C410.441 118.95 409.874 116.65 409.874 113.95V113.25C409.874 110.55 410.441 108.25 411.574 106.35C412.708 104.45 414.241 103 416.174 102C418.141 101 420.324 100.5 422.724 100.5C425.091 100.5 427.124 100.917 428.824 101.75C430.524 102.583 431.891 103.733 432.924 105.2C433.991 106.633 434.691 108.267 435.024 110.1L428.924 111.4C428.791 110.4 428.491 109.5 428.024 108.7C427.558 107.9 426.891 107.267 426.024 106.8C425.191 106.333 424.141 106.1 422.874 106.1C421.608 106.1 420.458 106.383 419.424 106.95C418.424 107.483 417.624 108.3 417.024 109.4C416.458 110.467 416.174 111.783 416.174 113.35V113.85C416.174 115.417 416.458 116.75 417.024 117.85C417.624 118.917 418.424 119.733 419.424 120.3C420.458 120.833 421.608 121.1 422.874 121.1C424.774 121.1 426.208 120.617 427.174 119.65C428.174 118.65 428.808 117.35 429.074 115.75L435.174 117.2C434.741 118.967 433.991 120.583 432.924 122.05C431.891 123.483 430.524 124.617 428.824 125.45C427.124 126.283 425.091 126.7 422.724 126.7ZM450.671 126.7C447.438 126.7 444.788 126 442.721 124.6C440.654 123.2 439.404 121.2 438.971 118.6L444.771 117.1C445.004 118.267 445.388 119.183 445.921 119.85C446.488 120.517 447.171 121 447.971 121.3C448.804 121.567 449.704 121.7 450.671 121.7C452.138 121.7 453.221 121.45 453.921 120.95C454.621 120.417 454.971 119.767 454.971 119C454.971 118.233 454.638 117.65 453.971 117.25C453.304 116.817 452.238 116.467 450.771 116.2L449.371 115.95C447.638 115.617 446.054 115.167 444.621 114.6C443.188 114 442.038 113.183 441.171 112.15C440.304 111.117 439.871 109.783 439.871 108.15C439.871 105.683 440.771 103.8 442.571 102.5C444.371 101.167 446.738 100.5 449.671 100.5C452.438 100.5 454.738 101.117 456.571 102.35C458.404 103.583 459.604 105.2 460.171 107.2L454.321 109C454.054 107.733 453.504 106.833 452.671 106.3C451.871 105.767 450.871 105.5 449.671 105.5C448.471 105.5 447.554 105.717 446.921 106.15C446.288 106.55 445.971 107.117 445.971 107.85C445.971 108.65 446.304 109.25 446.971 109.65C447.638 110.017 448.538 110.3 449.671 110.5L451.071 110.75C452.938 111.083 454.621 111.533 456.121 112.1C457.654 112.633 458.854 113.417 459.721 114.45C460.621 115.45 461.071 116.817 461.071 118.55C461.071 121.15 460.121 123.167 458.221 124.6C456.354 126 453.838 126.7 450.671 126.7Z" fill="#34D399"/>
<path d="M149.888 169.224C149.173 169.224 148.624 169.101 148.24 168.856C147.856 168.611 147.573 168.339 147.392 168.04H147.104V169H145.12V157.8H147.136V161.976H147.424C147.541 161.784 147.696 161.603 147.888 161.432C148.091 161.261 148.352 161.123 148.672 161.016C149.003 160.899 149.408 160.84 149.888 160.84C150.528 160.84 151.12 161 151.664 161.32C152.208 161.629 152.645 162.088 152.976 162.696C153.307 163.304 153.472 164.04 153.472 164.904V165.16C153.472 166.024 153.307 166.76 152.976 167.368C152.645 167.976 152.208 168.44 151.664 168.76C151.12 169.069 150.528 169.224 149.888 169.224ZM149.28 167.464C149.899 167.464 150.416 167.267 150.832 166.872C151.248 166.467 151.456 165.88 151.456 165.112V164.952C151.456 164.184 151.248 163.603 150.832 163.208C150.427 162.803 149.909 162.6 149.28 162.6C148.661 162.6 148.144 162.803 147.728 163.208C147.312 163.603 147.104 164.184 147.104 164.952V165.112C147.104 165.88 147.312 166.467 147.728 166.872C148.144 167.267 148.661 167.464 149.28 167.464ZM156.187 172.2V170.44H160.507C160.806 170.44 160.955 170.28 160.955 169.96V167.96H160.667C160.582 168.141 160.448 168.323 160.267 168.504C160.086 168.685 159.84 168.835 159.531 168.952C159.222 169.069 158.827 169.128 158.347 169.128C157.728 169.128 157.184 168.989 156.715 168.712C156.256 168.424 155.899 168.029 155.643 167.528C155.387 167.027 155.259 166.451 155.259 165.8V161.064H157.275V165.64C157.275 166.237 157.419 166.685 157.707 166.984C158.006 167.283 158.427 167.432 158.971 167.432C159.59 167.432 160.07 167.229 160.411 166.824C160.752 166.408 160.923 165.832 160.923 165.096V161.064H162.939V170.408C162.939 170.952 162.779 171.384 162.459 171.704C162.139 172.035 161.712 172.2 161.179 172.2H156.187ZM169.181 169V157.8H173.789C174.493 157.8 175.112 157.944 175.645 158.232C176.189 158.509 176.61 158.904 176.909 159.416C177.218 159.928 177.373 160.536 177.373 161.24V161.464C177.373 162.157 177.213 162.765 176.893 163.288C176.584 163.8 176.157 164.2 175.613 164.488C175.08 164.765 174.472 164.904 173.789 164.904H171.293V169H169.181ZM171.293 162.984H173.581C174.082 162.984 174.488 162.845 174.797 162.568C175.106 162.291 175.261 161.912 175.261 161.432V161.272C175.261 160.792 175.106 160.413 174.797 160.136C174.488 159.859 174.082 159.72 173.581 159.72H171.293V162.984ZM181.209 169.224C180.644 169.224 180.137 169.128 179.689 168.936C179.241 168.733 178.884 168.445 178.617 168.072C178.361 167.688 178.233 167.224 178.233 166.68C178.233 166.136 178.361 165.683 178.617 165.32C178.884 164.947 179.246 164.669 179.705 164.488C180.174 164.296 180.708 164.2 181.305 164.2H183.481V163.752C183.481 163.379 183.364 163.075 183.129 162.84C182.894 162.595 182.521 162.472 182.009 162.472C181.508 162.472 181.134 162.589 180.889 162.824C180.644 163.048 180.484 163.341 180.409 163.704L178.553 163.08C178.681 162.675 178.884 162.307 179.161 161.976C179.449 161.635 179.828 161.363 180.297 161.16C180.777 160.947 181.358 160.84 182.041 160.84C183.086 160.84 183.913 161.101 184.521 161.624C185.129 162.147 185.433 162.904 185.433 163.896V166.856C185.433 167.176 185.582 167.336 185.881 167.336H186.521V169H185.177C184.782 169 184.457 168.904 184.201 168.712C183.945 168.52 183.817 168.264 183.817 167.944V167.928H183.513C183.47 168.056 183.374 168.227 183.225 168.44C183.076 168.643 182.841 168.824 182.521 168.984C182.201 169.144 181.764 169.224 181.209 169.224ZM181.561 167.592C182.126 167.592 182.585 167.437 182.937 167.128C183.3 166.808 183.481 166.387 183.481 165.864V165.704H181.449C181.076 165.704 180.782 165.784 180.569 165.944C180.356 166.104 180.249 166.328 180.249 166.616C180.249 166.904 180.361 167.139 180.585 167.32C180.809 167.501 181.134 167.592 181.561 167.592ZM187.995 169V161.064H189.979V161.96H190.267C190.384 161.64 190.576 161.405 190.843 161.256C191.12 161.107 191.44 161.032 191.803 161.032H192.763V162.824H191.771C191.259 162.824 190.838 162.963 190.507 163.24C190.176 163.507 190.011 163.923 190.011 164.488V169H187.995ZM196.615 169.224C196.05 169.224 195.543 169.128 195.095 168.936C194.647 168.733 194.29 168.445 194.023 168.072C193.767 167.688 193.639 167.224 193.639 166.68C193.639 166.136 193.767 165.683 194.023 165.32C194.29 164.947 194.653 164.669 195.111 164.488C195.581 164.296 196.114 164.2 196.711 164.2H198.887V163.752C198.887 163.379 198.77 163.075 198.535 162.84C198.301 162.595 197.927 162.472 197.415 162.472C196.914 162.472 196.541 162.589 196.295 162.824C196.05 163.048 195.89 163.341 195.815 163.704L193.959 163.08C194.087 162.675 194.29 162.307 194.567 161.976C194.855 161.635 195.234 161.363 195.703 161.16C196.183 160.947 196.765 160.84 197.447 160.84C198.493 160.84 199.319 161.101 199.927 161.624C200.535 162.147 200.839 162.904 200.839 163.896V166.856C200.839 167.176 200.989 167.336 201.287 167.336H201.927V169H200.583C200.189 169 199.863 168.904 199.607 168.712C199.351 168.52 199.223 168.264 199.223 167.944V167.928H198.919C198.877 168.056 198.781 168.227 198.631 168.44C198.482 168.643 198.247 168.824 197.927 168.984C197.607 169.144 197.17 169.224 196.615 169.224ZM196.967 167.592C197.533 167.592 197.991 167.437 198.343 167.128C198.706 166.808 198.887 166.387 198.887 165.864V165.704H196.855C196.482 165.704 196.189 165.784 195.975 165.944C195.762 166.104 195.655 166.328 195.655 166.616C195.655 166.904 195.767 167.139 195.991 167.32C196.215 167.501 196.541 167.592 196.967 167.592ZM206.445 169.224C205.816 169.224 205.224 169.069 204.669 168.76C204.125 168.44 203.688 167.976 203.357 167.368C203.026 166.76 202.861 166.024 202.861 165.16V164.904C202.861 164.04 203.026 163.304 203.357 162.696C203.688 162.088 204.125 161.629 204.669 161.32C205.213 161 205.805 160.84 206.445 160.84C206.925 160.84 207.325 160.899 207.645 161.016C207.976 161.123 208.242 161.261 208.445 161.432C208.648 161.603 208.802 161.784 208.909 161.976H209.197V157.8H211.213V169H209.229V168.04H208.941C208.76 168.339 208.477 168.611 208.093 168.856C207.72 169.101 207.17 169.224 206.445 169.224ZM207.053 167.464C207.672 167.464 208.189 167.267 208.605 166.872C209.021 166.467 209.229 165.88 209.229 165.112V164.952C209.229 164.184 209.021 163.603 208.605 163.208C208.2 162.803 207.682 162.6 207.053 162.6C206.434 162.6 205.917 162.803 205.501 163.208C205.085 163.603 204.877 164.184 204.877 164.952V165.112C204.877 165.88 205.085 166.467 205.501 166.872C205.917 167.267 206.434 167.464 207.053 167.464ZM217.064 169.224C216.275 169.224 215.576 169.059 214.968 168.728C214.371 168.387 213.901 167.912 213.56 167.304C213.229 166.685 213.064 165.96 213.064 165.128V164.936C213.064 164.104 213.229 163.384 213.56 162.776C213.891 162.157 214.355 161.683 214.952 161.352C215.549 161.011 216.243 160.84 217.032 160.84C217.811 160.84 218.488 161.016 219.064 161.368C219.64 161.709 220.088 162.189 220.408 162.808C220.728 163.416 220.888 164.125 220.888 164.936V165.624H215.112C215.133 166.168 215.336 166.611 215.72 166.952C216.104 167.293 216.573 167.464 217.128 167.464C217.693 167.464 218.109 167.341 218.376 167.096C218.643 166.851 218.845 166.579 218.984 166.28L220.632 167.144C220.483 167.421 220.264 167.725 219.976 168.056C219.699 168.376 219.325 168.653 218.856 168.888C218.387 169.112 217.789 169.224 217.064 169.224ZM215.128 164.12H218.84C218.797 163.661 218.611 163.293 218.28 163.016C217.96 162.739 217.539 162.6 217.016 162.6C216.472 162.6 216.04 162.739 215.72 163.016C215.4 163.293 215.203 163.661 215.128 164.12ZM222.299 169V167.144H223.771V159.656H222.299V157.8H226.907C228.411 157.8 229.552 158.184 230.331 158.952C231.12 159.709 231.515 160.84 231.515 162.344V164.456C231.515 165.96 231.12 167.096 230.331 167.864C229.552 168.621 228.411 169 226.907 169H222.299ZM225.883 167.08H226.939C227.792 167.08 228.416 166.856 228.811 166.408C229.205 165.96 229.403 165.331 229.403 164.52V162.28C229.403 161.459 229.205 160.829 228.811 160.392C228.416 159.944 227.792 159.72 226.939 159.72H225.883V167.08ZM232.595 169V167.144H234.067V159.656H232.595V157.8H238.355C239.038 157.8 239.63 157.917 240.131 158.152C240.643 158.376 241.038 158.701 241.315 159.128C241.603 159.544 241.747 160.045 241.747 160.632V160.792C241.747 161.304 241.651 161.725 241.459 162.056C241.267 162.376 241.038 162.627 240.771 162.808C240.515 162.979 240.27 163.101 240.035 163.176V163.464C240.27 163.528 240.526 163.651 240.803 163.832C241.081 164.003 241.315 164.253 241.507 164.584C241.71 164.915 241.811 165.347 241.811 165.88V166.04C241.811 166.659 241.667 167.192 241.379 167.64C241.091 168.077 240.691 168.413 240.179 168.648C239.678 168.883 239.091 169 238.419 169H232.595ZM236.179 167.08H238.163C238.622 167.08 238.99 166.968 239.267 166.744C239.555 166.52 239.699 166.2 239.699 165.784V165.624C239.699 165.208 239.561 164.888 239.283 164.664C239.006 164.44 238.633 164.328 238.163 164.328H236.179V167.08ZM236.179 162.408H238.131C238.569 162.408 238.926 162.296 239.203 162.072C239.491 161.848 239.635 161.539 239.635 161.144V160.984C239.635 160.579 239.497 160.269 239.219 160.056C238.942 159.832 238.579 159.72 238.131 159.72H236.179V162.408Z" fill="#34D399" fill-opacity="0.7"/>
</svg>
