<svg width="800" height="400" viewBox="0 0 800 400" fill="none" xmlns="http://www.w3.org/2000/svg">
<mask id="mask0_75_15" style="mask-type:alpha" maskUnits="userSpaceOnUse" x="243" y="161" width="38" height="54">
<path d="M243.227 161.094H280.194V214.828H254.387L243.227 161.094Z" fill="#D9D9D9"/>
</mask>
<g mask="url(#mask0_75_15)">
<path d="M235.987 209.706C235.856 210.012 235.733 210.303 235.618 210.578H233.001C233.34 208.088 233.804 204.842 234.363 201.368C235.607 193.638 237.223 185.426 238.81 181.551C240.486 177.459 242.817 173.447 245.577 170.531C248.345 167.606 251.176 166.146 253.974 166.146C256.907 166.146 259.53 167.437 262.007 170.071C264.549 172.773 266.757 176.724 268.59 181.472C270.355 186.042 272.103 194.365 273.434 201.885C274.016 205.17 274.504 208.212 274.866 210.578H272.33C272.215 210.303 272.092 210.012 271.96 209.706C271.043 207.568 269.731 204.69 268.168 201.786C266.625 198.92 264.743 195.849 262.655 193.437C260.783 191.275 257.804 188.523 253.974 188.523C250.144 188.523 247.165 191.275 245.293 193.437C243.204 195.849 241.322 198.92 239.78 201.786C238.217 204.69 236.905 207.568 235.987 209.706Z" stroke="#34D399" stroke-width="8.5"/>
</g>
<mask id="mask1_75_15" style="mask-type:alpha" maskUnits="userSpaceOnUse" x="230" y="152" width="31" height="63">
<rect x="230" y="152" width="30.174" height="62.8281" fill="#D9D9D9"/>
</mask>
<g mask="url(#mask1_75_15)">
<path d="M209.758 209.525C209.565 209.899 209.386 210.251 209.223 210.578H204.655C204.66 210.543 204.665 210.507 204.67 210.471C205.072 207.477 205.651 203.384 206.36 198.976C207.812 189.956 209.712 180.268 211.604 175.647C213.342 171.404 215.615 169.365 218.264 168.216C221.174 166.953 224.936 166.584 230 166.584C235.391 166.584 238.756 166.644 241.408 167.725C243.613 168.624 245.789 170.463 247.761 175.568C249.853 180.986 251.907 190.786 253.462 199.569C254.213 203.812 254.83 207.709 255.264 210.578H250.777C250.614 210.251 250.435 209.899 250.242 209.525C249.166 207.433 247.625 204.616 245.791 201.776C243.977 198.967 241.773 195.972 239.341 193.631C237.05 191.426 233.826 189.084 230 189.084C226.174 189.084 222.95 191.426 220.659 193.631C218.227 195.972 216.023 198.967 214.209 201.776C212.375 204.616 210.834 207.433 209.758 209.525Z" stroke="#34D399" stroke-width="8.5"/>
<rect x="230" y="163.574" width="7.44017" height="28.934" fill="#34D399"/>
</g>
<mask id="mask2_75_15" style="mask-type:alpha" maskUnits="userSpaceOnUse" x="257" y="161" width="63" height="55">
<path d="M257.694 162.334L320 161.094V215.655H288.578L273.814 194.161L264.721 171.38L257.694 162.334Z" fill="#D9D9D9"/>
</mask>
<g mask="url(#mask2_75_15)">
<path d="M254.602 210.5C254.468 210.817 254.341 211.12 254.224 211.405H251.598C251.938 208.866 252.407 205.535 252.973 201.968C254.219 194.122 255.839 185.77 257.433 181.823C259.115 177.659 261.455 173.576 264.224 170.61C267.004 167.631 269.836 166.158 272.618 166.158C275.536 166.158 278.159 167.46 280.648 170.143C283.199 172.893 285.415 176.914 287.254 181.743C288.692 185.518 291.673 188.16 294.712 189.995C297.55 191.708 300.778 192.927 303.774 193.799L299.619 195.848C299.161 195.69 298.622 195.505 298.015 195.3C295.995 194.617 293.219 193.703 290.207 192.788C287.203 191.876 283.92 190.948 280.896 190.244C277.966 189.562 274.95 189.01 272.618 189.01C270.603 189.01 268.868 189.786 267.517 190.686C266.16 191.59 264.956 192.775 263.91 193.999C261.822 196.444 259.94 199.558 258.397 202.465C256.833 205.41 255.52 208.33 254.602 210.5Z" stroke="#34D399" stroke-width="8.5"/>
</g>
<path d="M342.5 211V176.2H348.7V179.2H349.6C350.167 178.233 351.05 177.383 352.25 176.65C353.45 175.883 355.167 175.5 357.4 175.5C359.4 175.5 361.25 176 362.95 177C364.65 177.967 366.017 179.4 367.05 181.3C368.083 183.2 368.6 185.5 368.6 188.2V189C368.6 191.7 368.083 194 367.05 195.9C366.017 197.8 364.65 199.25 362.95 200.25C361.25 201.217 359.4 201.7 357.4 201.7C355.9 201.7 354.633 201.517 353.6 201.15C352.6 200.817 351.783 200.383 351.15 199.85C350.55 199.283 350.067 198.717 349.7 198.15H348.8V211H342.5ZM355.5 196.2C357.467 196.2 359.083 195.583 360.35 194.35C361.65 193.083 362.3 191.25 362.3 188.85V188.35C362.3 185.95 361.65 184.133 360.35 182.9C359.05 181.633 357.433 181 355.5 181C353.567 181 351.95 181.633 350.65 182.9C349.35 184.133 348.7 185.95 348.7 188.35V188.85C348.7 191.25 349.35 193.083 350.65 194.35C351.95 195.583 353.567 196.2 355.5 196.2ZM373.185 188.7V187.9C373.185 185.3 373.701 183.083 374.735 181.25C375.768 179.383 377.135 177.967 378.835 177C380.568 176 382.451 175.5 384.485 175.5C386.751 175.5 388.468 175.9 389.635 176.7C390.801 177.5 391.651 178.333 392.185 179.2H393.085V176.2H399.285V205.4C399.285 207.1 398.785 208.45 397.785 209.45C396.785 210.483 395.451 211 393.785 211H377.185V205.5H391.585C392.518 205.5 392.985 205 392.985 204V197.55H392.085C391.751 198.083 391.285 198.633 390.685 199.2C390.085 199.733 389.285 200.183 388.285 200.55C387.285 200.917 386.018 201.1 384.485 201.1C382.451 201.1 380.568 200.617 378.835 199.65C377.135 198.65 375.768 197.233 374.735 195.4C373.701 193.533 373.185 191.3 373.185 188.7ZM386.285 195.6C388.218 195.6 389.835 194.983 391.135 193.75C392.435 192.517 393.085 190.783 393.085 188.55V188.05C393.085 185.783 392.435 184.05 391.135 182.85C389.868 181.617 388.251 181 386.285 181C384.351 181 382.735 181.617 381.435 182.85C380.135 184.05 379.485 185.783 379.485 188.05V188.55C379.485 190.783 380.135 192.517 381.435 193.75C382.735 194.983 384.351 195.6 386.285 195.6ZM406.02 209.1V203.4H430.52V209.1H406.02ZM452.175 201.7C449.942 201.7 448.225 201.317 447.025 200.55C445.825 199.783 444.942 198.933 444.375 198H443.475V201H437.275V166H443.575V179.05H444.475C444.842 178.45 445.325 177.883 445.925 177.35C446.559 176.817 447.375 176.383 448.375 176.05C449.409 175.683 450.675 175.5 452.175 175.5C454.175 175.5 456.025 176 457.725 177C459.425 177.967 460.792 179.4 461.825 181.3C462.859 183.2 463.375 185.5 463.375 188.2V189C463.375 191.7 462.859 194 461.825 195.9C460.792 197.8 459.425 199.25 457.725 200.25C456.025 201.217 454.175 201.7 452.175 201.7ZM450.275 196.2C452.209 196.2 453.825 195.583 455.125 194.35C456.425 193.083 457.075 191.25 457.075 188.85V188.35C457.075 185.95 456.425 184.133 455.125 182.9C453.859 181.633 452.242 181 450.275 181C448.342 181 446.725 181.633 445.425 182.9C444.125 184.133 443.475 185.95 443.475 188.35V188.85C443.475 191.25 444.125 193.083 445.425 194.35C446.725 195.583 448.342 196.2 450.275 196.2ZM469.16 201V176.2H475.36V178.9H476.26C476.693 178.067 477.41 177.35 478.41 176.75C479.41 176.117 480.727 175.8 482.36 175.8C484.127 175.8 485.543 176.15 486.61 176.85C487.677 177.517 488.493 178.4 489.06 179.5H489.96C490.527 178.433 491.327 177.55 492.36 176.85C493.393 176.15 494.86 175.8 496.76 175.8C498.293 175.8 499.677 176.133 500.91 176.8C502.177 177.433 503.177 178.417 503.91 179.75C504.677 181.05 505.06 182.7 505.06 184.7V201H498.76V185.15C498.76 183.783 498.41 182.767 497.71 182.1C497.01 181.4 496.027 181.05 494.76 181.05C493.327 181.05 492.21 181.517 491.41 182.45C490.643 183.35 490.26 184.65 490.26 186.35V201H483.96V185.15C483.96 183.783 483.61 182.767 482.91 182.1C482.21 181.4 481.227 181.05 479.96 181.05C478.527 181.05 477.41 181.517 476.61 182.45C475.843 183.35 475.46 184.65 475.46 186.35V201H469.16ZM510.436 201V196.8C510.436 194.367 510.836 192.35 511.636 190.75C512.436 189.117 513.586 187.783 515.086 186.75C516.619 185.683 518.486 184.817 520.686 184.15L524.036 183.1C525.269 182.7 526.303 182.217 527.136 181.65C527.969 181.05 528.603 180.333 529.036 179.5C529.503 178.667 529.736 177.717 529.736 176.65V176.45C529.736 174.783 529.169 173.467 528.036 172.5C526.903 171.5 525.353 171 523.386 171C521.453 171 519.886 171.533 518.686 172.6C517.519 173.633 516.936 175.133 516.936 177.1V178H510.536V177.2C510.536 174.667 511.103 172.517 512.236 170.75C513.369 168.983 514.903 167.633 516.836 166.7C518.803 165.767 520.986 165.3 523.386 165.3C525.786 165.3 527.953 165.767 529.886 166.7C531.819 167.6 533.336 168.883 534.436 170.55C535.569 172.183 536.136 174.117 536.136 176.35V176.85C536.136 179.083 535.669 180.983 534.736 182.55C533.836 184.083 532.603 185.35 531.036 186.35C529.469 187.317 527.686 188.117 525.686 188.75L522.486 189.75C521.053 190.183 519.936 190.667 519.136 191.2C518.336 191.7 517.769 192.267 517.436 192.9C517.136 193.5 516.986 194.233 516.986 195.1V195.3H535.836V201H510.436ZM553.173 201.7C550.44 201.7 548.073 201.217 546.073 200.25C544.107 199.283 542.59 197.917 541.523 196.15C540.457 194.383 539.923 192.333 539.923 190V189.5H546.423V189.95C546.423 191.617 546.973 193.05 548.073 194.25C549.207 195.417 550.873 196 553.073 196C555.273 196 556.957 195.417 558.123 194.25C559.323 193.05 559.923 191.5 559.923 189.6V189.1C559.923 187.233 559.323 185.75 558.123 184.65C556.957 183.55 555.49 183 553.723 183C552.757 183 551.957 183.133 551.323 183.4C550.69 183.667 550.173 184 549.773 184.4C549.373 184.8 549.04 185.2 548.773 185.6H541.023V166H564.923V171.8H547.423V180.35H548.323C548.657 179.917 549.107 179.5 549.673 179.1C550.24 178.7 550.973 178.367 551.873 178.1C552.773 177.833 553.84 177.7 555.073 177.7C557.14 177.7 559.023 178.133 560.723 179C562.423 179.867 563.773 181.15 564.773 182.85C565.807 184.517 566.323 186.583 566.323 189.05V189.65C566.323 192.117 565.79 194.25 564.723 196.05C563.69 197.85 562.19 199.25 560.223 200.25C558.257 201.217 555.907 201.7 553.173 201.7Z" fill="#34D399"/>
<path d="M344.888 244.224C344.173 244.224 343.624 244.101 343.24 243.856C342.856 243.611 342.573 243.339 342.392 243.04H342.104V244H340.12V232.8H342.136V236.976H342.424C342.541 236.784 342.696 236.603 342.888 236.432C343.091 236.261 343.352 236.123 343.672 236.016C344.003 235.899 344.408 235.84 344.888 235.84C345.528 235.84 346.12 236 346.664 236.32C347.208 236.629 347.645 237.088 347.976 237.696C348.307 238.304 348.472 239.04 348.472 239.904V240.16C348.472 241.024 348.307 241.76 347.976 242.368C347.645 242.976 347.208 243.44 346.664 243.76C346.12 244.069 345.528 244.224 344.888 244.224ZM344.28 242.464C344.899 242.464 345.416 242.267 345.832 241.872C346.248 241.467 346.456 240.88 346.456 240.112V239.952C346.456 239.184 346.248 238.603 345.832 238.208C345.427 237.803 344.909 237.6 344.28 237.6C343.661 237.6 343.144 237.803 342.728 238.208C342.312 238.603 342.104 239.184 342.104 239.952V240.112C342.104 240.88 342.312 241.467 342.728 241.872C343.144 242.267 343.661 242.464 344.28 242.464ZM351.187 247.2V245.44H355.507C355.806 245.44 355.955 245.28 355.955 244.96V242.96H355.667C355.582 243.141 355.448 243.323 355.267 243.504C355.086 243.685 354.84 243.835 354.531 243.952C354.222 244.069 353.827 244.128 353.347 244.128C352.728 244.128 352.184 243.989 351.715 243.712C351.256 243.424 350.899 243.029 350.643 242.528C350.387 242.027 350.259 241.451 350.259 240.8V236.064H352.275V240.64C352.275 241.237 352.419 241.685 352.707 241.984C353.006 242.283 353.427 242.432 353.971 242.432C354.59 242.432 355.07 242.229 355.411 241.824C355.752 241.408 355.923 240.832 355.923 240.096V236.064H357.939V245.408C357.939 245.952 357.779 246.384 357.459 246.704C357.139 247.035 356.712 247.2 356.179 247.2H351.187ZM364.181 244V232.8H368.789C369.493 232.8 370.112 232.944 370.645 233.232C371.189 233.509 371.61 233.904 371.909 234.416C372.218 234.928 372.373 235.536 372.373 236.24V236.464C372.373 237.157 372.213 237.765 371.893 238.288C371.584 238.8 371.157 239.2 370.613 239.488C370.08 239.765 369.472 239.904 368.789 239.904H366.293V244H364.181ZM366.293 237.984H368.581C369.082 237.984 369.488 237.845 369.797 237.568C370.106 237.291 370.261 236.912 370.261 236.432V236.272C370.261 235.792 370.106 235.413 369.797 235.136C369.488 234.859 369.082 234.72 368.581 234.72H366.293V237.984ZM376.209 244.224C375.644 244.224 375.137 244.128 374.689 243.936C374.241 243.733 373.884 243.445 373.617 243.072C373.361 242.688 373.233 242.224 373.233 241.68C373.233 241.136 373.361 240.683 373.617 240.32C373.884 239.947 374.246 239.669 374.705 239.488C375.174 239.296 375.708 239.2 376.305 239.2H378.481V238.752C378.481 238.379 378.364 238.075 378.129 237.84C377.894 237.595 377.521 237.472 377.009 237.472C376.508 237.472 376.134 237.589 375.889 237.824C375.644 238.048 375.484 238.341 375.409 238.704L373.553 238.08C373.681 237.675 373.884 237.307 374.161 236.976C374.449 236.635 374.828 236.363 375.297 236.16C375.777 235.947 376.358 235.84 377.041 235.84C378.086 235.84 378.913 236.101 379.521 236.624C380.129 237.147 380.433 237.904 380.433 238.896V241.856C380.433 242.176 380.582 242.336 380.881 242.336H381.521V244H380.177C379.782 244 379.457 243.904 379.201 243.712C378.945 243.52 378.817 243.264 378.817 242.944V242.928H378.513C378.47 243.056 378.374 243.227 378.225 243.44C378.076 243.643 377.841 243.824 377.521 243.984C377.201 244.144 376.764 244.224 376.209 244.224ZM376.561 242.592C377.126 242.592 377.585 242.437 377.937 242.128C378.3 241.808 378.481 241.387 378.481 240.864V240.704H376.449C376.076 240.704 375.782 240.784 375.569 240.944C375.356 241.104 375.249 241.328 375.249 241.616C375.249 241.904 375.361 242.139 375.585 242.32C375.809 242.501 376.134 242.592 376.561 242.592ZM382.995 244V236.064H384.979V236.96H385.267C385.384 236.64 385.576 236.405 385.843 236.256C386.12 236.107 386.44 236.032 386.803 236.032H387.763V237.824H386.771C386.259 237.824 385.838 237.963 385.507 238.24C385.176 238.507 385.011 238.923 385.011 239.488V244H382.995ZM391.615 244.224C391.05 244.224 390.543 244.128 390.095 243.936C389.647 243.733 389.29 243.445 389.023 243.072C388.767 242.688 388.639 242.224 388.639 241.68C388.639 241.136 388.767 240.683 389.023 240.32C389.29 239.947 389.653 239.669 390.111 239.488C390.581 239.296 391.114 239.2 391.711 239.2H393.887V238.752C393.887 238.379 393.77 238.075 393.535 237.84C393.301 237.595 392.927 237.472 392.415 237.472C391.914 237.472 391.541 237.589 391.295 237.824C391.05 238.048 390.89 238.341 390.815 238.704L388.959 238.08C389.087 237.675 389.29 237.307 389.567 236.976C389.855 236.635 390.234 236.363 390.703 236.16C391.183 235.947 391.765 235.84 392.447 235.84C393.493 235.84 394.319 236.101 394.927 236.624C395.535 237.147 395.839 237.904 395.839 238.896V241.856C395.839 242.176 395.989 242.336 396.287 242.336H396.927V244H395.583C395.189 244 394.863 243.904 394.607 243.712C394.351 243.52 394.223 243.264 394.223 242.944V242.928H393.919C393.877 243.056 393.781 243.227 393.631 243.44C393.482 243.643 393.247 243.824 392.927 243.984C392.607 244.144 392.17 244.224 391.615 244.224ZM391.967 242.592C392.533 242.592 392.991 242.437 393.343 242.128C393.706 241.808 393.887 241.387 393.887 240.864V240.704H391.855C391.482 240.704 391.189 240.784 390.975 240.944C390.762 241.104 390.655 241.328 390.655 241.616C390.655 241.904 390.767 242.139 390.991 242.32C391.215 242.501 391.541 242.592 391.967 242.592ZM401.445 244.224C400.816 244.224 400.224 244.069 399.669 243.76C399.125 243.44 398.688 242.976 398.357 242.368C398.026 241.76 397.861 241.024 397.861 240.16V239.904C397.861 239.04 398.026 238.304 398.357 237.696C398.688 237.088 399.125 236.629 399.669 236.32C400.213 236 400.805 235.84 401.445 235.84C401.925 235.84 402.325 235.899 402.645 236.016C402.976 236.123 403.242 236.261 403.445 236.432C403.648 236.603 403.802 236.784 403.909 236.976H404.197V232.8H406.213V244H404.229V243.04H403.941C403.76 243.339 403.477 243.611 403.093 243.856C402.72 244.101 402.17 244.224 401.445 244.224ZM402.053 242.464C402.672 242.464 403.189 242.267 403.605 241.872C404.021 241.467 404.229 240.88 404.229 240.112V239.952C404.229 239.184 404.021 238.603 403.605 238.208C403.2 237.803 402.682 237.6 402.053 237.6C401.434 237.6 400.917 237.803 400.501 238.208C400.085 238.603 399.877 239.184 399.877 239.952V240.112C399.877 240.88 400.085 241.467 400.501 241.872C400.917 242.267 401.434 242.464 402.053 242.464ZM412.064 244.224C411.275 244.224 410.576 244.059 409.968 243.728C409.371 243.387 408.901 242.912 408.56 242.304C408.229 241.685 408.064 240.96 408.064 240.128V239.936C408.064 239.104 408.229 238.384 408.56 237.776C408.891 237.157 409.355 236.683 409.952 236.352C410.549 236.011 411.243 235.84 412.032 235.84C412.811 235.84 413.488 236.016 414.064 236.368C414.64 236.709 415.088 237.189 415.408 237.808C415.728 238.416 415.888 239.125 415.888 239.936V240.624H410.112C410.133 241.168 410.336 241.611 410.72 241.952C411.104 242.293 411.573 242.464 412.128 242.464C412.693 242.464 413.109 242.341 413.376 242.096C413.643 241.851 413.845 241.579 413.984 241.28L415.632 242.144C415.483 242.421 415.264 242.725 414.976 243.056C414.699 243.376 414.325 243.653 413.856 243.888C413.387 244.112 412.789 244.224 412.064 244.224ZM410.128 239.12H413.84C413.797 238.661 413.611 238.293 413.28 238.016C412.96 237.739 412.539 237.6 412.016 237.6C411.472 237.6 411.04 237.739 410.72 238.016C410.4 238.293 410.203 238.661 410.128 239.12ZM417.299 244V242.144H418.771V234.656H417.299V232.8H421.907C423.411 232.8 424.552 233.184 425.331 233.952C426.12 234.709 426.515 235.84 426.515 237.344V239.456C426.515 240.96 426.12 242.096 425.331 242.864C424.552 243.621 423.411 244 421.907 244H417.299ZM420.883 242.08H421.939C422.792 242.08 423.416 241.856 423.811 241.408C424.205 240.96 424.403 240.331 424.403 239.52V237.28C424.403 236.459 424.205 235.829 423.811 235.392C423.416 234.944 422.792 234.72 421.939 234.72H420.883V242.08ZM427.595 244V242.144H429.067V234.656H427.595V232.8H433.355C434.038 232.8 434.63 232.917 435.131 233.152C435.643 233.376 436.038 233.701 436.315 234.128C436.603 234.544 436.747 235.045 436.747 235.632V235.792C436.747 236.304 436.651 236.725 436.459 237.056C436.267 237.376 436.038 237.627 435.771 237.808C435.515 237.979 435.27 238.101 435.035 238.176V238.464C435.27 238.528 435.526 238.651 435.803 238.832C436.081 239.003 436.315 239.253 436.507 239.584C436.71 239.915 436.811 240.347 436.811 240.88V241.04C436.811 241.659 436.667 242.192 436.379 242.64C436.091 243.077 435.691 243.413 435.179 243.648C434.678 243.883 434.091 244 433.419 244H427.595ZM431.179 242.08H433.163C433.622 242.08 433.99 241.968 434.267 241.744C434.555 241.52 434.699 241.2 434.699 240.784V240.624C434.699 240.208 434.561 239.888 434.283 239.664C434.006 239.44 433.633 239.328 433.163 239.328H431.179V242.08ZM431.179 237.408H433.131C433.569 237.408 433.926 237.296 434.203 237.072C434.491 236.848 434.635 236.539 434.635 236.144V235.984C434.635 235.579 434.497 235.269 434.219 235.056C433.942 234.832 433.579 234.72 433.131 234.72H431.179V237.408Z" fill="#34D399" fill-opacity="0.7"/>
</svg>
