<svg width="500" height="250" viewBox="0 0 500 250" fill="none" xmlns="http://www.w3.org/2000/svg">
<mask id="mask0_115_15" style="mask-type:alpha" maskUnits="userSpaceOnUse" x="48" y="86" width="38" height="54">
<path d="M48.2271 86.0935H85.1941V139.828H59.3873L48.2271 86.0935Z" fill="#D9D9D9"/>
</mask>
<g mask="url(#mask0_115_15)">
<path d="M40.9875 134.706C40.8564 135.012 40.733 135.303 40.6177 135.578H38.0015C38.3398 133.088 38.8043 129.842 39.3633 126.368C40.607 118.638 42.2232 110.426 43.81 106.551C45.486 102.459 47.8175 98.4467 50.5768 95.5312C53.3447 92.6064 56.1759 91.1455 58.974 91.1455C61.9073 91.1455 64.5303 92.437 67.0074 95.0705C69.5489 97.7726 71.7568 101.724 73.5901 106.472C75.3548 111.042 77.1029 119.365 78.4345 126.885C79.0162 130.17 79.5037 133.212 79.8656 135.578H77.3302C77.215 135.303 77.0916 135.012 76.9605 134.706C76.0433 132.568 74.7308 129.69 73.1681 126.786C71.6255 123.92 69.7435 120.849 67.6547 118.437C65.7828 116.275 62.8039 113.523 58.974 113.523C55.1441 113.523 52.1651 116.275 50.2932 118.437C48.2045 120.849 46.3225 123.92 44.7799 126.786C43.2172 129.69 41.9047 132.568 40.9875 134.706Z" stroke="#34D399" stroke-width="8.5"/>
</g>
<mask id="mask1_115_15" style="mask-type:alpha" maskUnits="userSpaceOnUse" x="35" y="77" width="31" height="63">
<rect x="35" y="77" width="30.174" height="62.8281" fill="#D9D9D9"/>
</mask>
<g mask="url(#mask1_115_15)">
<path d="M14.7575 134.525C14.5648 134.899 14.3863 135.251 14.2229 135.578H9.65547C9.66024 135.543 9.66504 135.507 9.66986 135.471C10.072 132.477 10.6513 128.384 11.3605 123.976C12.8116 114.956 14.7117 105.268 16.6041 100.647C18.3419 96.4042 20.6148 94.3653 23.2641 93.2159C26.174 91.9534 29.9356 91.5836 35 91.5836C40.3905 91.5836 43.7563 91.6442 46.4083 92.7252C48.6126 93.6237 50.7894 95.4626 52.7606 100.568C54.8528 105.986 56.9066 115.786 58.462 124.569C59.2134 128.812 59.8304 132.709 60.264 135.578H55.777C55.6136 135.251 55.4351 134.899 55.2424 134.525C54.1655 132.433 52.6249 129.616 50.7907 126.776C48.9769 123.967 46.7726 120.972 44.3405 118.631C42.05 116.426 38.8256 114.084 35 114.084C31.1744 114.084 27.95 116.426 25.6594 118.631C23.2273 120.972 21.023 123.967 19.2092 126.776C17.375 129.616 15.8344 132.433 14.7575 134.525Z" stroke="#34D399" stroke-width="8.5"/>
<rect x="35" y="88.5736" width="7.44017" height="28.934" fill="#34D399"/>
</g>
<mask id="mask2_115_15" style="mask-type:alpha" maskUnits="userSpaceOnUse" x="62" y="86" width="63" height="55">
<path d="M62.6941 87.3335L125 86.0935V140.655H93.5783L78.8145 119.161L69.7209 96.3796L62.6941 87.3335Z" fill="#D9D9D9"/>
</mask>
<g mask="url(#mask2_115_15)">
<path d="M56.5985 136.405C56.9382 133.866 57.4076 130.535 57.9736 126.968C59.2187 119.122 60.839 110.77 62.4335 106.823C64.1155 102.659 66.4551 98.5764 69.2239 95.6102C72.0043 92.6315 74.836 91.158 77.618 91.158C80.5359 91.158 83.1591 92.4599 85.6478 95.1426C88.1995 97.8931 90.4155 101.914 92.2546 106.743C93.6921 110.518 96.6729 113.16 99.7122 114.995C102.55 116.708 105.778 117.927 108.774 118.799L104.619 120.848C104.161 120.69 103.622 120.505 103.016 120.3C100.995 119.617 98.2196 118.703 95.2075 117.788C92.2034 116.876 88.9206 115.948 85.8966 115.244C82.9664 114.562 79.95 114.01 77.618 114.01C75.6036 114.01 73.8678 114.786 72.5169 115.686C71.1604 116.59 69.9559 117.775 68.9103 118.999C66.8223 121.444 64.9404 124.558 63.397 127.465C61.8336 130.41 60.5203 133.33 59.6024 135.5C59.468 135.817 59.3416 136.12 59.2238 136.405H56.5985Z" stroke="#34D399" stroke-width="8.5"/>
</g>
<path d="M147.5 136V101.2H153.7V104.2H154.6C155.167 103.233 156.05 102.383 157.25 101.65C158.45 100.883 160.167 100.5 162.4 100.5C164.4 100.5 166.25 101 167.95 102C169.65 102.967 171.017 104.4 172.05 106.3C173.083 108.2 173.6 110.5 173.6 113.2V114C173.6 116.7 173.083 119 172.05 120.9C171.017 122.8 169.65 124.25 167.95 125.25C166.25 126.217 164.4 126.7 162.4 126.7C160.9 126.7 159.633 126.517 158.6 126.15C157.6 125.817 156.783 125.383 156.15 124.85C155.55 124.283 155.067 123.717 154.7 123.15H153.8V136H147.5ZM160.5 121.2C162.467 121.2 164.083 120.583 165.35 119.35C166.65 118.083 167.3 116.25 167.3 113.85V113.35C167.3 110.95 166.65 109.133 165.35 107.9C164.05 106.633 162.433 106 160.5 106C158.567 106 156.95 106.633 155.65 107.9C154.35 109.133 153.7 110.95 153.7 113.35V113.85C153.7 116.25 154.35 118.083 155.65 119.35C156.95 120.583 158.567 121.2 160.5 121.2ZM178.185 113.7V112.9C178.185 110.3 178.701 108.083 179.735 106.25C180.768 104.383 182.135 102.967 183.835 102C185.568 101 187.451 100.5 189.485 100.5C191.751 100.5 193.468 100.9 194.635 101.7C195.801 102.5 196.651 103.333 197.185 104.2H198.085V101.2H204.285V130.4C204.285 132.1 203.785 133.45 202.785 134.45C201.785 135.483 200.451 136 198.785 136H182.185V130.5H196.585C197.518 130.5 197.985 130 197.985 129V122.55H197.085C196.751 123.083 196.285 123.633 195.685 124.2C195.085 124.733 194.285 125.183 193.285 125.55C192.285 125.917 191.018 126.1 189.485 126.1C187.451 126.1 185.568 125.617 183.835 124.65C182.135 123.65 180.768 122.233 179.735 120.4C178.701 118.533 178.185 116.3 178.185 113.7ZM191.285 120.6C193.218 120.6 194.835 119.983 196.135 118.75C197.435 117.517 198.085 115.783 198.085 113.55V113.05C198.085 110.783 197.435 109.05 196.135 107.85C194.868 106.617 193.251 106 191.285 106C189.351 106 187.735 106.617 186.435 107.85C185.135 109.05 184.485 110.783 184.485 113.05V113.55C184.485 115.783 185.135 117.517 186.435 118.75C187.735 119.983 189.351 120.6 191.285 120.6ZM211.02 134.1V128.4H235.52V134.1H211.02ZM242.275 126V91H248.575V126H242.275ZM263.257 126.7C261.49 126.7 259.907 126.4 258.507 125.8C257.107 125.167 255.99 124.267 255.157 123.1C254.357 121.9 253.957 120.45 253.957 118.75C253.957 117.05 254.357 115.633 255.157 114.5C255.99 113.333 257.123 112.467 258.557 111.9C260.023 111.3 261.69 111 263.557 111H270.357V109.6C270.357 108.433 269.99 107.483 269.257 106.75C268.523 105.983 267.357 105.6 265.757 105.6C264.19 105.6 263.023 105.967 262.257 106.7C261.49 107.4 260.99 108.317 260.757 109.45L254.957 107.5C255.357 106.233 255.99 105.083 256.857 104.05C257.757 102.983 258.94 102.133 260.407 101.5C261.907 100.833 263.723 100.5 265.857 100.5C269.123 100.5 271.707 101.317 273.607 102.95C275.507 104.583 276.457 106.95 276.457 110.05V119.3C276.457 120.3 276.923 120.8 277.857 120.8H279.857V126H275.657C274.423 126 273.407 125.7 272.607 125.1C271.807 124.5 271.407 123.7 271.407 122.7V122.65H270.457C270.323 123.05 270.023 123.583 269.557 124.25C269.09 124.883 268.357 125.45 267.357 125.95C266.357 126.45 264.99 126.7 263.257 126.7ZM264.357 121.6C266.123 121.6 267.557 121.117 268.657 120.15C269.79 119.15 270.357 117.833 270.357 116.2V115.7H264.007C262.84 115.7 261.923 115.95 261.257 116.45C260.59 116.95 260.257 117.65 260.257 118.55C260.257 119.45 260.607 120.183 261.307 120.75C262.007 121.317 263.023 121.6 264.357 121.6ZM284.463 126V91H290.763V110.35H291.663L299.863 101.2H308.063L296.613 113.2L308.463 126H300.363L291.663 116.15H290.763V126H284.463ZM322.472 126.7C320.005 126.7 317.822 126.183 315.922 125.15C314.055 124.083 312.589 122.6 311.522 120.7C310.489 118.767 309.972 116.5 309.972 113.9V113.3C309.972 110.7 310.489 108.45 311.522 106.55C312.555 104.617 314.005 103.133 315.872 102.1C317.739 101.033 319.905 100.5 322.372 100.5C324.805 100.5 326.922 101.05 328.722 102.15C330.522 103.217 331.922 104.717 332.922 106.65C333.922 108.55 334.422 110.767 334.422 113.3V115.45H316.372C316.439 117.15 317.072 118.533 318.272 119.6C319.472 120.667 320.939 121.2 322.672 121.2C324.439 121.2 325.739 120.817 326.572 120.05C327.405 119.283 328.039 118.433 328.472 117.5L333.622 120.2C333.155 121.067 332.472 122.017 331.572 123.05C330.705 124.05 329.539 124.917 328.072 125.65C326.605 126.35 324.739 126.7 322.472 126.7ZM316.422 110.75H328.022C327.889 109.317 327.305 108.167 326.272 107.3C325.272 106.433 323.955 106 322.322 106C320.622 106 319.272 106.433 318.272 107.3C317.272 108.167 316.655 109.317 316.422 110.75ZM340.029 126V91H346.329V104.25H347.229C347.496 103.717 347.913 103.183 348.479 102.65C349.046 102.117 349.796 101.683 350.729 101.35C351.696 100.983 352.913 100.8 354.379 100.8C356.313 100.8 357.996 101.25 359.429 102.15C360.896 103.017 362.029 104.233 362.829 105.8C363.629 107.333 364.029 109.133 364.029 111.2V126H357.729V111.7C357.729 109.833 357.263 108.433 356.329 107.5C355.429 106.567 354.129 106.1 352.429 106.1C350.496 106.1 348.996 106.75 347.929 108.05C346.863 109.317 346.329 111.1 346.329 113.4V126H340.029ZM382.64 126.7C380.173 126.7 377.957 126.2 375.99 125.2C374.023 124.2 372.473 122.75 371.34 120.85C370.207 118.95 369.64 116.667 369.64 114V113.2C369.64 110.533 370.207 108.25 371.34 106.35C372.473 104.45 374.023 103 375.99 102C377.957 101 380.173 100.5 382.64 100.5C385.107 100.5 387.323 101 389.29 102C391.257 103 392.807 104.45 393.94 106.35C395.073 108.25 395.64 110.533 395.64 113.2V114C395.64 116.667 395.073 118.95 393.94 120.85C392.807 122.75 391.257 124.2 389.29 125.2C387.323 126.2 385.107 126.7 382.64 126.7ZM382.64 121.1C384.573 121.1 386.173 120.483 387.44 119.25C388.707 117.983 389.34 116.183 389.34 113.85V113.35C389.34 111.017 388.707 109.233 387.44 108C386.207 106.733 384.607 106.1 382.64 106.1C380.707 106.1 379.107 106.733 377.84 108C376.573 109.233 375.94 111.017 375.94 113.35V113.85C375.94 116.183 376.573 117.983 377.84 119.25C379.107 120.483 380.707 121.1 382.64 121.1ZM410.905 126.4C408.972 126.4 407.272 125.967 405.805 125.1C404.372 124.2 403.255 122.967 402.455 121.4C401.655 119.833 401.255 118.033 401.255 116V101.2H407.555V115.5C407.555 117.367 408.005 118.767 408.905 119.7C409.838 120.633 411.155 121.1 412.855 121.1C414.788 121.1 416.288 120.467 417.355 119.2C418.422 117.9 418.955 116.1 418.955 113.8V101.2H425.255V126H419.055V122.75H418.155C417.755 123.583 417.005 124.4 415.905 125.2C414.805 126 413.138 126.4 410.905 126.4ZM442.566 126.7C439.332 126.7 436.682 126 434.616 124.6C432.549 123.2 431.299 121.2 430.866 118.6L436.666 117.1C436.899 118.267 437.282 119.183 437.816 119.85C438.382 120.517 439.066 121 439.866 121.3C440.699 121.567 441.599 121.7 442.566 121.7C444.032 121.7 445.116 121.45 445.816 120.95C446.516 120.417 446.866 119.767 446.866 119C446.866 118.233 446.532 117.65 445.866 117.25C445.199 116.817 444.132 116.467 442.666 116.2L441.266 115.95C439.532 115.617 437.949 115.167 436.516 114.6C435.082 114 433.932 113.183 433.066 112.15C432.199 111.117 431.766 109.783 431.766 108.15C431.766 105.683 432.666 103.8 434.466 102.5C436.266 101.167 438.632 100.5 441.566 100.5C444.332 100.5 446.632 101.117 448.466 102.35C450.299 103.583 451.499 105.2 452.066 107.2L446.216 109C445.949 107.733 445.399 106.833 444.566 106.3C443.766 105.767 442.766 105.5 441.566 105.5C440.366 105.5 439.449 105.717 438.816 106.15C438.182 106.55 437.866 107.117 437.866 107.85C437.866 108.65 438.199 109.25 438.866 109.65C439.532 110.017 440.432 110.3 441.566 110.5L442.966 110.75C444.832 111.083 446.516 111.533 448.016 112.1C449.549 112.633 450.749 113.417 451.616 114.45C452.516 115.45 452.966 116.817 452.966 118.55C452.966 121.15 452.016 123.167 450.116 124.6C448.249 126 445.732 126.7 442.566 126.7ZM469.786 126.7C467.32 126.7 465.136 126.183 463.236 125.15C461.37 124.083 459.903 122.6 458.836 120.7C457.803 118.767 457.286 116.5 457.286 113.9V113.3C457.286 110.7 457.803 108.45 458.836 106.55C459.87 104.617 461.32 103.133 463.186 102.1C465.053 101.033 467.22 100.5 469.686 100.5C472.12 100.5 474.236 101.05 476.036 102.15C477.836 103.217 479.236 104.717 480.236 106.65C481.236 108.55 481.736 110.767 481.736 113.3V115.45H463.686C463.753 117.15 464.386 118.533 465.586 119.6C466.786 120.667 468.253 121.2 469.986 121.2C471.753 121.2 473.053 120.817 473.886 120.05C474.72 119.283 475.353 118.433 475.786 117.5L480.936 120.2C480.47 121.067 479.786 122.017 478.886 123.05C478.02 124.05 476.853 124.917 475.386 125.65C473.92 126.35 472.053 126.7 469.786 126.7ZM463.736 110.75H475.336C475.203 109.317 474.62 108.167 473.586 107.3C472.586 106.433 471.27 106 469.636 106C467.936 106 466.586 106.433 465.586 107.3C464.586 108.167 463.97 109.317 463.736 110.75Z" fill="#34D399"/>
<path d="M149.888 169.224C149.173 169.224 148.624 169.101 148.24 168.856C147.856 168.611 147.573 168.339 147.392 168.04H147.104V169H145.12V157.8H147.136V161.976H147.424C147.541 161.784 147.696 161.603 147.888 161.432C148.091 161.261 148.352 161.123 148.672 161.016C149.003 160.899 149.408 160.84 149.888 160.84C150.528 160.84 151.12 161 151.664 161.32C152.208 161.629 152.645 162.088 152.976 162.696C153.307 163.304 153.472 164.04 153.472 164.904V165.16C153.472 166.024 153.307 166.76 152.976 167.368C152.645 167.976 152.208 168.44 151.664 168.76C151.12 169.069 150.528 169.224 149.888 169.224ZM149.28 167.464C149.899 167.464 150.416 167.267 150.832 166.872C151.248 166.467 151.456 165.88 151.456 165.112V164.952C151.456 164.184 151.248 163.603 150.832 163.208C150.427 162.803 149.909 162.6 149.28 162.6C148.661 162.6 148.144 162.803 147.728 163.208C147.312 163.603 147.104 164.184 147.104 164.952V165.112C147.104 165.88 147.312 166.467 147.728 166.872C148.144 167.267 148.661 167.464 149.28 167.464ZM156.187 172.2V170.44H160.507C160.806 170.44 160.955 170.28 160.955 169.96V167.96H160.667C160.582 168.141 160.448 168.323 160.267 168.504C160.086 168.685 159.84 168.835 159.531 168.952C159.222 169.069 158.827 169.128 158.347 169.128C157.728 169.128 157.184 168.989 156.715 168.712C156.256 168.424 155.899 168.029 155.643 167.528C155.387 167.027 155.259 166.451 155.259 165.8V161.064H157.275V165.64C157.275 166.237 157.419 166.685 157.707 166.984C158.006 167.283 158.427 167.432 158.971 167.432C159.59 167.432 160.07 167.229 160.411 166.824C160.752 166.408 160.923 165.832 160.923 165.096V161.064H162.939V170.408C162.939 170.952 162.779 171.384 162.459 171.704C162.139 172.035 161.712 172.2 161.179 172.2H156.187ZM169.181 169V157.8H173.789C174.493 157.8 175.112 157.944 175.645 158.232C176.189 158.509 176.61 158.904 176.909 159.416C177.218 159.928 177.373 160.536 177.373 161.24V161.464C177.373 162.157 177.213 162.765 176.893 163.288C176.584 163.8 176.157 164.2 175.613 164.488C175.08 164.765 174.472 164.904 173.789 164.904H171.293V169H169.181ZM171.293 162.984H173.581C174.082 162.984 174.488 162.845 174.797 162.568C175.106 162.291 175.261 161.912 175.261 161.432V161.272C175.261 160.792 175.106 160.413 174.797 160.136C174.488 159.859 174.082 159.72 173.581 159.72H171.293V162.984ZM181.209 169.224C180.644 169.224 180.137 169.128 179.689 168.936C179.241 168.733 178.884 168.445 178.617 168.072C178.361 167.688 178.233 167.224 178.233 166.68C178.233 166.136 178.361 165.683 178.617 165.32C178.884 164.947 179.246 164.669 179.705 164.488C180.174 164.296 180.708 164.2 181.305 164.2H183.481V163.752C183.481 163.379 183.364 163.075 183.129 162.84C182.894 162.595 182.521 162.472 182.009 162.472C181.508 162.472 181.134 162.589 180.889 162.824C180.644 163.048 180.484 163.341 180.409 163.704L178.553 163.08C178.681 162.675 178.884 162.307 179.161 161.976C179.449 161.635 179.828 161.363 180.297 161.16C180.777 160.947 181.358 160.84 182.041 160.84C183.086 160.84 183.913 161.101 184.521 161.624C185.129 162.147 185.433 162.904 185.433 163.896V166.856C185.433 167.176 185.582 167.336 185.881 167.336H186.521V169H185.177C184.782 169 184.457 168.904 184.201 168.712C183.945 168.52 183.817 168.264 183.817 167.944V167.928H183.513C183.47 168.056 183.374 168.227 183.225 168.44C183.076 168.643 182.841 168.824 182.521 168.984C182.201 169.144 181.764 169.224 181.209 169.224ZM181.561 167.592C182.126 167.592 182.585 167.437 182.937 167.128C183.3 166.808 183.481 166.387 183.481 165.864V165.704H181.449C181.076 165.704 180.782 165.784 180.569 165.944C180.356 166.104 180.249 166.328 180.249 166.616C180.249 166.904 180.361 167.139 180.585 167.32C180.809 167.501 181.134 167.592 181.561 167.592ZM187.995 169V161.064H189.979V161.96H190.267C190.384 161.64 190.576 161.405 190.843 161.256C191.12 161.107 191.44 161.032 191.803 161.032H192.763V162.824H191.771C191.259 162.824 190.838 162.963 190.507 163.24C190.176 163.507 190.011 163.923 190.011 164.488V169H187.995ZM196.615 169.224C196.05 169.224 195.543 169.128 195.095 168.936C194.647 168.733 194.29 168.445 194.023 168.072C193.767 167.688 193.639 167.224 193.639 166.68C193.639 166.136 193.767 165.683 194.023 165.32C194.29 164.947 194.653 164.669 195.111 164.488C195.581 164.296 196.114 164.2 196.711 164.2H198.887V163.752C198.887 163.379 198.77 163.075 198.535 162.84C198.301 162.595 197.927 162.472 197.415 162.472C196.914 162.472 196.541 162.589 196.295 162.824C196.05 163.048 195.89 163.341 195.815 163.704L193.959 163.08C194.087 162.675 194.29 162.307 194.567 161.976C194.855 161.635 195.234 161.363 195.703 161.16C196.183 160.947 196.765 160.84 197.447 160.84C198.493 160.84 199.319 161.101 199.927 161.624C200.535 162.147 200.839 162.904 200.839 163.896V166.856C200.839 167.176 200.989 167.336 201.287 167.336H201.927V169H200.583C200.189 169 199.863 168.904 199.607 168.712C199.351 168.52 199.223 168.264 199.223 167.944V167.928H198.919C198.877 168.056 198.781 168.227 198.631 168.44C198.482 168.643 198.247 168.824 197.927 168.984C197.607 169.144 197.17 169.224 196.615 169.224ZM196.967 167.592C197.533 167.592 197.991 167.437 198.343 167.128C198.706 166.808 198.887 166.387 198.887 165.864V165.704H196.855C196.482 165.704 196.189 165.784 195.975 165.944C195.762 166.104 195.655 166.328 195.655 166.616C195.655 166.904 195.767 167.139 195.991 167.32C196.215 167.501 196.541 167.592 196.967 167.592ZM206.445 169.224C205.816 169.224 205.224 169.069 204.669 168.76C204.125 168.44 203.688 167.976 203.357 167.368C203.026 166.76 202.861 166.024 202.861 165.16V164.904C202.861 164.04 203.026 163.304 203.357 162.696C203.688 162.088 204.125 161.629 204.669 161.32C205.213 161 205.805 160.84 206.445 160.84C206.925 160.84 207.325 160.899 207.645 161.016C207.976 161.123 208.242 161.261 208.445 161.432C208.648 161.603 208.802 161.784 208.909 161.976H209.197V157.8H211.213V169H209.229V168.04H208.941C208.76 168.339 208.477 168.611 208.093 168.856C207.72 169.101 207.17 169.224 206.445 169.224ZM207.053 167.464C207.672 167.464 208.189 167.267 208.605 166.872C209.021 166.467 209.229 165.88 209.229 165.112V164.952C209.229 164.184 209.021 163.603 208.605 163.208C208.2 162.803 207.682 162.6 207.053 162.6C206.434 162.6 205.917 162.803 205.501 163.208C205.085 163.603 204.877 164.184 204.877 164.952V165.112C204.877 165.88 205.085 166.467 205.501 166.872C205.917 167.267 206.434 167.464 207.053 167.464ZM217.064 169.224C216.275 169.224 215.576 169.059 214.968 168.728C214.371 168.387 213.901 167.912 213.56 167.304C213.229 166.685 213.064 165.96 213.064 165.128V164.936C213.064 164.104 213.229 163.384 213.56 162.776C213.891 162.157 214.355 161.683 214.952 161.352C215.549 161.011 216.243 160.84 217.032 160.84C217.811 160.84 218.488 161.016 219.064 161.368C219.64 161.709 220.088 162.189 220.408 162.808C220.728 163.416 220.888 164.125 220.888 164.936V165.624H215.112C215.133 166.168 215.336 166.611 215.72 166.952C216.104 167.293 216.573 167.464 217.128 167.464C217.693 167.464 218.109 167.341 218.376 167.096C218.643 166.851 218.845 166.579 218.984 166.28L220.632 167.144C220.483 167.421 220.264 167.725 219.976 168.056C219.699 168.376 219.325 168.653 218.856 168.888C218.387 169.112 217.789 169.224 217.064 169.224ZM215.128 164.12H218.84C218.797 163.661 218.611 163.293 218.28 163.016C217.96 162.739 217.539 162.6 217.016 162.6C216.472 162.6 216.04 162.739 215.72 163.016C215.4 163.293 215.203 163.661 215.128 164.12ZM222.299 169V167.144H223.771V159.656H222.299V157.8H226.907C228.411 157.8 229.552 158.184 230.331 158.952C231.12 159.709 231.515 160.84 231.515 162.344V164.456C231.515 165.96 231.12 167.096 230.331 167.864C229.552 168.621 228.411 169 226.907 169H222.299ZM225.883 167.08H226.939C227.792 167.08 228.416 166.856 228.811 166.408C229.205 165.96 229.403 165.331 229.403 164.52V162.28C229.403 161.459 229.205 160.829 228.811 160.392C228.416 159.944 227.792 159.72 226.939 159.72H225.883V167.08ZM232.595 169V167.144H234.067V159.656H232.595V157.8H238.355C239.038 157.8 239.63 157.917 240.131 158.152C240.643 158.376 241.038 158.701 241.315 159.128C241.603 159.544 241.747 160.045 241.747 160.632V160.792C241.747 161.304 241.651 161.725 241.459 162.056C241.267 162.376 241.038 162.627 240.771 162.808C240.515 162.979 240.27 163.101 240.035 163.176V163.464C240.27 163.528 240.526 163.651 240.803 163.832C241.081 164.003 241.315 164.253 241.507 164.584C241.71 164.915 241.811 165.347 241.811 165.88V166.04C241.811 166.659 241.667 167.192 241.379 167.64C241.091 168.077 240.691 168.413 240.179 168.648C239.678 168.883 239.091 169 238.419 169H232.595ZM236.179 167.08H238.163C238.622 167.08 238.99 166.968 239.267 166.744C239.555 166.52 239.699 166.2 239.699 165.784V165.624C239.699 165.208 239.561 164.888 239.283 164.664C239.006 164.44 238.633 164.328 238.163 164.328H236.179V167.08ZM236.179 162.408H238.131C238.569 162.408 238.926 162.296 239.203 162.072C239.491 161.848 239.635 161.539 239.635 161.144V160.984C239.635 160.579 239.497 160.269 239.219 160.056C238.942 159.832 238.579 159.72 238.131 159.72H236.179V162.408Z" fill="#34D399" fill-opacity="0.7"/>
</svg>
