<svg width="1600" height="400" viewBox="0 0 1600 400" fill="none" xmlns="http://www.w3.org/2000/svg">
<rect width="1600" height="400" fill="#F1F5F9"/>
<g clip-path="url(#clip0_169_2)">
<mask id="mask0_169_2" style="mask-type:alpha" maskUnits="userSpaceOnUse" x="550" y="151" width="500" height="99">
<path d="M1050 151H550V249.473H1050V151Z" fill="#D9D9D9"/>
</mask>
<g mask="url(#mask0_169_2)">
<path d="M691.03 187.664C696.427 187.664 701.023 189.721 704.817 193.836C708.664 197.897 710.588 202.893 710.588 208.824C710.588 214.756 708.664 219.779 704.817 223.893C701.023 227.954 696.427 229.985 691.03 229.985C685.42 229.985 681.092 228.034 678.046 224.133V244.893H667.706V188.786H678.046V193.515C681.092 189.614 685.42 187.664 691.03 187.664ZM681.172 217C683.256 219.084 685.901 220.126 689.107 220.126C692.313 220.126 694.958 219.084 697.042 217C699.179 214.862 700.248 212.137 700.248 208.824C700.248 205.511 699.179 202.813 697.042 200.729C694.958 198.591 692.313 197.523 689.107 197.523C685.901 197.523 683.256 198.591 681.172 200.729C679.088 202.813 678.046 205.511 678.046 208.824C678.046 212.137 679.088 214.862 681.172 217ZM748.579 188.786H758.678V226.939C758.678 233.137 756.621 237.866 752.506 241.126C748.445 244.385 743.529 246.015 737.758 246.015C733.43 246.015 729.609 245.187 726.296 243.53C723.037 241.874 720.525 239.443 718.762 236.237L727.579 231.187C729.609 234.927 733.109 236.798 738.079 236.798C741.338 236.798 743.903 235.943 745.773 234.233C747.643 232.523 748.579 230.091 748.579 226.939V222.611C745.533 226.672 741.258 228.702 735.754 228.702C730.09 228.702 725.334 226.725 721.487 222.771C717.693 218.763 715.796 213.901 715.796 208.183C715.796 202.519 717.72 197.683 721.567 193.675C725.414 189.668 730.143 187.664 735.754 187.664C741.258 187.664 745.533 189.695 748.579 193.756V188.786ZM729.262 216.118C731.399 218.149 734.098 219.164 737.357 219.164C740.617 219.164 743.288 218.149 745.372 216.118C747.51 214.034 748.579 211.389 748.579 208.183C748.579 205.03 747.51 202.439 745.372 200.408C743.288 198.324 740.617 197.282 737.357 197.282C734.098 197.282 731.399 198.324 729.262 200.408C727.178 202.439 726.136 205.03 726.136 208.183C726.136 211.389 727.178 214.034 729.262 216.118ZM765.969 242.569V232.63H802.439V242.569H765.969ZM816.729 200.168C816.729 201.237 817.424 202.118 818.813 202.813C820.256 203.454 821.992 204.042 824.023 204.576C826.053 205.057 828.084 205.698 830.114 206.5C832.145 207.248 833.855 208.53 835.244 210.347C836.687 212.164 837.408 214.435 837.408 217.16C837.408 221.275 835.859 224.454 832.759 226.698C829.714 228.889 825.893 229.985 821.298 229.985C813.069 229.985 807.458 226.805 804.466 220.446L813.443 215.397C814.618 218.87 817.237 220.607 821.298 220.607C824.985 220.607 826.828 219.458 826.828 217.16C826.828 216.091 826.107 215.237 824.664 214.595C823.275 213.901 821.565 213.286 819.534 212.752C817.504 212.217 815.473 211.55 813.443 210.748C811.412 209.946 809.676 208.691 808.233 206.981C806.843 205.217 806.149 203.027 806.149 200.408C806.149 196.454 807.592 193.355 810.477 191.111C813.416 188.813 817.05 187.664 821.378 187.664C824.637 187.664 827.603 188.412 830.275 189.908C832.947 191.351 835.057 193.435 836.607 196.16L827.79 200.969C826.508 198.244 824.37 196.882 821.378 196.882C820.042 196.882 818.92 197.175 818.011 197.763C817.156 198.351 816.729 199.153 816.729 200.168ZM852.247 213.072C853.636 218.095 857.403 220.607 863.548 220.607C867.502 220.607 870.495 219.271 872.525 216.599L880.861 221.408C876.907 227.126 871.082 229.985 863.388 229.985C856.762 229.985 851.445 227.981 847.437 223.973C843.43 219.966 841.426 214.916 841.426 208.824C841.426 202.786 843.403 197.763 847.357 193.756C851.311 189.695 856.388 187.664 862.586 187.664C868.464 187.664 873.3 189.695 877.094 193.756C880.941 197.817 882.865 202.84 882.865 208.824C882.865 210.16 882.731 211.576 882.464 213.072H852.247ZM852.086 205.057H872.525C871.937 202.332 870.708 200.301 868.838 198.966C867.021 197.63 864.937 196.962 862.586 196.962C859.808 196.962 857.51 197.683 855.693 199.126C853.876 200.515 852.674 202.492 852.086 205.057ZM920.227 188.786H930.567V228.862H920.227V224.133C917.128 228.034 912.773 229.985 907.163 229.985C901.819 229.985 897.224 227.954 893.376 223.893C889.582 219.779 887.685 214.756 887.685 208.824C887.685 202.893 889.582 197.897 893.376 193.836C897.224 189.721 901.819 187.664 907.163 187.664C912.773 187.664 917.128 189.614 920.227 193.515V188.786ZM901.151 217C903.235 219.084 905.88 220.126 909.086 220.126C912.292 220.126 914.937 219.084 917.021 217C919.159 214.862 920.227 212.137 920.227 208.824C920.227 205.511 919.159 202.813 917.021 200.729C914.937 198.591 912.292 197.523 909.086 197.523C905.88 197.523 903.235 198.591 901.151 200.729C899.067 202.813 898.025 205.511 898.025 208.824C898.025 212.137 899.067 214.862 901.151 217ZM950.283 195.679C951.245 193.114 952.821 191.191 955.012 189.908C957.256 188.626 959.741 187.985 962.466 187.985V199.527C959.314 199.153 956.482 199.794 953.97 201.45C951.512 203.107 950.283 205.859 950.283 209.706V228.862H939.943V188.786H950.283V195.679ZM986.102 229.985C980.064 229.985 975.014 227.954 970.953 223.893C966.946 219.832 964.942 214.809 964.942 208.824C964.942 202.84 966.946 197.817 970.953 193.756C975.014 189.695 980.064 187.664 986.102 187.664C990.003 187.664 993.556 188.599 996.763 190.469C999.969 192.34 1002.4 194.851 1004.06 198.004L995.159 203.214C994.358 201.557 993.129 200.248 991.472 199.286C989.869 198.324 988.053 197.843 986.022 197.843C982.923 197.843 980.358 198.885 978.327 200.969C976.297 203 975.282 205.618 975.282 208.824C975.282 211.977 976.297 214.595 978.327 216.679C980.358 218.71 982.923 219.725 986.022 219.725C988.106 219.725 989.95 219.271 991.553 218.362C993.209 217.401 994.438 216.091 995.24 214.435L1004.22 219.565C1002.45 222.717 999.969 225.256 996.763 227.179C993.556 229.05 990.003 229.985 986.102 229.985ZM1031.97 187.664C1036.35 187.664 1039.96 189.133 1042.79 192.072C1045.67 195.011 1047.12 199.072 1047.12 204.256V228.862H1036.78V205.538C1036.78 202.866 1036.06 200.836 1034.61 199.446C1033.17 198.004 1031.25 197.282 1028.84 197.282C1026.17 197.282 1024.03 198.111 1022.43 199.767C1020.83 201.424 1020.03 203.908 1020.03 207.221V228.862H1009.69V172.756H1020.03V193.275C1022.54 189.534 1026.52 187.664 1031.97 187.664Z" fill="#1E1B4B"/>
<path fill-rule="evenodd" clip-rule="evenodd" d="M602.831 172.374H587.769V229.101H602.831V172.374Z" fill="#4F46E5"/>
<path fill-rule="evenodd" clip-rule="evenodd" d="M585.474 172.374H570.412V229.101H585.474V172.374Z" fill="#4F46E5"/>
<path fill-rule="evenodd" clip-rule="evenodd" d="M568.115 172.374H553.053V229.101H568.115V172.374Z" fill="#4F46E5"/>
<path fill-rule="evenodd" clip-rule="evenodd" d="M605.127 172.379V209.105C605.127 214.422 607.238 219.475 610.995 223.234C614.753 226.991 619.807 229.102 625.124 229.102H633.929V214.04H625.124C623.813 214.04 622.57 213.509 621.645 212.584C620.72 211.659 620.189 210.416 620.189 209.105V187.796C620.189 179.435 613.444 172.571 605.127 172.38V172.379Z" fill="#4F46E5"/>
</g>
</g>
<defs>
<clipPath id="clip0_169_2">
<rect width="500" height="98.4733" fill="white" transform="translate(550 151)"/>
</clipPath>
</defs>
</svg>
