<svg width="800" height="400" viewBox="0 0 800 400" fill="none" xmlns="http://www.w3.org/2000/svg">
<mask id="mask0_75_15" style="mask-type:alpha" maskUnits="userSpaceOnUse" x="243" y="161" width="38" height="54">
<path d="M243.227 161.094H280.194V214.828H254.387L243.227 161.094Z" fill="#D9D9D9"/>
</mask>
<g mask="url(#mask0_75_15)">
<path d="M235.987 209.706C235.856 210.012 235.733 210.303 235.618 210.578H233.001C233.34 208.088 233.804 204.842 234.363 201.368C235.607 193.638 237.223 185.426 238.81 181.551C240.486 177.459 242.817 173.447 245.577 170.531C248.345 167.606 251.176 166.146 253.974 166.146C256.907 166.146 259.53 167.437 262.007 170.071C264.549 172.773 266.757 176.724 268.59 181.472C270.355 186.042 272.103 194.365 273.434 201.885C274.016 205.17 274.504 208.212 274.866 210.578H272.33C272.215 210.303 272.092 210.012 271.96 209.706C271.043 207.568 269.731 204.69 268.168 201.786C266.625 198.92 264.743 195.849 262.655 193.437C260.783 191.275 257.804 188.523 253.974 188.523C250.144 188.523 247.165 191.275 245.293 193.437C243.204 195.849 241.322 198.92 239.78 201.786C238.217 204.69 236.905 207.568 235.987 209.706Z" stroke="#34D399" stroke-width="8.5"/>
</g>
<mask id="mask1_75_15" style="mask-type:alpha" maskUnits="userSpaceOnUse" x="230" y="152" width="31" height="63">
<rect x="230" y="152" width="30.174" height="62.8281" fill="#D9D9D9"/>
</mask>
<g mask="url(#mask1_75_15)">
<path d="M209.758 209.525C209.565 209.899 209.386 210.251 209.223 210.578H204.655C204.66 210.543 204.665 210.507 204.67 210.471C205.072 207.477 205.651 203.384 206.36 198.976C207.812 189.956 209.712 180.268 211.604 175.647C213.342 171.404 215.615 169.365 218.264 168.216C221.174 166.953 224.936 166.584 230 166.584C235.391 166.584 238.756 166.644 241.408 167.725C243.613 168.624 245.789 170.463 247.761 175.568C249.853 180.986 251.907 190.786 253.462 199.569C254.213 203.812 254.83 207.709 255.264 210.578H250.777C250.614 210.251 250.435 209.899 250.242 209.525C249.166 207.433 247.625 204.616 245.791 201.776C243.977 198.967 241.773 195.972 239.341 193.631C237.05 191.426 233.826 189.084 230 189.084C226.174 189.084 222.95 191.426 220.659 193.631C218.227 195.972 216.023 198.967 214.209 201.776C212.375 204.616 210.834 207.433 209.758 209.525Z" stroke="#34D399" stroke-width="8.5"/>
<rect x="230" y="163.574" width="7.44017" height="28.934" fill="#34D399"/>
</g>
<mask id="mask2_75_15" style="mask-type:alpha" maskUnits="userSpaceOnUse" x="257" y="161" width="63" height="55">
<path d="M257.694 162.334L320 161.094V215.655H288.578L273.814 194.161L264.721 171.38L257.694 162.334Z" fill="#D9D9D9"/>
</mask>
<g mask="url(#mask2_75_15)">
<path d="M251.598 211.405C251.938 208.866 252.407 205.535 252.973 201.968C254.219 194.122 255.839 185.77 257.433 181.823C259.115 177.659 261.455 173.576 264.224 170.61C267.004 167.631 269.836 166.158 272.618 166.158C275.536 166.158 278.159 167.46 280.648 170.143C283.199 172.893 285.415 176.914 287.254 181.743C288.692 185.518 291.673 188.16 294.712 189.995C297.55 191.708 300.778 192.927 303.774 193.799L299.619 195.848C299.161 195.69 298.622 195.505 298.015 195.3C295.995 194.617 293.219 193.703 290.207 192.788C287.203 191.876 283.92 190.948 280.896 190.244C277.966 189.562 274.95 189.01 272.618 189.01C270.603 189.01 268.868 189.786 267.517 190.686C266.16 191.59 264.956 192.775 263.91 193.999C261.822 196.444 259.94 199.558 258.397 202.465C256.833 205.41 255.52 208.33 254.602 210.5C254.468 210.817 254.341 211.12 254.224 211.405H251.598Z" stroke="#34D399" stroke-width="8.5"/>
</g>
<path d="M342.5 211V176.2H348.7V179.2H349.6C350.167 178.233 351.05 177.383 352.25 176.65C353.45 175.883 355.167 175.5 357.4 175.5C359.4 175.5 361.25 176 362.95 177C364.65 177.967 366.017 179.4 367.05 181.3C368.083 183.2 368.6 185.5 368.6 188.2V189C368.6 191.7 368.083 194 367.05 195.9C366.017 197.8 364.65 199.25 362.95 200.25C361.25 201.217 359.4 201.7 357.4 201.7C355.9 201.7 354.633 201.517 353.6 201.15C352.6 200.817 351.783 200.383 351.15 199.85C350.55 199.283 350.067 198.717 349.7 198.15H348.8V211H342.5ZM355.5 196.2C357.467 196.2 359.083 195.583 360.35 194.35C361.65 193.083 362.3 191.25 362.3 188.85V188.35C362.3 185.95 361.65 184.133 360.35 182.9C359.05 181.633 357.433 181 355.5 181C353.567 181 351.95 181.633 350.65 182.9C349.35 184.133 348.7 185.95 348.7 188.35V188.85C348.7 191.25 349.35 193.083 350.65 194.35C351.95 195.583 353.567 196.2 355.5 196.2ZM373.185 188.7V187.9C373.185 185.3 373.701 183.083 374.735 181.25C375.768 179.383 377.135 177.967 378.835 177C380.568 176 382.451 175.5 384.485 175.5C386.751 175.5 388.468 175.9 389.635 176.7C390.801 177.5 391.651 178.333 392.185 179.2H393.085V176.2H399.285V205.4C399.285 207.1 398.785 208.45 397.785 209.45C396.785 210.483 395.451 211 393.785 211H377.185V205.5H391.585C392.518 205.5 392.985 205 392.985 204V197.55H392.085C391.751 198.083 391.285 198.633 390.685 199.2C390.085 199.733 389.285 200.183 388.285 200.55C387.285 200.917 386.018 201.1 384.485 201.1C382.451 201.1 380.568 200.617 378.835 199.65C377.135 198.65 375.768 197.233 374.735 195.4C373.701 193.533 373.185 191.3 373.185 188.7ZM386.285 195.6C388.218 195.6 389.835 194.983 391.135 193.75C392.435 192.517 393.085 190.783 393.085 188.55V188.05C393.085 185.783 392.435 184.05 391.135 182.85C389.868 181.617 388.251 181 386.285 181C384.351 181 382.735 181.617 381.435 182.85C380.135 184.05 379.485 185.783 379.485 188.05V188.55C379.485 190.783 380.135 192.517 381.435 193.75C382.735 194.983 384.351 195.6 386.285 195.6ZM406.02 209.1V203.4H430.52V209.1H406.02ZM447.575 201.7C444.342 201.7 441.692 201 439.625 199.6C437.559 198.2 436.309 196.2 435.875 193.6L441.675 192.1C441.909 193.267 442.292 194.183 442.825 194.85C443.392 195.517 444.075 196 444.875 196.3C445.709 196.567 446.609 196.7 447.575 196.7C449.042 196.7 450.125 196.45 450.825 195.95C451.525 195.417 451.875 194.767 451.875 194C451.875 193.233 451.542 192.65 450.875 192.25C450.209 191.817 449.142 191.467 447.675 191.2L446.275 190.95C444.542 190.617 442.959 190.167 441.525 189.6C440.092 189 438.942 188.183 438.075 187.15C437.209 186.117 436.775 184.783 436.775 183.15C436.775 180.683 437.675 178.8 439.475 177.5C441.275 176.167 443.642 175.5 446.575 175.5C449.342 175.5 451.642 176.117 453.475 177.35C455.309 178.583 456.509 180.2 457.075 182.2L451.225 184C450.959 182.733 450.409 181.833 449.575 181.3C448.775 180.767 447.775 180.5 446.575 180.5C445.375 180.5 444.459 180.717 443.825 181.15C443.192 181.55 442.875 182.117 442.875 182.85C442.875 183.65 443.209 184.25 443.875 184.65C444.542 185.017 445.442 185.3 446.575 185.5L447.975 185.75C449.842 186.083 451.525 186.533 453.025 187.1C454.559 187.633 455.759 188.417 456.625 189.45C457.525 190.45 457.975 191.817 457.975 193.55C457.975 196.15 457.025 198.167 455.125 199.6C453.259 201 450.742 201.7 447.575 201.7ZM474.796 201.7C472.329 201.7 470.146 201.183 468.246 200.15C466.379 199.083 464.913 197.6 463.846 195.7C462.813 193.767 462.296 191.5 462.296 188.9V188.3C462.296 185.7 462.813 183.45 463.846 181.55C464.879 179.617 466.329 178.133 468.196 177.1C470.063 176.033 472.229 175.5 474.696 175.5C477.129 175.5 479.246 176.05 481.046 177.15C482.846 178.217 484.246 179.717 485.246 181.65C486.246 183.55 486.746 185.767 486.746 188.3V190.45H468.696C468.763 192.15 469.396 193.533 470.596 194.6C471.796 195.667 473.263 196.2 474.996 196.2C476.763 196.2 478.063 195.817 478.896 195.05C479.729 194.283 480.363 193.433 480.796 192.5L485.946 195.2C485.479 196.067 484.796 197.017 483.896 198.05C483.029 199.05 481.863 199.917 480.396 200.65C478.929 201.35 477.063 201.7 474.796 201.7ZM468.746 185.75H480.346C480.213 184.317 479.629 183.167 478.596 182.3C477.596 181.433 476.279 181 474.646 181C472.946 181 471.596 181.433 470.596 182.3C469.596 183.167 468.979 184.317 468.746 185.75ZM500.054 201.7C498.287 201.7 496.704 201.4 495.304 200.8C493.904 200.167 492.787 199.267 491.954 198.1C491.154 196.9 490.754 195.45 490.754 193.75C490.754 192.05 491.154 190.633 491.954 189.5C492.787 188.333 493.92 187.467 495.354 186.9C496.82 186.3 498.487 186 500.354 186H507.154V184.6C507.154 183.433 506.787 182.483 506.054 181.75C505.32 180.983 504.154 180.6 502.554 180.6C500.987 180.6 499.82 180.967 499.054 181.7C498.287 182.4 497.787 183.317 497.554 184.45L491.754 182.5C492.154 181.233 492.787 180.083 493.654 179.05C494.554 177.983 495.737 177.133 497.204 176.5C498.704 175.833 500.52 175.5 502.654 175.5C505.92 175.5 508.504 176.317 510.404 177.95C512.304 179.583 513.254 181.95 513.254 185.05V194.3C513.254 195.3 513.72 195.8 514.654 195.8H516.654V201H512.454C511.22 201 510.204 200.7 509.404 200.1C508.604 199.5 508.204 198.7 508.204 197.7V197.65H507.254C507.12 198.05 506.82 198.583 506.354 199.25C505.887 199.883 505.154 200.45 504.154 200.95C503.154 201.45 501.787 201.7 500.054 201.7ZM501.154 196.6C502.92 196.6 504.354 196.117 505.454 195.15C506.587 194.15 507.154 192.833 507.154 191.2V190.7H500.804C499.637 190.7 498.72 190.95 498.054 191.45C497.387 191.95 497.054 192.65 497.054 193.55C497.054 194.45 497.404 195.183 498.104 195.75C498.804 196.317 499.82 196.6 501.154 196.6ZM521.26 201V176.2H527.46V179H528.36C528.726 178 529.326 177.267 530.16 176.8C531.026 176.333 532.026 176.1 533.16 176.1H536.16V181.7H533.06C531.46 181.7 530.143 182.133 529.11 183C528.076 183.833 527.56 185.133 527.56 186.9V201H521.26ZM551.855 201.7C549.455 201.7 547.272 201.2 545.305 200.2C543.372 199.2 541.838 197.75 540.705 195.85C539.572 193.95 539.005 191.65 539.005 188.95V188.25C539.005 185.55 539.572 183.25 540.705 181.35C541.838 179.45 543.372 178 545.305 177C547.272 176 549.455 175.5 551.855 175.5C554.222 175.5 556.255 175.917 557.955 176.75C559.655 177.583 561.022 178.733 562.055 180.2C563.122 181.633 563.822 183.267 564.155 185.1L558.055 186.4C557.922 185.4 557.622 184.5 557.155 183.7C556.688 182.9 556.022 182.267 555.155 181.8C554.322 181.333 553.272 181.1 552.005 181.1C550.738 181.1 549.588 181.383 548.555 181.95C547.555 182.483 546.755 183.3 546.155 184.4C545.588 185.467 545.305 186.783 545.305 188.35V188.85C545.305 190.417 545.588 191.75 546.155 192.85C546.755 193.917 547.555 194.733 548.555 195.3C549.588 195.833 550.738 196.1 552.005 196.1C553.905 196.1 555.338 195.617 556.305 194.65C557.305 193.65 557.938 192.35 558.205 190.75L564.305 192.2C563.872 193.967 563.122 195.583 562.055 197.05C561.022 198.483 559.655 199.617 557.955 200.45C556.255 201.283 554.222 201.7 551.855 201.7ZM569.502 201V166H575.802V179.25H576.702C576.969 178.717 577.385 178.183 577.952 177.65C578.519 177.117 579.269 176.683 580.202 176.35C581.169 175.983 582.385 175.8 583.852 175.8C585.785 175.8 587.469 176.25 588.902 177.15C590.369 178.017 591.502 179.233 592.302 180.8C593.102 182.333 593.502 184.133 593.502 186.2V201H587.202V186.7C587.202 184.833 586.735 183.433 585.802 182.5C584.902 181.567 583.602 181.1 581.902 181.1C579.969 181.1 578.469 181.75 577.402 183.05C576.335 184.317 575.802 186.1 575.802 188.4V201H569.502Z" fill="#34D399"/>
<path d="M344.888 244.224C344.173 244.224 343.624 244.101 343.24 243.856C342.856 243.611 342.573 243.339 342.392 243.04H342.104V244H340.12V232.8H342.136V236.976H342.424C342.541 236.784 342.696 236.603 342.888 236.432C343.091 236.261 343.352 236.123 343.672 236.016C344.003 235.899 344.408 235.84 344.888 235.84C345.528 235.84 346.12 236 346.664 236.32C347.208 236.629 347.645 237.088 347.976 237.696C348.307 238.304 348.472 239.04 348.472 239.904V240.16C348.472 241.024 348.307 241.76 347.976 242.368C347.645 242.976 347.208 243.44 346.664 243.76C346.12 244.069 345.528 244.224 344.888 244.224ZM344.28 242.464C344.899 242.464 345.416 242.267 345.832 241.872C346.248 241.467 346.456 240.88 346.456 240.112V239.952C346.456 239.184 346.248 238.603 345.832 238.208C345.427 237.803 344.909 237.6 344.28 237.6C343.661 237.6 343.144 237.803 342.728 238.208C342.312 238.603 342.104 239.184 342.104 239.952V240.112C342.104 240.88 342.312 241.467 342.728 241.872C343.144 242.267 343.661 242.464 344.28 242.464ZM351.187 247.2V245.44H355.507C355.806 245.44 355.955 245.28 355.955 244.96V242.96H355.667C355.582 243.141 355.448 243.323 355.267 243.504C355.086 243.685 354.84 243.835 354.531 243.952C354.222 244.069 353.827 244.128 353.347 244.128C352.728 244.128 352.184 243.989 351.715 243.712C351.256 243.424 350.899 243.029 350.643 242.528C350.387 242.027 350.259 241.451 350.259 240.8V236.064H352.275V240.64C352.275 241.237 352.419 241.685 352.707 241.984C353.006 242.283 353.427 242.432 353.971 242.432C354.59 242.432 355.07 242.229 355.411 241.824C355.752 241.408 355.923 240.832 355.923 240.096V236.064H357.939V245.408C357.939 245.952 357.779 246.384 357.459 246.704C357.139 247.035 356.712 247.2 356.179 247.2H351.187ZM364.181 244V232.8H368.789C369.493 232.8 370.112 232.944 370.645 233.232C371.189 233.509 371.61 233.904 371.909 234.416C372.218 234.928 372.373 235.536 372.373 236.24V236.464C372.373 237.157 372.213 237.765 371.893 238.288C371.584 238.8 371.157 239.2 370.613 239.488C370.08 239.765 369.472 239.904 368.789 239.904H366.293V244H364.181ZM366.293 237.984H368.581C369.082 237.984 369.488 237.845 369.797 237.568C370.106 237.291 370.261 236.912 370.261 236.432V236.272C370.261 235.792 370.106 235.413 369.797 235.136C369.488 234.859 369.082 234.72 368.581 234.72H366.293V237.984ZM376.209 244.224C375.644 244.224 375.137 244.128 374.689 243.936C374.241 243.733 373.884 243.445 373.617 243.072C373.361 242.688 373.233 242.224 373.233 241.68C373.233 241.136 373.361 240.683 373.617 240.32C373.884 239.947 374.246 239.669 374.705 239.488C375.174 239.296 375.708 239.2 376.305 239.2H378.481V238.752C378.481 238.379 378.364 238.075 378.129 237.84C377.894 237.595 377.521 237.472 377.009 237.472C376.508 237.472 376.134 237.589 375.889 237.824C375.644 238.048 375.484 238.341 375.409 238.704L373.553 238.08C373.681 237.675 373.884 237.307 374.161 236.976C374.449 236.635 374.828 236.363 375.297 236.16C375.777 235.947 376.358 235.84 377.041 235.84C378.086 235.84 378.913 236.101 379.521 236.624C380.129 237.147 380.433 237.904 380.433 238.896V241.856C380.433 242.176 380.582 242.336 380.881 242.336H381.521V244H380.177C379.782 244 379.457 243.904 379.201 243.712C378.945 243.52 378.817 243.264 378.817 242.944V242.928H378.513C378.47 243.056 378.374 243.227 378.225 243.44C378.076 243.643 377.841 243.824 377.521 243.984C377.201 244.144 376.764 244.224 376.209 244.224ZM376.561 242.592C377.126 242.592 377.585 242.437 377.937 242.128C378.3 241.808 378.481 241.387 378.481 240.864V240.704H376.449C376.076 240.704 375.782 240.784 375.569 240.944C375.356 241.104 375.249 241.328 375.249 241.616C375.249 241.904 375.361 242.139 375.585 242.32C375.809 242.501 376.134 242.592 376.561 242.592ZM382.995 244V236.064H384.979V236.96H385.267C385.384 236.64 385.576 236.405 385.843 236.256C386.12 236.107 386.44 236.032 386.803 236.032H387.763V237.824H386.771C386.259 237.824 385.838 237.963 385.507 238.24C385.176 238.507 385.011 238.923 385.011 239.488V244H382.995ZM391.615 244.224C391.05 244.224 390.543 244.128 390.095 243.936C389.647 243.733 389.29 243.445 389.023 243.072C388.767 242.688 388.639 242.224 388.639 241.68C388.639 241.136 388.767 240.683 389.023 240.32C389.29 239.947 389.653 239.669 390.111 239.488C390.581 239.296 391.114 239.2 391.711 239.2H393.887V238.752C393.887 238.379 393.77 238.075 393.535 237.84C393.301 237.595 392.927 237.472 392.415 237.472C391.914 237.472 391.541 237.589 391.295 237.824C391.05 238.048 390.89 238.341 390.815 238.704L388.959 238.08C389.087 237.675 389.29 237.307 389.567 236.976C389.855 236.635 390.234 236.363 390.703 236.16C391.183 235.947 391.765 235.84 392.447 235.84C393.493 235.84 394.319 236.101 394.927 236.624C395.535 237.147 395.839 237.904 395.839 238.896V241.856C395.839 242.176 395.989 242.336 396.287 242.336H396.927V244H395.583C395.189 244 394.863 243.904 394.607 243.712C394.351 243.52 394.223 243.264 394.223 242.944V242.928H393.919C393.877 243.056 393.781 243.227 393.631 243.44C393.482 243.643 393.247 243.824 392.927 243.984C392.607 244.144 392.17 244.224 391.615 244.224ZM391.967 242.592C392.533 242.592 392.991 242.437 393.343 242.128C393.706 241.808 393.887 241.387 393.887 240.864V240.704H391.855C391.482 240.704 391.189 240.784 390.975 240.944C390.762 241.104 390.655 241.328 390.655 241.616C390.655 241.904 390.767 242.139 390.991 242.32C391.215 242.501 391.541 242.592 391.967 242.592ZM401.445 244.224C400.816 244.224 400.224 244.069 399.669 243.76C399.125 243.44 398.688 242.976 398.357 242.368C398.026 241.76 397.861 241.024 397.861 240.16V239.904C397.861 239.04 398.026 238.304 398.357 237.696C398.688 237.088 399.125 236.629 399.669 236.32C400.213 236 400.805 235.84 401.445 235.84C401.925 235.84 402.325 235.899 402.645 236.016C402.976 236.123 403.242 236.261 403.445 236.432C403.648 236.603 403.802 236.784 403.909 236.976H404.197V232.8H406.213V244H404.229V243.04H403.941C403.76 243.339 403.477 243.611 403.093 243.856C402.72 244.101 402.17 244.224 401.445 244.224ZM402.053 242.464C402.672 242.464 403.189 242.267 403.605 241.872C404.021 241.467 404.229 240.88 404.229 240.112V239.952C404.229 239.184 404.021 238.603 403.605 238.208C403.2 237.803 402.682 237.6 402.053 237.6C401.434 237.6 400.917 237.803 400.501 238.208C400.085 238.603 399.877 239.184 399.877 239.952V240.112C399.877 240.88 400.085 241.467 400.501 241.872C400.917 242.267 401.434 242.464 402.053 242.464ZM412.064 244.224C411.275 244.224 410.576 244.059 409.968 243.728C409.371 243.387 408.901 242.912 408.56 242.304C408.229 241.685 408.064 240.96 408.064 240.128V239.936C408.064 239.104 408.229 238.384 408.56 237.776C408.891 237.157 409.355 236.683 409.952 236.352C410.549 236.011 411.243 235.84 412.032 235.84C412.811 235.84 413.488 236.016 414.064 236.368C414.64 236.709 415.088 237.189 415.408 237.808C415.728 238.416 415.888 239.125 415.888 239.936V240.624H410.112C410.133 241.168 410.336 241.611 410.72 241.952C411.104 242.293 411.573 242.464 412.128 242.464C412.693 242.464 413.109 242.341 413.376 242.096C413.643 241.851 413.845 241.579 413.984 241.28L415.632 242.144C415.483 242.421 415.264 242.725 414.976 243.056C414.699 243.376 414.325 243.653 413.856 243.888C413.387 244.112 412.789 244.224 412.064 244.224ZM410.128 239.12H413.84C413.797 238.661 413.611 238.293 413.28 238.016C412.96 237.739 412.539 237.6 412.016 237.6C411.472 237.6 411.04 237.739 410.72 238.016C410.4 238.293 410.203 238.661 410.128 239.12ZM417.299 244V242.144H418.771V234.656H417.299V232.8H421.907C423.411 232.8 424.552 233.184 425.331 233.952C426.12 234.709 426.515 235.84 426.515 237.344V239.456C426.515 240.96 426.12 242.096 425.331 242.864C424.552 243.621 423.411 244 421.907 244H417.299ZM420.883 242.08H421.939C422.792 242.08 423.416 241.856 423.811 241.408C424.205 240.96 424.403 240.331 424.403 239.52V237.28C424.403 236.459 424.205 235.829 423.811 235.392C423.416 234.944 422.792 234.72 421.939 234.72H420.883V242.08ZM427.595 244V242.144H429.067V234.656H427.595V232.8H433.355C434.038 232.8 434.63 232.917 435.131 233.152C435.643 233.376 436.038 233.701 436.315 234.128C436.603 234.544 436.747 235.045 436.747 235.632V235.792C436.747 236.304 436.651 236.725 436.459 237.056C436.267 237.376 436.038 237.627 435.771 237.808C435.515 237.979 435.27 238.101 435.035 238.176V238.464C435.27 238.528 435.526 238.651 435.803 238.832C436.081 239.003 436.315 239.253 436.507 239.584C436.71 239.915 436.811 240.347 436.811 240.88V241.04C436.811 241.659 436.667 242.192 436.379 242.64C436.091 243.077 435.691 243.413 435.179 243.648C434.678 243.883 434.091 244 433.419 244H427.595ZM431.179 242.08H433.163C433.622 242.08 433.99 241.968 434.267 241.744C434.555 241.52 434.699 241.2 434.699 240.784V240.624C434.699 240.208 434.561 239.888 434.283 239.664C434.006 239.44 433.633 239.328 433.163 239.328H431.179V242.08ZM431.179 237.408H433.131C433.569 237.408 433.926 237.296 434.203 237.072C434.491 236.848 434.635 236.539 434.635 236.144V235.984C434.635 235.579 434.497 235.269 434.219 235.056C433.942 234.832 433.579 234.72 433.131 234.72H431.179V237.408Z" fill="#34D399" fill-opacity="0.7"/>
</svg>
