<svg width="500" height="250" viewBox="0 0 500 250" fill="none" xmlns="http://www.w3.org/2000/svg">
<mask id="mask0_83_16" style="mask-type:alpha" maskUnits="userSpaceOnUse" x="94" y="86" width="38" height="54">
<path d="M94.2269 86.0935H131.194V139.828H105.387L94.2269 86.0935Z" fill="#D9D9D9"/>
</mask>
<g mask="url(#mask0_83_16)">
<path d="M86.9873 134.706C86.8562 135.012 86.7329 135.303 86.6176 135.578H84.0014C84.3397 133.088 84.8042 129.842 85.3632 126.368C86.6068 118.638 88.2231 110.426 89.8098 106.551C91.4858 102.459 93.8173 98.4467 96.5766 95.5312C99.3446 92.6064 102.176 91.1455 104.974 91.1455C107.907 91.1455 110.53 92.437 113.007 95.0705C115.549 97.7726 117.757 101.724 119.59 106.472C121.355 111.042 123.103 119.365 124.434 126.885C125.016 130.17 125.504 133.212 125.866 135.578H123.33C123.215 135.303 123.091 135.012 122.96 134.706C122.043 132.568 120.731 129.69 119.168 126.786C117.625 123.92 115.743 120.849 113.655 118.437C111.783 116.275 108.804 113.523 104.974 113.523C101.144 113.523 98.165 116.275 96.2931 118.437C94.2044 120.849 92.3224 123.92 90.7798 126.786C89.217 129.69 87.9045 132.568 86.9873 134.706Z" stroke="#34D399" stroke-width="8.5"/>
</g>
<mask id="mask1_83_16" style="mask-type:alpha" maskUnits="userSpaceOnUse" x="81" y="77" width="31" height="63">
<rect x="81" y="77" width="30.174" height="62.8281" fill="#D9D9D9"/>
</mask>
<g mask="url(#mask1_83_16)">
<path d="M60.7575 134.525C60.5648 134.899 60.3863 135.251 60.2229 135.578H55.6555C55.6602 135.542 55.665 135.507 55.6699 135.471C56.072 132.477 56.6513 128.383 57.3605 123.976C58.8116 114.956 60.7117 105.268 62.6041 100.647C64.3419 96.4041 66.6148 94.3652 69.2641 93.2158C72.174 91.9533 75.9356 91.5835 81 91.5835C86.3905 91.5835 89.7563 91.6441 92.4083 92.725C94.6126 93.6236 96.7894 95.4625 98.7606 100.568C100.853 105.986 102.907 115.786 104.462 124.569C105.213 128.812 105.83 132.709 106.264 135.578H101.777C101.614 135.251 101.435 134.899 101.242 134.525C100.166 132.432 98.6249 129.616 96.7907 126.776C94.9769 123.967 92.7726 120.972 90.3405 118.631C88.05 116.426 84.8256 114.084 81 114.084C77.1744 114.084 73.95 116.426 71.6594 118.631C69.2273 120.972 67.023 123.967 65.2092 126.776C63.375 129.616 61.8344 132.432 60.7575 134.525Z" stroke="#34D399" stroke-width="8.5"/>
<rect x="81" y="88.5735" width="7.44017" height="28.934" fill="#34D399"/>
</g>
<mask id="mask2_83_16" style="mask-type:alpha" maskUnits="userSpaceOnUse" x="108" y="86" width="63" height="55">
<path d="M108.694 87.3335L171 86.0935V140.655H139.578L124.814 119.161L115.721 96.3796L108.694 87.3335Z" fill="#D9D9D9"/>
</mask>
<g mask="url(#mask2_83_16)">
<path d="M105.602 135.5C105.468 135.817 105.341 136.12 105.224 136.405H102.598C102.938 133.866 103.407 130.535 103.973 126.968C105.219 119.122 106.839 110.77 108.433 106.823C110.115 102.659 112.455 98.5764 115.224 95.6102C118.004 92.6315 120.836 91.158 123.618 91.158C126.536 91.158 129.159 92.4599 131.648 95.1426C134.199 97.8931 136.415 101.914 138.254 106.743C139.692 110.518 142.673 113.16 145.712 114.995C148.55 116.708 151.778 117.927 154.774 118.799L150.619 120.848C150.161 120.69 149.622 120.505 149.015 120.3C146.995 119.617 144.219 118.703 141.207 117.788C138.203 116.876 134.92 115.948 131.896 115.244C128.966 114.562 125.95 114.01 123.618 114.01C121.603 114.01 119.868 114.786 118.517 115.686C117.16 116.59 115.956 117.775 114.91 118.999C112.822 121.444 110.94 124.558 109.397 127.465C107.833 130.41 106.52 133.33 105.602 135.5Z" stroke="#34D399" stroke-width="8.5"/>
</g>
<path d="M193.5 136V101.2H199.7V104.2H200.6C201.167 103.233 202.05 102.383 203.25 101.65C204.45 100.883 206.167 100.5 208.4 100.5C210.4 100.5 212.25 101 213.95 102C215.65 102.967 217.017 104.4 218.05 106.3C219.083 108.2 219.6 110.5 219.6 113.2V114C219.6 116.7 219.083 119 218.05 120.9C217.017 122.8 215.65 124.25 213.95 125.25C212.25 126.217 210.4 126.7 208.4 126.7C206.9 126.7 205.633 126.517 204.6 126.15C203.6 125.817 202.783 125.383 202.15 124.85C201.55 124.283 201.067 123.717 200.7 123.15H199.8V136H193.5ZM206.5 121.2C208.467 121.2 210.083 120.583 211.35 119.35C212.65 118.083 213.3 116.25 213.3 113.85V113.35C213.3 110.95 212.65 109.133 211.35 107.9C210.05 106.633 208.433 106 206.5 106C204.567 106 202.95 106.633 201.65 107.9C200.35 109.133 199.7 110.95 199.7 113.35V113.85C199.7 116.25 200.35 118.083 201.65 119.35C202.95 120.583 204.567 121.2 206.5 121.2ZM224.185 113.7V112.9C224.185 110.3 224.701 108.083 225.735 106.25C226.768 104.383 228.135 102.967 229.835 102C231.568 101 233.451 100.5 235.485 100.5C237.751 100.5 239.468 100.9 240.635 101.7C241.801 102.5 242.651 103.333 243.185 104.2H244.085V101.2H250.285V130.4C250.285 132.1 249.785 133.45 248.785 134.45C247.785 135.483 246.451 136 244.785 136H228.185V130.5H242.585C243.518 130.5 243.985 130 243.985 129V122.55H243.085C242.751 123.083 242.285 123.633 241.685 124.2C241.085 124.733 240.285 125.183 239.285 125.55C238.285 125.917 237.018 126.1 235.485 126.1C233.451 126.1 231.568 125.617 229.835 124.65C228.135 123.65 226.768 122.233 225.735 120.4C224.701 118.533 224.185 116.3 224.185 113.7ZM237.285 120.6C239.218 120.6 240.835 119.983 242.135 118.75C243.435 117.517 244.085 115.783 244.085 113.55V113.05C244.085 110.783 243.435 109.05 242.135 107.85C240.868 106.617 239.251 106 237.285 106C235.351 106 233.735 106.617 232.435 107.85C231.135 109.05 230.485 110.783 230.485 113.05V113.55C230.485 115.783 231.135 117.517 232.435 118.75C233.735 119.983 235.351 120.6 237.285 120.6ZM257.02 134.1V128.4H281.52V134.1H257.02ZM303.175 126.7C300.942 126.7 299.225 126.317 298.025 125.55C296.825 124.783 295.942 123.933 295.375 123H294.475V126H288.275V91H294.575V104.05H295.475C295.842 103.45 296.325 102.883 296.925 102.35C297.559 101.817 298.375 101.383 299.375 101.05C300.409 100.683 301.675 100.5 303.175 100.5C305.175 100.5 307.025 101 308.725 102C310.425 102.967 311.792 104.4 312.825 106.3C313.859 108.2 314.375 110.5 314.375 113.2V114C314.375 116.7 313.859 119 312.825 120.9C311.792 122.8 310.425 124.25 308.725 125.25C307.025 126.217 305.175 126.7 303.175 126.7ZM301.275 121.2C303.209 121.2 304.825 120.583 306.125 119.35C307.425 118.083 308.075 116.25 308.075 113.85V113.35C308.075 110.95 307.425 109.133 306.125 107.9C304.859 106.633 303.242 106 301.275 106C299.342 106 297.725 106.633 296.425 107.9C295.125 109.133 294.475 110.95 294.475 113.35V113.85C294.475 116.25 295.125 118.083 296.425 119.35C297.725 120.583 299.342 121.2 301.275 121.2ZM320.16 126V101.2H326.36V103.9H327.26C327.693 103.067 328.41 102.35 329.41 101.75C330.41 101.117 331.727 100.8 333.36 100.8C335.127 100.8 336.543 101.15 337.61 101.85C338.677 102.517 339.493 103.4 340.06 104.5H340.96C341.527 103.433 342.327 102.55 343.36 101.85C344.393 101.15 345.86 100.8 347.76 100.8C349.293 100.8 350.677 101.133 351.91 101.8C353.177 102.433 354.177 103.417 354.91 104.75C355.677 106.05 356.06 107.7 356.06 109.7V126H349.76V110.15C349.76 108.783 349.41 107.767 348.71 107.1C348.01 106.4 347.027 106.05 345.76 106.05C344.327 106.05 343.21 106.517 342.41 107.45C341.643 108.35 341.26 109.65 341.26 111.35V126H334.96V110.15C334.96 108.783 334.61 107.767 333.91 107.1C333.21 106.4 332.227 106.05 330.96 106.05C329.527 106.05 328.41 106.517 327.61 107.45C326.843 108.35 326.46 109.65 326.46 111.35V126H320.16ZM361.436 126V121.8C361.436 119.367 361.836 117.35 362.636 115.75C363.436 114.117 364.586 112.783 366.086 111.75C367.619 110.683 369.486 109.817 371.686 109.15L375.036 108.1C376.269 107.7 377.303 107.217 378.136 106.65C378.969 106.05 379.603 105.333 380.036 104.5C380.503 103.667 380.736 102.717 380.736 101.65V101.45C380.736 99.7833 380.169 98.4667 379.036 97.5C377.903 96.5 376.353 96 374.386 96C372.453 96 370.886 96.5333 369.686 97.6C368.519 98.6333 367.936 100.133 367.936 102.1V103H361.536V102.2C361.536 99.6667 362.103 97.5167 363.236 95.75C364.369 93.9833 365.903 92.6333 367.836 91.7C369.803 90.7667 371.986 90.3 374.386 90.3C376.786 90.3 378.953 90.7667 380.886 91.7C382.819 92.6 384.336 93.8833 385.436 95.55C386.569 97.1833 387.136 99.1167 387.136 101.35V101.85C387.136 104.083 386.669 105.983 385.736 107.55C384.836 109.083 383.603 110.35 382.036 111.35C380.469 112.317 378.686 113.117 376.686 113.75L373.486 114.75C372.053 115.183 370.936 115.667 370.136 116.2C369.336 116.7 368.769 117.267 368.436 117.9C368.136 118.5 367.986 119.233 367.986 120.1V120.3H386.836V126H361.436ZM404.173 126.7C401.44 126.7 399.073 126.217 397.073 125.25C395.107 124.283 393.59 122.917 392.523 121.15C391.457 119.383 390.923 117.333 390.923 115V114.5H397.423V114.95C397.423 116.617 397.973 118.05 399.073 119.25C400.207 120.417 401.873 121 404.073 121C406.273 121 407.957 120.417 409.123 119.25C410.323 118.05 410.923 116.5 410.923 114.6V114.1C410.923 112.233 410.323 110.75 409.123 109.65C407.957 108.55 406.49 108 404.723 108C403.757 108 402.957 108.133 402.323 108.4C401.69 108.667 401.173 109 400.773 109.4C400.373 109.8 400.04 110.2 399.773 110.6H392.023V91H415.923V96.8H398.423V105.35H399.323C399.657 104.917 400.107 104.5 400.673 104.1C401.24 103.7 401.973 103.367 402.873 103.1C403.773 102.833 404.84 102.7 406.073 102.7C408.14 102.7 410.023 103.133 411.723 104C413.423 104.867 414.773 106.15 415.773 107.85C416.807 109.517 417.323 111.583 417.323 114.05V114.65C417.323 117.117 416.79 119.25 415.723 121.05C414.69 122.85 413.19 124.25 411.223 125.25C409.257 126.217 406.907 126.7 404.173 126.7Z" fill="#34D399"/>
<path d="M195.888 169.224C195.173 169.224 194.624 169.101 194.24 168.856C193.856 168.611 193.573 168.339 193.392 168.04H193.104V169H191.12V157.8H193.136V161.976H193.424C193.541 161.784 193.696 161.603 193.888 161.432C194.091 161.261 194.352 161.123 194.672 161.016C195.003 160.899 195.408 160.84 195.888 160.84C196.528 160.84 197.12 161 197.664 161.32C198.208 161.629 198.645 162.088 198.976 162.696C199.307 163.304 199.472 164.04 199.472 164.904V165.16C199.472 166.024 199.307 166.76 198.976 167.368C198.645 167.976 198.208 168.44 197.664 168.76C197.12 169.069 196.528 169.224 195.888 169.224ZM195.28 167.464C195.899 167.464 196.416 167.267 196.832 166.872C197.248 166.467 197.456 165.88 197.456 165.112V164.952C197.456 164.184 197.248 163.603 196.832 163.208C196.427 162.803 195.909 162.6 195.28 162.6C194.661 162.6 194.144 162.803 193.728 163.208C193.312 163.603 193.104 164.184 193.104 164.952V165.112C193.104 165.88 193.312 166.467 193.728 166.872C194.144 167.267 194.661 167.464 195.28 167.464ZM202.187 172.2V170.44H206.507C206.806 170.44 206.955 170.28 206.955 169.96V167.96H206.667C206.582 168.141 206.448 168.323 206.267 168.504C206.086 168.685 205.84 168.835 205.531 168.952C205.222 169.069 204.827 169.128 204.347 169.128C203.728 169.128 203.184 168.989 202.715 168.712C202.256 168.424 201.899 168.029 201.643 167.528C201.387 167.027 201.259 166.451 201.259 165.8V161.064H203.275V165.64C203.275 166.237 203.419 166.685 203.707 166.984C204.006 167.283 204.427 167.432 204.971 167.432C205.59 167.432 206.07 167.229 206.411 166.824C206.752 166.408 206.923 165.832 206.923 165.096V161.064H208.939V170.408C208.939 170.952 208.779 171.384 208.459 171.704C208.139 172.035 207.712 172.2 207.179 172.2H202.187ZM215.181 169V157.8H219.789C220.493 157.8 221.112 157.944 221.645 158.232C222.189 158.509 222.61 158.904 222.909 159.416C223.218 159.928 223.373 160.536 223.373 161.24V161.464C223.373 162.157 223.213 162.765 222.893 163.288C222.584 163.8 222.157 164.2 221.613 164.488C221.08 164.765 220.472 164.904 219.789 164.904H217.293V169H215.181ZM217.293 162.984H219.581C220.082 162.984 220.488 162.845 220.797 162.568C221.106 162.291 221.261 161.912 221.261 161.432V161.272C221.261 160.792 221.106 160.413 220.797 160.136C220.488 159.859 220.082 159.72 219.581 159.72H217.293V162.984ZM227.209 169.224C226.644 169.224 226.137 169.128 225.689 168.936C225.241 168.733 224.884 168.445 224.617 168.072C224.361 167.688 224.233 167.224 224.233 166.68C224.233 166.136 224.361 165.683 224.617 165.32C224.884 164.947 225.246 164.669 225.705 164.488C226.174 164.296 226.708 164.2 227.305 164.2H229.481V163.752C229.481 163.379 229.364 163.075 229.129 162.84C228.894 162.595 228.521 162.472 228.009 162.472C227.508 162.472 227.134 162.589 226.889 162.824C226.644 163.048 226.484 163.341 226.409 163.704L224.553 163.08C224.681 162.675 224.884 162.307 225.161 161.976C225.449 161.635 225.828 161.363 226.297 161.16C226.777 160.947 227.358 160.84 228.041 160.84C229.086 160.84 229.913 161.101 230.521 161.624C231.129 162.147 231.433 162.904 231.433 163.896V166.856C231.433 167.176 231.582 167.336 231.881 167.336H232.521V169H231.177C230.782 169 230.457 168.904 230.201 168.712C229.945 168.52 229.817 168.264 229.817 167.944V167.928H229.513C229.47 168.056 229.374 168.227 229.225 168.44C229.076 168.643 228.841 168.824 228.521 168.984C228.201 169.144 227.764 169.224 227.209 169.224ZM227.561 167.592C228.126 167.592 228.585 167.437 228.937 167.128C229.3 166.808 229.481 166.387 229.481 165.864V165.704H227.449C227.076 165.704 226.782 165.784 226.569 165.944C226.356 166.104 226.249 166.328 226.249 166.616C226.249 166.904 226.361 167.139 226.585 167.32C226.809 167.501 227.134 167.592 227.561 167.592ZM233.995 169V161.064H235.979V161.96H236.267C236.384 161.64 236.576 161.405 236.843 161.256C237.12 161.107 237.44 161.032 237.803 161.032H238.763V162.824H237.771C237.259 162.824 236.838 162.963 236.507 163.24C236.176 163.507 236.011 163.923 236.011 164.488V169H233.995ZM242.615 169.224C242.05 169.224 241.543 169.128 241.095 168.936C240.647 168.733 240.29 168.445 240.023 168.072C239.767 167.688 239.639 167.224 239.639 166.68C239.639 166.136 239.767 165.683 240.023 165.32C240.29 164.947 240.653 164.669 241.111 164.488C241.581 164.296 242.114 164.2 242.711 164.2H244.887V163.752C244.887 163.379 244.77 163.075 244.535 162.84C244.301 162.595 243.927 162.472 243.415 162.472C242.914 162.472 242.541 162.589 242.295 162.824C242.05 163.048 241.89 163.341 241.815 163.704L239.959 163.08C240.087 162.675 240.29 162.307 240.567 161.976C240.855 161.635 241.234 161.363 241.703 161.16C242.183 160.947 242.765 160.84 243.447 160.84C244.493 160.84 245.319 161.101 245.927 161.624C246.535 162.147 246.839 162.904 246.839 163.896V166.856C246.839 167.176 246.989 167.336 247.287 167.336H247.927V169H246.583C246.189 169 245.863 168.904 245.607 168.712C245.351 168.52 245.223 168.264 245.223 167.944V167.928H244.919C244.877 168.056 244.781 168.227 244.631 168.44C244.482 168.643 244.247 168.824 243.927 168.984C243.607 169.144 243.17 169.224 242.615 169.224ZM242.967 167.592C243.533 167.592 243.991 167.437 244.343 167.128C244.706 166.808 244.887 166.387 244.887 165.864V165.704H242.855C242.482 165.704 242.189 165.784 241.975 165.944C241.762 166.104 241.655 166.328 241.655 166.616C241.655 166.904 241.767 167.139 241.991 167.32C242.215 167.501 242.541 167.592 242.967 167.592ZM252.445 169.224C251.816 169.224 251.224 169.069 250.669 168.76C250.125 168.44 249.688 167.976 249.357 167.368C249.026 166.76 248.861 166.024 248.861 165.16V164.904C248.861 164.04 249.026 163.304 249.357 162.696C249.688 162.088 250.125 161.629 250.669 161.32C251.213 161 251.805 160.84 252.445 160.84C252.925 160.84 253.325 160.899 253.645 161.016C253.976 161.123 254.242 161.261 254.445 161.432C254.648 161.603 254.802 161.784 254.909 161.976H255.197V157.8H257.213V169H255.229V168.04H254.941C254.76 168.339 254.477 168.611 254.093 168.856C253.72 169.101 253.17 169.224 252.445 169.224ZM253.053 167.464C253.672 167.464 254.189 167.267 254.605 166.872C255.021 166.467 255.229 165.88 255.229 165.112V164.952C255.229 164.184 255.021 163.603 254.605 163.208C254.2 162.803 253.682 162.6 253.053 162.6C252.434 162.6 251.917 162.803 251.501 163.208C251.085 163.603 250.877 164.184 250.877 164.952V165.112C250.877 165.88 251.085 166.467 251.501 166.872C251.917 167.267 252.434 167.464 253.053 167.464ZM263.064 169.224C262.275 169.224 261.576 169.059 260.968 168.728C260.371 168.387 259.901 167.912 259.56 167.304C259.229 166.685 259.064 165.96 259.064 165.128V164.936C259.064 164.104 259.229 163.384 259.56 162.776C259.891 162.157 260.355 161.683 260.952 161.352C261.549 161.011 262.243 160.84 263.032 160.84C263.811 160.84 264.488 161.016 265.064 161.368C265.64 161.709 266.088 162.189 266.408 162.808C266.728 163.416 266.888 164.125 266.888 164.936V165.624H261.112C261.133 166.168 261.336 166.611 261.72 166.952C262.104 167.293 262.573 167.464 263.128 167.464C263.693 167.464 264.109 167.341 264.376 167.096C264.643 166.851 264.845 166.579 264.984 166.28L266.632 167.144C266.483 167.421 266.264 167.725 265.976 168.056C265.699 168.376 265.325 168.653 264.856 168.888C264.387 169.112 263.789 169.224 263.064 169.224ZM261.128 164.12H264.84C264.797 163.661 264.611 163.293 264.28 163.016C263.96 162.739 263.539 162.6 263.016 162.6C262.472 162.6 262.04 162.739 261.72 163.016C261.4 163.293 261.203 163.661 261.128 164.12ZM268.299 169V167.144H269.771V159.656H268.299V157.8H272.907C274.411 157.8 275.552 158.184 276.331 158.952C277.12 159.709 277.515 160.84 277.515 162.344V164.456C277.515 165.96 277.12 167.096 276.331 167.864C275.552 168.621 274.411 169 272.907 169H268.299ZM271.883 167.08H272.939C273.792 167.08 274.416 166.856 274.811 166.408C275.205 165.96 275.403 165.331 275.403 164.52V162.28C275.403 161.459 275.205 160.829 274.811 160.392C274.416 159.944 273.792 159.72 272.939 159.72H271.883V167.08ZM278.595 169V167.144H280.067V159.656H278.595V157.8H284.355C285.038 157.8 285.63 157.917 286.131 158.152C286.643 158.376 287.038 158.701 287.315 159.128C287.603 159.544 287.747 160.045 287.747 160.632V160.792C287.747 161.304 287.651 161.725 287.459 162.056C287.267 162.376 287.038 162.627 286.771 162.808C286.515 162.979 286.27 163.101 286.035 163.176V163.464C286.27 163.528 286.526 163.651 286.803 163.832C287.081 164.003 287.315 164.253 287.507 164.584C287.71 164.915 287.811 165.347 287.811 165.88V166.04C287.811 166.659 287.667 167.192 287.379 167.64C287.091 168.077 286.691 168.413 286.179 168.648C285.678 168.883 285.091 169 284.419 169H278.595ZM282.179 167.08H284.163C284.622 167.08 284.99 166.968 285.267 166.744C285.555 166.52 285.699 166.2 285.699 165.784V165.624C285.699 165.208 285.561 164.888 285.283 164.664C285.006 164.44 284.633 164.328 284.163 164.328H282.179V167.08ZM282.179 162.408H284.131C284.569 162.408 284.926 162.296 285.203 162.072C285.491 161.848 285.635 161.539 285.635 161.144V160.984C285.635 160.579 285.497 160.269 285.219 160.056C284.942 159.832 284.579 159.72 284.131 159.72H282.179V162.408Z" fill="#34D399" fill-opacity="0.7"/>
</svg>
