<svg width="1600" height="300" viewBox="0 0 1600 300" fill="none" xmlns="http://www.w3.org/2000/svg">
<rect width="1600" height="300" fill="#F1F5F9"/>
<g clip-path="url(#clip0_169_2)">
<mask id="mask0_169_2" style="mask-type:alpha" maskUnits="userSpaceOnUse" x="650" y="120" width="300" height="60">
<path d="M950 120H650V179.084H950V120Z" fill="#D9D9D9"/>
</mask>
<g mask="url(#mask0_169_2)">
<path d="M734.618 141.999C737.856 141.999 740.614 143.233 742.89 145.702C745.198 148.138 746.353 151.136 746.353 154.695C746.353 158.253 745.198 161.267 742.89 163.736C740.614 166.173 737.856 167.391 734.618 167.391C731.252 167.391 728.655 166.221 726.827 163.88V176.336H720.624V142.672H726.827V145.509C728.655 143.169 731.252 141.999 734.618 141.999ZM728.703 159.6C729.953 160.85 731.54 161.476 733.464 161.476C735.388 161.476 736.975 160.85 738.225 159.6C739.508 158.318 740.149 156.682 740.149 154.695C740.149 152.707 739.508 151.088 738.225 149.837C736.975 148.555 735.388 147.914 733.464 147.914C731.54 147.914 729.953 148.555 728.703 149.837C727.453 151.088 726.827 152.707 726.827 154.695C726.827 156.682 727.453 158.318 728.703 159.6ZM769.147 142.672H775.207V165.563C775.207 169.282 773.972 172.12 771.504 174.076C769.067 176.031 766.117 177.009 762.655 177.009C760.058 177.009 757.765 176.512 755.778 175.518C753.822 174.524 752.315 173.066 751.257 171.142L756.547 168.112C757.765 170.357 759.865 171.479 762.847 171.479C764.803 171.479 766.342 170.966 767.464 169.94C768.586 168.914 769.147 167.455 769.147 165.563V162.966C767.32 165.403 764.755 166.621 761.452 166.621C758.054 166.621 755.2 165.435 752.892 163.063C750.616 160.658 749.478 157.74 749.478 154.31C749.478 150.911 750.632 148.01 752.94 145.605C755.249 143.201 758.086 141.999 761.452 141.999C764.755 141.999 767.32 143.217 769.147 145.653V142.672ZM757.557 159.071C758.839 160.289 760.458 160.899 762.414 160.899C764.37 160.899 765.973 160.289 767.223 159.071C768.506 157.821 769.147 156.234 769.147 154.31C769.147 152.418 768.506 150.863 767.223 149.645C765.973 148.395 764.37 147.769 762.414 147.769C760.458 147.769 758.839 148.395 757.557 149.645C756.307 150.863 755.681 152.418 755.681 154.31C755.681 156.234 756.307 157.821 757.557 159.071ZM779.582 174.941V168.978H801.463V174.941H779.582ZM810.037 149.501C810.037 150.142 810.454 150.671 811.288 151.088C812.153 151.473 813.195 151.825 814.414 152.146C815.632 152.434 816.85 152.819 818.069 153.3C819.287 153.749 820.313 154.518 821.146 155.608C822.012 156.699 822.445 158.061 822.445 159.696C822.445 162.165 821.515 164.073 819.656 165.419C817.828 166.734 815.536 167.391 812.778 167.391C807.841 167.391 804.475 165.483 802.679 161.668L808.066 158.638C808.771 160.722 810.342 161.764 812.778 161.764C814.991 161.764 816.097 161.075 816.097 159.696C816.097 159.055 815.664 158.542 814.798 158.157C813.965 157.74 812.939 157.372 811.72 157.051C810.502 156.731 809.284 156.33 808.066 155.849C806.847 155.368 805.805 154.615 804.94 153.589C804.106 152.531 803.689 151.216 803.689 149.645C803.689 147.273 804.555 145.413 806.286 144.066C808.049 142.688 810.23 141.999 812.827 141.999C814.782 141.999 816.562 142.447 818.165 143.345C819.768 144.211 821.034 145.461 821.964 147.096L816.674 149.982C815.904 148.347 814.622 147.529 812.827 147.529C812.025 147.529 811.352 147.705 810.807 148.058C810.294 148.411 810.037 148.892 810.037 149.501ZM831.348 157.244C832.181 160.257 834.442 161.764 838.129 161.764C840.501 161.764 842.297 160.963 843.515 159.36L848.517 162.245C846.144 165.676 842.649 167.391 838.033 167.391C834.057 167.391 830.867 166.189 828.462 163.784C826.058 161.379 824.855 158.35 824.855 154.695C824.855 151.072 826.042 148.058 828.414 145.653C830.787 143.217 833.833 141.999 837.552 141.999C841.078 141.999 843.98 143.217 846.256 145.653C848.565 148.09 849.719 151.104 849.719 154.695C849.719 155.496 849.639 156.346 849.478 157.244H831.348ZM831.252 152.434H843.515C843.162 150.799 842.425 149.581 841.303 148.779C840.213 147.978 838.962 147.577 837.552 147.577C835.884 147.577 834.506 148.01 833.416 148.876C832.326 149.709 831.604 150.895 831.252 152.434ZM872.136 142.672H878.34V166.718H872.136V163.88C870.277 166.221 867.664 167.391 864.297 167.391C861.091 167.391 858.334 166.173 856.026 163.736C853.749 161.267 852.611 158.253 852.611 154.695C852.611 151.136 853.749 148.138 856.026 145.702C858.334 143.233 861.091 141.999 864.297 141.999C867.664 141.999 870.277 143.169 872.136 145.509V142.672ZM860.691 159.6C861.941 160.85 863.528 161.476 865.452 161.476C867.375 161.476 868.962 160.85 870.213 159.6C871.495 158.318 872.136 156.682 872.136 154.695C872.136 152.707 871.495 151.088 870.213 149.837C868.962 148.555 867.375 147.914 865.452 147.914C863.528 147.914 861.941 148.555 860.691 149.837C859.44 151.088 858.815 152.707 858.815 154.695C858.815 156.682 859.44 158.318 860.691 159.6ZM890.17 146.808C890.747 145.269 891.693 144.115 893.007 143.345C894.354 142.576 895.845 142.191 897.48 142.191V149.116C895.588 148.892 893.889 149.276 892.382 150.27C890.907 151.264 890.17 152.915 890.17 155.224V166.718H883.966V142.672H890.17V146.808ZM911.661 167.391C908.038 167.391 905.009 166.173 902.572 163.736C900.167 161.299 898.965 158.286 898.965 154.695C898.965 151.104 900.167 148.09 902.572 145.653C905.009 143.217 908.038 141.999 911.661 141.999C914.002 141.999 916.134 142.56 918.057 143.682C919.981 144.804 921.44 146.311 922.434 148.202L917.096 151.328C916.615 150.334 915.877 149.549 914.883 148.972C913.922 148.395 912.831 148.106 911.613 148.106C909.754 148.106 908.215 148.731 906.996 149.982C905.778 151.2 905.169 152.771 905.169 154.695C905.169 156.586 905.778 158.157 906.996 159.408C908.215 160.626 909.754 161.235 911.613 161.235C912.864 161.235 913.97 160.963 914.931 160.418C915.925 159.84 916.663 159.055 917.144 158.061L922.53 161.139C921.472 163.031 919.981 164.553 918.057 165.708C916.134 166.83 914.002 167.391 911.661 167.391ZM939.181 141.999C941.81 141.999 943.974 142.88 945.673 144.644C947.404 146.407 948.27 148.844 948.27 151.953V166.718H942.066V152.723C942.066 151.12 941.633 149.902 940.768 149.068C939.902 148.202 938.748 147.769 937.305 147.769C935.702 147.769 934.42 148.266 933.458 149.26C932.496 150.254 932.015 151.745 932.015 153.733V166.718H925.811V133.053H932.015V145.365C933.522 143.121 935.91 141.999 939.181 141.999Z" fill="#1E1B4B"/>
<path fill-rule="evenodd" clip-rule="evenodd" d="M681.699 132.824H672.662V166.86H681.699V132.824Z" fill="#4F46E5"/>
<path fill-rule="evenodd" clip-rule="evenodd" d="M671.284 132.824H662.247V166.86H671.284V132.824Z" fill="#4F46E5"/>
<path fill-rule="evenodd" clip-rule="evenodd" d="M660.869 132.824H651.832V166.86H660.869V132.824Z" fill="#4F46E5"/>
<path fill-rule="evenodd" clip-rule="evenodd" d="M683.076 132.827V154.863C683.076 158.053 684.343 161.085 686.597 163.34C688.852 165.595 691.884 166.861 695.075 166.861H700.357V157.824H695.075C694.288 157.824 693.542 157.505 692.987 156.95C692.432 156.395 692.114 155.649 692.114 154.863V142.078C692.114 137.061 688.066 132.943 683.076 132.828V132.827Z" fill="#4F46E5"/>
</g>
</g>
<defs>
<clipPath id="clip0_169_2">
<rect width="300" height="59.084" fill="white" transform="translate(650 120)"/>
</clipPath>
</defs>
</svg>
