<svg width="339" height="96" viewBox="0 0 339 96" fill="none" xmlns="http://www.w3.org/2000/svg">
<mask id="mask0_83_17" style="mask-type:alpha" maskUnits="userSpaceOnUse" x="13" y="9" width="38" height="54">
<path d="M13.2269 9.09351H50.1939V62.8281H24.3872L13.2269 9.09351Z" fill="#D9D9D9"/>
</mask>
<g mask="url(#mask0_83_17)">
<path d="M5.98734 57.7063C5.85624 58.0119 5.73285 58.3031 5.61761 58.5781H3.00138C3.33968 56.0883 3.80422 52.842 4.36318 49.3678C5.60684 41.6378 7.22309 33.4259 8.80983 29.5514C10.4858 25.4589 12.8173 21.4467 15.5766 18.5312C18.3446 15.6064 21.1758 14.1455 23.9739 14.1455C26.9072 14.1455 29.5302 15.437 32.0072 18.0705C34.5488 20.7726 36.7567 24.7236 38.59 29.4716C40.3547 34.0418 42.1028 42.3654 43.4344 49.8849C44.0161 53.1697 44.5036 56.2124 44.8655 58.5781H42.3301C42.2149 58.3031 42.0915 58.0119 41.9604 57.7063C41.0432 55.5685 39.7307 52.6896 38.1679 49.7862C36.6253 46.9202 34.7434 43.8493 32.6546 41.437C30.7827 39.2751 27.8037 36.5228 23.9739 36.5228C20.144 36.5228 17.165 39.2751 15.2931 41.437C13.2043 43.8493 11.3224 46.9202 9.77979 49.7862C8.21704 52.6896 6.90453 55.5685 5.98734 57.7063Z" stroke="#34D399" stroke-width="8.5"/>
</g>
<mask id="mask1_83_17" style="mask-type:alpha" maskUnits="userSpaceOnUse" x="0" y="0" width="31" height="63">
<rect width="30.174" height="62.8281" fill="#D9D9D9"/>
</mask>
<g mask="url(#mask1_83_17)">
<path d="M-20.2425 57.5245C-20.4352 57.8989 -20.6137 58.2513 -20.7771 58.578H-25.3445C-25.3398 58.5425 -25.335 58.5067 -25.3301 58.4708C-24.928 55.4773 -24.3487 51.3835 -23.6395 46.9756C-22.1884 37.9563 -20.2883 28.2683 -18.3959 23.6473C-16.6581 19.4041 -14.3852 17.3652 -11.7359 16.2158C-8.82595 14.9533 -5.06436 14.5835 -3.24249e-05 14.5835C5.39054 14.5835 8.75634 14.6441 11.4083 15.725C13.6126 16.6236 15.7894 18.4625 17.7606 23.5675C19.8528 28.9861 21.9066 38.7857 23.462 47.5691C24.2134 51.8117 24.8304 55.7088 25.264 58.578H20.777C20.6136 58.2513 20.4351 57.8989 20.2424 57.5245C19.1655 55.4324 17.6249 52.6158 15.7907 49.7756C13.9769 46.9668 11.7726 43.9719 9.3405 41.6307C7.04995 39.4258 3.82555 37.0842 -3.24249e-05 37.0842C-3.82562 37.0842 -7.05002 39.4258 -9.34057 41.6307C-11.7727 43.9719 -13.977 46.9668 -15.7908 49.7756C-17.625 52.6158 -19.1656 55.4324 -20.2425 57.5245Z" stroke="#34D399" stroke-width="8.5"/>
<rect y="11.5735" width="7.44017" height="28.934" fill="#34D399"/>
</g>
<mask id="mask2_83_17" style="mask-type:alpha" maskUnits="userSpaceOnUse" x="27" y="9" width="63" height="55">
<path d="M27.694 10.3335L90 9.09351V63.6548H58.5781L43.8143 42.1609L34.7208 19.3796L27.694 10.3335Z" fill="#D9D9D9"/>
</mask>
<g mask="url(#mask2_83_17)">
<path d="M21.5982 59.4049C21.938 56.8656 22.4074 53.5351 22.9734 49.9681C24.2185 42.1217 25.8388 33.77 27.4333 29.8225C29.1152 25.6585 31.4549 21.5764 34.2236 18.6102C37.0041 15.6315 39.8358 14.158 42.6178 14.158C45.5357 14.158 48.1589 15.4599 50.6476 18.1426C53.1993 20.8931 55.4152 24.9144 57.2543 29.7434C58.6919 33.5181 61.6727 36.1597 64.7119 37.9948C67.5499 39.7085 70.7776 40.9266 73.7739 41.7993L69.6191 43.8483C69.1608 43.69 68.6216 43.5052 68.0154 43.3001C65.995 42.6167 63.2194 41.7035 60.2072 40.7883C57.2031 39.8757 53.9204 38.9477 50.8964 38.2442C47.9662 37.5624 44.9498 37.0103 42.6178 37.0103C40.6034 37.0103 38.8675 37.7857 37.5166 38.6862C36.1601 39.5903 34.9557 40.7751 33.9101 41.9995C31.8221 44.4444 29.9402 47.5575 28.3968 50.4648C26.8333 53.4099 25.52 56.3305 24.6022 58.4995C24.4677 58.8173 24.3414 59.1198 24.2236 59.4049H21.5982Z" stroke="#34D399" stroke-width="8.5"/>
</g>
<path d="M112.5 59V24.2H118.7V27.2H119.6C120.167 26.2333 121.05 25.3833 122.25 24.65C123.45 23.8833 125.167 23.5 127.4 23.5C129.4 23.5 131.25 24 132.95 25C134.65 25.9667 136.017 27.4 137.05 29.3C138.083 31.2 138.6 33.5 138.6 36.2V37C138.6 39.7 138.083 42 137.05 43.9C136.017 45.8 134.65 47.25 132.95 48.25C131.25 49.2167 129.4 49.7 127.4 49.7C125.9 49.7 124.633 49.5167 123.6 49.15C122.6 48.8167 121.783 48.3833 121.15 47.85C120.55 47.2833 120.067 46.7167 119.7 46.15H118.8V59H112.5ZM125.5 44.2C127.467 44.2 129.083 43.5833 130.35 42.35C131.65 41.0833 132.3 39.25 132.3 36.85V36.35C132.3 33.95 131.65 32.1333 130.35 30.9C129.05 29.6333 127.433 29 125.5 29C123.567 29 121.95 29.6333 120.65 30.9C119.35 32.1333 118.7 33.95 118.7 36.35V36.85C118.7 39.25 119.35 41.0833 120.65 42.35C121.95 43.5833 123.567 44.2 125.5 44.2ZM143.185 36.7V35.9C143.185 33.3 143.701 31.0833 144.735 29.25C145.768 27.3833 147.135 25.9667 148.835 25C150.568 24 152.451 23.5 154.485 23.5C156.751 23.5 158.468 23.9 159.635 24.7C160.801 25.5 161.651 26.3333 162.185 27.2H163.085V24.2H169.285V53.4C169.285 55.1 168.785 56.45 167.785 57.45C166.785 58.4833 165.451 59 163.785 59H147.185V53.5H161.585C162.518 53.5 162.985 53 162.985 52V45.55H162.085C161.751 46.0833 161.285 46.6333 160.685 47.2C160.085 47.7333 159.285 48.1833 158.285 48.55C157.285 48.9167 156.018 49.1 154.485 49.1C152.451 49.1 150.568 48.6167 148.835 47.65C147.135 46.65 145.768 45.2333 144.735 43.4C143.701 41.5333 143.185 39.3 143.185 36.7ZM156.285 43.6C158.218 43.6 159.835 42.9833 161.135 41.75C162.435 40.5167 163.085 38.7833 163.085 36.55V36.05C163.085 33.7833 162.435 32.05 161.135 30.85C159.868 29.6167 158.251 29 156.285 29C154.351 29 152.735 29.6167 151.435 30.85C150.135 32.05 149.485 33.7833 149.485 36.05V36.55C149.485 38.7833 150.135 40.5167 151.435 41.75C152.735 42.9833 154.351 43.6 156.285 43.6ZM176.02 57.1V51.4H200.52V57.1H176.02ZM222.175 49.7C219.942 49.7 218.225 49.3167 217.025 48.55C215.825 47.7833 214.942 46.9333 214.375 46H213.475V49H207.275V14H213.575V27.05H214.475C214.842 26.45 215.325 25.8833 215.925 25.35C216.559 24.8167 217.375 24.3833 218.375 24.05C219.409 23.6833 220.675 23.5 222.175 23.5C224.175 23.5 226.025 24 227.725 25C229.425 25.9667 230.792 27.4 231.825 29.3C232.859 31.2 233.375 33.5 233.375 36.2V37C233.375 39.7 232.859 42 231.825 43.9C230.792 45.8 229.425 47.25 227.725 48.25C226.025 49.2167 224.175 49.7 222.175 49.7ZM220.275 44.2C222.209 44.2 223.825 43.5833 225.125 42.35C226.425 41.0833 227.075 39.25 227.075 36.85V36.35C227.075 33.95 226.425 32.1333 225.125 30.9C223.859 29.6333 222.242 29 220.275 29C218.342 29 216.725 29.6333 215.425 30.9C214.125 32.1333 213.475 33.95 213.475 36.35V36.85C213.475 39.25 214.125 41.0833 215.425 42.35C216.725 43.5833 218.342 44.2 220.275 44.2ZM239.16 49V24.2H245.36V26.9H246.26C246.693 26.0667 247.41 25.35 248.41 24.75C249.41 24.1167 250.727 23.8 252.36 23.8C254.127 23.8 255.543 24.15 256.61 24.85C257.677 25.5167 258.493 26.4 259.06 27.5H259.96C260.527 26.4333 261.327 25.55 262.36 24.85C263.393 24.15 264.86 23.8 266.76 23.8C268.293 23.8 269.677 24.1333 270.91 24.8C272.177 25.4333 273.177 26.4167 273.91 27.75C274.677 29.05 275.06 30.7 275.06 32.7V49H268.76V33.15C268.76 31.7833 268.41 30.7667 267.71 30.1C267.01 29.4 266.027 29.05 264.76 29.05C263.327 29.05 262.21 29.5167 261.41 30.45C260.643 31.35 260.26 32.65 260.26 34.35V49H253.96V33.15C253.96 31.7833 253.61 30.7667 252.91 30.1C252.21 29.4 251.227 29.05 249.96 29.05C248.527 29.05 247.41 29.5167 246.61 30.45C245.843 31.35 245.46 32.65 245.46 34.35V49H239.16ZM280.436 49V44.8C280.436 42.3667 280.836 40.35 281.636 38.75C282.436 37.1167 283.586 35.7833 285.086 34.75C286.619 33.6833 288.486 32.8167 290.686 32.15L294.036 31.1C295.269 30.7 296.303 30.2167 297.136 29.65C297.969 29.05 298.603 28.3333 299.036 27.5C299.503 26.6667 299.736 25.7167 299.736 24.65V24.45C299.736 22.7833 299.169 21.4667 298.036 20.5C296.903 19.5 295.353 19 293.386 19C291.453 19 289.886 19.5333 288.686 20.6C287.519 21.6333 286.936 23.1333 286.936 25.1V26H280.536V25.2C280.536 22.6667 281.103 20.5167 282.236 18.75C283.369 16.9833 284.903 15.6333 286.836 14.7C288.803 13.7667 290.986 13.3 293.386 13.3C295.786 13.3 297.953 13.7667 299.886 14.7C301.819 15.6 303.336 16.8833 304.436 18.55C305.569 20.1833 306.136 22.1167 306.136 24.35V24.85C306.136 27.0833 305.669 28.9833 304.736 30.55C303.836 32.0833 302.603 33.35 301.036 34.35C299.469 35.3167 297.686 36.1167 295.686 36.75L292.486 37.75C291.053 38.1833 289.936 38.6667 289.136 39.2C288.336 39.7 287.769 40.2667 287.436 40.9C287.136 41.5 286.986 42.2333 286.986 43.1V43.3H305.836V49H280.436ZM323.173 49.7C320.44 49.7 318.073 49.2167 316.073 48.25C314.107 47.2833 312.59 45.9167 311.523 44.15C310.457 42.3833 309.923 40.3333 309.923 38V37.5H316.423V37.95C316.423 39.6167 316.973 41.05 318.073 42.25C319.207 43.4167 320.873 44 323.073 44C325.273 44 326.957 43.4167 328.123 42.25C329.323 41.05 329.923 39.5 329.923 37.6V37.1C329.923 35.2333 329.323 33.75 328.123 32.65C326.957 31.55 325.49 31 323.723 31C322.757 31 321.957 31.1333 321.323 31.4C320.69 31.6667 320.173 32 319.773 32.4C319.373 32.8 319.04 33.2 318.773 33.6H311.023V14H334.923V19.8H317.423V28.35H318.323C318.657 27.9167 319.107 27.5 319.673 27.1C320.24 26.7 320.973 26.3667 321.873 26.1C322.773 25.8333 323.84 25.7 325.073 25.7C327.14 25.7 329.023 26.1333 330.723 27C332.423 27.8667 333.773 29.15 334.773 30.85C335.807 32.5167 336.323 34.5833 336.323 37.05V37.65C336.323 40.1167 335.79 42.25 334.723 44.05C333.69 45.85 332.19 47.25 330.223 48.25C328.257 49.2167 325.907 49.7 323.173 49.7Z" fill="#34D399"/>
<path d="M114.888 92.224C114.173 92.224 113.624 92.1013 113.24 91.856C112.856 91.6107 112.573 91.3387 112.392 91.04H112.104V92H110.12V80.8H112.136V84.976H112.424C112.541 84.784 112.696 84.6027 112.888 84.432C113.091 84.2613 113.352 84.1227 113.672 84.016C114.003 83.8987 114.408 83.84 114.888 83.84C115.528 83.84 116.12 84 116.664 84.32C117.208 84.6293 117.645 85.088 117.976 85.696C118.307 86.304 118.472 87.04 118.472 87.904V88.16C118.472 89.024 118.307 89.76 117.976 90.368C117.645 90.976 117.208 91.44 116.664 91.76C116.12 92.0693 115.528 92.224 114.888 92.224ZM114.28 90.464C114.899 90.464 115.416 90.2667 115.832 89.872C116.248 89.4667 116.456 88.88 116.456 88.112V87.952C116.456 87.184 116.248 86.6027 115.832 86.208C115.427 85.8027 114.909 85.6 114.28 85.6C113.661 85.6 113.144 85.8027 112.728 86.208C112.312 86.6027 112.104 87.184 112.104 87.952V88.112C112.104 88.88 112.312 89.4667 112.728 89.872C113.144 90.2667 113.661 90.464 114.28 90.464ZM121.187 95.2V93.44H125.507C125.806 93.44 125.955 93.28 125.955 92.96V90.96H125.667C125.582 91.1413 125.448 91.3227 125.267 91.504C125.086 91.6853 124.84 91.8347 124.531 91.952C124.222 92.0693 123.827 92.128 123.347 92.128C122.728 92.128 122.184 91.9893 121.715 91.712C121.256 91.424 120.899 91.0293 120.643 90.528C120.387 90.0267 120.259 89.4507 120.259 88.8V84.064H122.275V88.64C122.275 89.2373 122.419 89.6853 122.707 89.984C123.006 90.2827 123.427 90.432 123.971 90.432C124.59 90.432 125.07 90.2293 125.411 89.824C125.752 89.408 125.923 88.832 125.923 88.096V84.064H127.939V93.408C127.939 93.952 127.779 94.384 127.459 94.704C127.139 95.0347 126.712 95.2 126.179 95.2H121.187ZM134.181 92V80.8H138.789C139.493 80.8 140.112 80.944 140.645 81.232C141.189 81.5093 141.61 81.904 141.909 82.416C142.218 82.928 142.373 83.536 142.373 84.24V84.464C142.373 85.1573 142.213 85.7653 141.893 86.288C141.584 86.8 141.157 87.2 140.613 87.488C140.08 87.7653 139.472 87.904 138.789 87.904H136.293V92H134.181ZM136.293 85.984H138.581C139.082 85.984 139.488 85.8453 139.797 85.568C140.106 85.2907 140.261 84.912 140.261 84.432V84.272C140.261 83.792 140.106 83.4133 139.797 83.136C139.488 82.8587 139.082 82.72 138.581 82.72H136.293V85.984ZM146.209 92.224C145.644 92.224 145.137 92.128 144.689 91.936C144.241 91.7333 143.884 91.4453 143.617 91.072C143.361 90.688 143.233 90.224 143.233 89.68C143.233 89.136 143.361 88.6827 143.617 88.32C143.884 87.9467 144.246 87.6693 144.705 87.488C145.174 87.296 145.708 87.2 146.305 87.2H148.481V86.752C148.481 86.3787 148.364 86.0747 148.129 85.84C147.894 85.5947 147.521 85.472 147.009 85.472C146.508 85.472 146.134 85.5893 145.889 85.824C145.644 86.048 145.484 86.3413 145.409 86.704L143.553 86.08C143.681 85.6747 143.884 85.3067 144.161 84.976C144.449 84.6347 144.828 84.3627 145.297 84.16C145.777 83.9467 146.358 83.84 147.041 83.84C148.086 83.84 148.913 84.1013 149.521 84.624C150.129 85.1467 150.433 85.904 150.433 86.896V89.856C150.433 90.176 150.582 90.336 150.881 90.336H151.521V92H150.177C149.782 92 149.457 91.904 149.201 91.712C148.945 91.52 148.817 91.264 148.817 90.944V90.928H148.513C148.47 91.056 148.374 91.2267 148.225 91.44C148.076 91.6427 147.841 91.824 147.521 91.984C147.201 92.144 146.764 92.224 146.209 92.224ZM146.561 90.592C147.126 90.592 147.585 90.4373 147.937 90.128C148.3 89.808 148.481 89.3867 148.481 88.864V88.704H146.449C146.076 88.704 145.782 88.784 145.569 88.944C145.356 89.104 145.249 89.328 145.249 89.616C145.249 89.904 145.361 90.1387 145.585 90.32C145.809 90.5013 146.134 90.592 146.561 90.592ZM152.995 92V84.064H154.979V84.96H155.267C155.384 84.64 155.576 84.4053 155.843 84.256C156.12 84.1067 156.44 84.032 156.803 84.032H157.763V85.824H156.771C156.259 85.824 155.838 85.9627 155.507 86.24C155.176 86.5067 155.011 86.9227 155.011 87.488V92H152.995ZM161.615 92.224C161.05 92.224 160.543 92.128 160.095 91.936C159.647 91.7333 159.29 91.4453 159.023 91.072C158.767 90.688 158.639 90.224 158.639 89.68C158.639 89.136 158.767 88.6827 159.023 88.32C159.29 87.9467 159.653 87.6693 160.111 87.488C160.581 87.296 161.114 87.2 161.711 87.2H163.887V86.752C163.887 86.3787 163.77 86.0747 163.535 85.84C163.301 85.5947 162.927 85.472 162.415 85.472C161.914 85.472 161.541 85.5893 161.295 85.824C161.05 86.048 160.89 86.3413 160.815 86.704L158.959 86.08C159.087 85.6747 159.29 85.3067 159.567 84.976C159.855 84.6347 160.234 84.3627 160.703 84.16C161.183 83.9467 161.765 83.84 162.447 83.84C163.493 83.84 164.319 84.1013 164.927 84.624C165.535 85.1467 165.839 85.904 165.839 86.896V89.856C165.839 90.176 165.989 90.336 166.287 90.336H166.927V92H165.583C165.189 92 164.863 91.904 164.607 91.712C164.351 91.52 164.223 91.264 164.223 90.944V90.928H163.919C163.877 91.056 163.781 91.2267 163.631 91.44C163.482 91.6427 163.247 91.824 162.927 91.984C162.607 92.144 162.17 92.224 161.615 92.224ZM161.967 90.592C162.533 90.592 162.991 90.4373 163.343 90.128C163.706 89.808 163.887 89.3867 163.887 88.864V88.704H161.855C161.482 88.704 161.189 88.784 160.975 88.944C160.762 89.104 160.655 89.328 160.655 89.616C160.655 89.904 160.767 90.1387 160.991 90.32C161.215 90.5013 161.541 90.592 161.967 90.592ZM171.445 92.224C170.816 92.224 170.224 92.0693 169.669 91.76C169.125 91.44 168.688 90.976 168.357 90.368C168.026 89.76 167.861 89.024 167.861 88.16V87.904C167.861 87.04 168.026 86.304 168.357 85.696C168.688 85.088 169.125 84.6293 169.669 84.32C170.213 84 170.805 83.84 171.445 83.84C171.925 83.84 172.325 83.8987 172.645 84.016C172.976 84.1227 173.242 84.2613 173.445 84.432C173.648 84.6027 173.802 84.784 173.909 84.976H174.197V80.8H176.213V92H174.229V91.04H173.941C173.76 91.3387 173.477 91.6107 173.093 91.856C172.72 92.1013 172.17 92.224 171.445 92.224ZM172.053 90.464C172.672 90.464 173.189 90.2667 173.605 89.872C174.021 89.4667 174.229 88.88 174.229 88.112V87.952C174.229 87.184 174.021 86.6027 173.605 86.208C173.2 85.8027 172.682 85.6 172.053 85.6C171.434 85.6 170.917 85.8027 170.501 86.208C170.085 86.6027 169.877 87.184 169.877 87.952V88.112C169.877 88.88 170.085 89.4667 170.501 89.872C170.917 90.2667 171.434 90.464 172.053 90.464ZM182.064 92.224C181.275 92.224 180.576 92.0587 179.968 91.728C179.371 91.3867 178.901 90.912 178.56 90.304C178.229 89.6853 178.064 88.96 178.064 88.128V87.936C178.064 87.104 178.229 86.384 178.56 85.776C178.891 85.1573 179.355 84.6827 179.952 84.352C180.549 84.0107 181.243 83.84 182.032 83.84C182.811 83.84 183.488 84.016 184.064 84.368C184.64 84.7093 185.088 85.1893 185.408 85.808C185.728 86.416 185.888 87.1253 185.888 87.936V88.624H180.112C180.133 89.168 180.336 89.6107 180.72 89.952C181.104 90.2933 181.573 90.464 182.128 90.464C182.693 90.464 183.109 90.3413 183.376 90.096C183.643 89.8507 183.845 89.5787 183.984 89.28L185.632 90.144C185.483 90.4213 185.264 90.7253 184.976 91.056C184.699 91.376 184.325 91.6533 183.856 91.888C183.387 92.112 182.789 92.224 182.064 92.224ZM180.128 87.12H183.84C183.797 86.6613 183.611 86.2933 183.28 86.016C182.96 85.7387 182.539 85.6 182.016 85.6C181.472 85.6 181.04 85.7387 180.72 86.016C180.4 86.2933 180.203 86.6613 180.128 87.12ZM187.299 92V90.144H188.771V82.656H187.299V80.8H191.907C193.411 80.8 194.552 81.184 195.331 81.952C196.12 82.7093 196.515 83.84 196.515 85.344V87.456C196.515 88.96 196.12 90.096 195.331 90.864C194.552 91.6213 193.411 92 191.907 92H187.299ZM190.883 90.08H191.939C192.792 90.08 193.416 89.856 193.811 89.408C194.205 88.96 194.403 88.3307 194.403 87.52V85.28C194.403 84.4587 194.205 83.8293 193.811 83.392C193.416 82.944 192.792 82.72 191.939 82.72H190.883V90.08ZM197.595 92V90.144H199.067V82.656H197.595V80.8H203.355C204.038 80.8 204.63 80.9173 205.131 81.152C205.643 81.376 206.038 81.7013 206.315 82.128C206.603 82.544 206.747 83.0453 206.747 83.632V83.792C206.747 84.304 206.651 84.7253 206.459 85.056C206.267 85.376 206.038 85.6267 205.771 85.808C205.515 85.9787 205.27 86.1013 205.035 86.176V86.464C205.27 86.528 205.526 86.6507 205.803 86.832C206.081 87.0027 206.315 87.2533 206.507 87.584C206.71 87.9147 206.811 88.3467 206.811 88.88V89.04C206.811 89.6587 206.667 90.192 206.379 90.64C206.091 91.0773 205.691 91.4133 205.179 91.648C204.678 91.8827 204.091 92 203.419 92H197.595ZM201.179 90.08H203.163C203.622 90.08 203.99 89.968 204.267 89.744C204.555 89.52 204.699 89.2 204.699 88.784V88.624C204.699 88.208 204.561 87.888 204.283 87.664C204.006 87.44 203.633 87.328 203.163 87.328H201.179V90.08ZM201.179 85.408H203.131C203.569 85.408 203.926 85.296 204.203 85.072C204.491 84.848 204.635 84.5387 204.635 84.144V83.984C204.635 83.5787 204.497 83.2693 204.219 83.056C203.942 82.832 203.579 82.72 203.131 82.72H201.179V85.408Z" fill="#34D399" fill-opacity="0.7"/>
</svg>
