<svg width="500" height="250" viewBox="0 0 500 250" fill="none" xmlns="http://www.w3.org/2000/svg">
<mask id="mask0_83_15" style="mask-type:alpha" maskUnits="userSpaceOnUse" x="80" y="86" width="38" height="54">
<path d="M80.2269 86.0935H117.194V139.828H91.3872L80.2269 86.0935Z" fill="#D9D9D9"/>
</mask>
<g mask="url(#mask0_83_15)">
<path d="M72.9873 134.706C72.8562 135.012 72.7329 135.303 72.6176 135.578H70.0014C70.3397 133.088 70.8042 129.842 71.3632 126.368C72.6068 118.638 74.2231 110.426 75.8098 106.551C77.4858 102.459 79.8173 98.4467 82.5766 95.5312C85.3446 92.6064 88.1758 91.1455 90.9739 91.1455C93.9072 91.1455 96.5302 92.437 99.0072 95.0705C101.549 97.7726 103.757 101.724 105.59 106.472C107.355 111.042 109.103 119.365 110.434 126.885C111.016 130.17 111.504 133.212 111.866 135.578H109.33C109.215 135.303 109.091 135.012 108.96 134.706C108.043 132.568 106.731 129.69 105.168 126.786C103.625 123.92 101.743 120.849 99.6546 118.437C97.7827 116.275 94.8037 113.523 90.9739 113.523C87.144 113.523 84.165 116.275 82.2931 118.437C80.2043 120.849 78.3224 123.92 76.7798 126.786C75.217 129.69 73.9045 132.568 72.9873 134.706Z" stroke="#34D399" stroke-width="8.5"/>
</g>
<mask id="mask1_83_15" style="mask-type:alpha" maskUnits="userSpaceOnUse" x="67" y="77" width="31" height="63">
<rect x="67" y="77" width="30.174" height="62.8281" fill="#D9D9D9"/>
</mask>
<g mask="url(#mask1_83_15)">
<path d="M46.7575 134.525C46.5648 134.899 46.3863 135.251 46.2229 135.578H41.6555C41.6602 135.543 41.665 135.507 41.6699 135.471C42.072 132.477 42.6513 128.384 43.3605 123.976C44.8116 114.956 46.7117 105.268 48.6041 100.647C50.3419 96.4042 52.6148 94.3653 55.2641 93.2159C58.174 91.9534 61.9356 91.5836 67 91.5836C72.3905 91.5836 75.7563 91.6442 78.4083 92.7252C80.6126 93.6237 82.7894 95.4626 84.7606 100.568C86.8528 105.986 88.9066 115.786 90.462 124.569C91.2134 128.812 91.8304 132.709 92.264 135.578H87.777C87.6136 135.251 87.4351 134.899 87.2424 134.525C86.1655 132.433 84.6249 129.616 82.7907 126.776C80.9769 123.967 78.7726 120.972 76.3405 118.631C74.05 116.426 70.8256 114.084 67 114.084C63.1744 114.084 59.95 116.426 57.6594 118.631C55.2273 120.972 53.023 123.967 51.2092 126.776C49.375 129.616 47.8344 132.433 46.7575 134.525Z" stroke="#34D399" stroke-width="8.5"/>
<rect x="67" y="88.5736" width="7.44017" height="28.934" fill="#34D399"/>
</g>
<mask id="mask2_83_15" style="mask-type:alpha" maskUnits="userSpaceOnUse" x="94" y="86" width="63" height="55">
<path d="M94.694 87.3335L157 86.0935V140.655H125.578L110.814 119.161L101.721 96.3796L94.694 87.3335Z" fill="#D9D9D9"/>
</mask>
<g mask="url(#mask2_83_15)">
<path d="M88.5982 136.405C88.938 133.866 89.4074 130.535 89.9734 126.968C91.2185 119.122 92.8388 110.77 94.4333 106.823C96.1152 102.659 98.4549 98.5764 101.224 95.6102C104.004 92.6315 106.836 91.158 109.618 91.158C112.536 91.158 115.159 92.4599 117.648 95.1426C120.199 97.8931 122.415 101.914 124.254 106.743C125.692 110.518 128.673 113.16 131.712 114.995C134.55 116.708 137.778 117.927 140.774 118.799L136.619 120.848C136.161 120.69 135.622 120.505 135.015 120.3C132.995 119.617 130.219 118.703 127.207 117.788C124.203 116.876 120.92 115.948 117.896 115.244C114.966 114.562 111.95 114.01 109.618 114.01C107.603 114.01 105.868 114.786 104.517 115.686C103.16 116.59 101.956 117.775 100.91 118.999C98.8221 121.444 96.9402 124.558 95.3968 127.465C93.8333 130.41 92.52 133.33 91.6022 135.5C91.4677 135.817 91.3414 136.12 91.2236 136.405H88.5982Z" stroke="#34D399" stroke-width="8.5"/>
</g>
<path d="M179.5 136V101.2H185.7V104.2H186.6C187.167 103.233 188.05 102.383 189.25 101.65C190.45 100.883 192.167 100.5 194.4 100.5C196.4 100.5 198.25 101 199.95 102C201.65 102.967 203.017 104.4 204.05 106.3C205.083 108.2 205.6 110.5 205.6 113.2V114C205.6 116.7 205.083 119 204.05 120.9C203.017 122.8 201.65 124.25 199.95 125.25C198.25 126.217 196.4 126.7 194.4 126.7C192.9 126.7 191.633 126.517 190.6 126.15C189.6 125.817 188.783 125.383 188.15 124.85C187.55 124.283 187.067 123.717 186.7 123.15H185.8V136H179.5ZM192.5 121.2C194.467 121.2 196.083 120.583 197.35 119.35C198.65 118.083 199.3 116.25 199.3 113.85V113.35C199.3 110.95 198.65 109.133 197.35 107.9C196.05 106.633 194.433 106 192.5 106C190.567 106 188.95 106.633 187.65 107.9C186.35 109.133 185.7 110.95 185.7 113.35V113.85C185.7 116.25 186.35 118.083 187.65 119.35C188.95 120.583 190.567 121.2 192.5 121.2ZM210.185 113.7V112.9C210.185 110.3 210.701 108.083 211.735 106.25C212.768 104.383 214.135 102.967 215.835 102C217.568 101 219.451 100.5 221.485 100.5C223.751 100.5 225.468 100.9 226.635 101.7C227.801 102.5 228.651 103.333 229.185 104.2H230.085V101.2H236.285V130.4C236.285 132.1 235.785 133.45 234.785 134.45C233.785 135.483 232.451 136 230.785 136H214.185V130.5H228.585C229.518 130.5 229.985 130 229.985 129V122.55H229.085C228.751 123.083 228.285 123.633 227.685 124.2C227.085 124.733 226.285 125.183 225.285 125.55C224.285 125.917 223.018 126.1 221.485 126.1C219.451 126.1 217.568 125.617 215.835 124.65C214.135 123.65 212.768 122.233 211.735 120.4C210.701 118.533 210.185 116.3 210.185 113.7ZM223.285 120.6C225.218 120.6 226.835 119.983 228.135 118.75C229.435 117.517 230.085 115.783 230.085 113.55V113.05C230.085 110.783 229.435 109.05 228.135 107.85C226.868 106.617 225.251 106 223.285 106C221.351 106 219.735 106.617 218.435 107.85C217.135 109.05 216.485 110.783 216.485 113.05V113.55C216.485 115.783 217.135 117.517 218.435 118.75C219.735 119.983 221.351 120.6 223.285 120.6ZM243.02 134.1V128.4H267.52V134.1H243.02ZM284.575 126.7C281.342 126.7 278.692 126 276.625 124.6C274.559 123.2 273.309 121.2 272.875 118.6L278.675 117.1C278.909 118.267 279.292 119.183 279.825 119.85C280.392 120.517 281.075 121 281.875 121.3C282.709 121.567 283.609 121.7 284.575 121.7C286.042 121.7 287.125 121.45 287.825 120.95C288.525 120.417 288.875 119.767 288.875 119C288.875 118.233 288.542 117.65 287.875 117.25C287.209 116.817 286.142 116.467 284.675 116.2L283.275 115.95C281.542 115.617 279.959 115.167 278.525 114.6C277.092 114 275.942 113.183 275.075 112.15C274.209 111.117 273.775 109.783 273.775 108.15C273.775 105.683 274.675 103.8 276.475 102.5C278.275 101.167 280.642 100.5 283.575 100.5C286.342 100.5 288.642 101.117 290.475 102.35C292.309 103.583 293.509 105.2 294.075 107.2L288.225 109C287.959 107.733 287.409 106.833 286.575 106.3C285.775 105.767 284.775 105.5 283.575 105.5C282.375 105.5 281.459 105.717 280.825 106.15C280.192 106.55 279.875 107.117 279.875 107.85C279.875 108.65 280.209 109.25 280.875 109.65C281.542 110.017 282.442 110.3 283.575 110.5L284.975 110.75C286.842 111.083 288.525 111.533 290.025 112.1C291.559 112.633 292.759 113.417 293.625 114.45C294.525 115.45 294.975 116.817 294.975 118.55C294.975 121.15 294.025 123.167 292.125 124.6C290.259 126 287.742 126.7 284.575 126.7ZM311.796 126.7C309.329 126.7 307.146 126.183 305.246 125.15C303.379 124.083 301.913 122.6 300.846 120.7C299.813 118.767 299.296 116.5 299.296 113.9V113.3C299.296 110.7 299.813 108.45 300.846 106.55C301.879 104.617 303.329 103.133 305.196 102.1C307.063 101.033 309.229 100.5 311.696 100.5C314.129 100.5 316.246 101.05 318.046 102.15C319.846 103.217 321.246 104.717 322.246 106.65C323.246 108.55 323.746 110.767 323.746 113.3V115.45H305.696C305.763 117.15 306.396 118.533 307.596 119.6C308.796 120.667 310.263 121.2 311.996 121.2C313.763 121.2 315.063 120.817 315.896 120.05C316.729 119.283 317.363 118.433 317.796 117.5L322.946 120.2C322.479 121.067 321.796 122.017 320.896 123.05C320.029 124.05 318.863 124.917 317.396 125.65C315.929 126.35 314.063 126.7 311.796 126.7ZM305.746 110.75H317.346C317.213 109.317 316.629 108.167 315.596 107.3C314.596 106.433 313.279 106 311.646 106C309.946 106 308.596 106.433 307.596 107.3C306.596 108.167 305.979 109.317 305.746 110.75ZM337.054 126.7C335.287 126.7 333.704 126.4 332.304 125.8C330.904 125.167 329.787 124.267 328.954 123.1C328.154 121.9 327.754 120.45 327.754 118.75C327.754 117.05 328.154 115.633 328.954 114.5C329.787 113.333 330.92 112.467 332.354 111.9C333.82 111.3 335.487 111 337.354 111H344.154V109.6C344.154 108.433 343.787 107.483 343.054 106.75C342.32 105.983 341.154 105.6 339.554 105.6C337.987 105.6 336.82 105.967 336.054 106.7C335.287 107.4 334.787 108.317 334.554 109.45L328.754 107.5C329.154 106.233 329.787 105.083 330.654 104.05C331.554 102.983 332.737 102.133 334.204 101.5C335.704 100.833 337.52 100.5 339.654 100.5C342.92 100.5 345.504 101.317 347.404 102.95C349.304 104.583 350.254 106.95 350.254 110.05V119.3C350.254 120.3 350.72 120.8 351.654 120.8H353.654V126H349.454C348.22 126 347.204 125.7 346.404 125.1C345.604 124.5 345.204 123.7 345.204 122.7V122.65H344.254C344.12 123.05 343.82 123.583 343.354 124.25C342.887 124.883 342.154 125.45 341.154 125.95C340.154 126.45 338.787 126.7 337.054 126.7ZM338.154 121.6C339.92 121.6 341.354 121.117 342.454 120.15C343.587 119.15 344.154 117.833 344.154 116.2V115.7H337.804C336.637 115.7 335.72 115.95 335.054 116.45C334.387 116.95 334.054 117.65 334.054 118.55C334.054 119.45 334.404 120.183 335.104 120.75C335.804 121.317 336.82 121.6 338.154 121.6ZM358.26 126V101.2H364.46V104H365.36C365.726 103 366.326 102.267 367.16 101.8C368.026 101.333 369.026 101.1 370.16 101.1H373.16V106.7H370.06C368.46 106.7 367.143 107.133 366.11 108C365.076 108.833 364.56 110.133 364.56 111.9V126H358.26ZM388.855 126.7C386.455 126.7 384.272 126.2 382.305 125.2C380.372 124.2 378.838 122.75 377.705 120.85C376.572 118.95 376.005 116.65 376.005 113.95V113.25C376.005 110.55 376.572 108.25 377.705 106.35C378.838 104.45 380.372 103 382.305 102C384.272 101 386.455 100.5 388.855 100.5C391.222 100.5 393.255 100.917 394.955 101.75C396.655 102.583 398.022 103.733 399.055 105.2C400.122 106.633 400.822 108.267 401.155 110.1L395.055 111.4C394.922 110.4 394.622 109.5 394.155 108.7C393.688 107.9 393.022 107.267 392.155 106.8C391.322 106.333 390.272 106.1 389.005 106.1C387.738 106.1 386.588 106.383 385.555 106.95C384.555 107.483 383.755 108.3 383.155 109.4C382.588 110.467 382.305 111.783 382.305 113.35V113.85C382.305 115.417 382.588 116.75 383.155 117.85C383.755 118.917 384.555 119.733 385.555 120.3C386.588 120.833 387.738 121.1 389.005 121.1C390.905 121.1 392.338 120.617 393.305 119.65C394.305 118.65 394.938 117.35 395.205 115.75L401.305 117.2C400.872 118.967 400.122 120.583 399.055 122.05C398.022 123.483 396.655 124.617 394.955 125.45C393.255 126.283 391.222 126.7 388.855 126.7ZM406.502 126V91H412.802V104.25H413.702C413.969 103.717 414.385 103.183 414.952 102.65C415.519 102.117 416.269 101.683 417.202 101.35C418.169 100.983 419.385 100.8 420.852 100.8C422.785 100.8 424.469 101.25 425.902 102.15C427.369 103.017 428.502 104.233 429.302 105.8C430.102 107.333 430.502 109.133 430.502 111.2V126H424.202V111.7C424.202 109.833 423.735 108.433 422.802 107.5C421.902 106.567 420.602 106.1 418.902 106.1C416.969 106.1 415.469 106.75 414.402 108.05C413.335 109.317 412.802 111.1 412.802 113.4V126H406.502Z" fill="#34D399"/>
<path d="M181.888 169.224C181.173 169.224 180.624 169.101 180.24 168.856C179.856 168.611 179.573 168.339 179.392 168.04H179.104V169H177.12V157.8H179.136V161.976H179.424C179.541 161.784 179.696 161.603 179.888 161.432C180.091 161.261 180.352 161.123 180.672 161.016C181.003 160.899 181.408 160.84 181.888 160.84C182.528 160.84 183.12 161 183.664 161.32C184.208 161.629 184.645 162.088 184.976 162.696C185.307 163.304 185.472 164.04 185.472 164.904V165.16C185.472 166.024 185.307 166.76 184.976 167.368C184.645 167.976 184.208 168.44 183.664 168.76C183.12 169.069 182.528 169.224 181.888 169.224ZM181.28 167.464C181.899 167.464 182.416 167.267 182.832 166.872C183.248 166.467 183.456 165.88 183.456 165.112V164.952C183.456 164.184 183.248 163.603 182.832 163.208C182.427 162.803 181.909 162.6 181.28 162.6C180.661 162.6 180.144 162.803 179.728 163.208C179.312 163.603 179.104 164.184 179.104 164.952V165.112C179.104 165.88 179.312 166.467 179.728 166.872C180.144 167.267 180.661 167.464 181.28 167.464ZM188.187 172.2V170.44H192.507C192.806 170.44 192.955 170.28 192.955 169.96V167.96H192.667C192.582 168.141 192.448 168.323 192.267 168.504C192.086 168.685 191.84 168.835 191.531 168.952C191.222 169.069 190.827 169.128 190.347 169.128C189.728 169.128 189.184 168.989 188.715 168.712C188.256 168.424 187.899 168.029 187.643 167.528C187.387 167.027 187.259 166.451 187.259 165.8V161.064H189.275V165.64C189.275 166.237 189.419 166.685 189.707 166.984C190.006 167.283 190.427 167.432 190.971 167.432C191.59 167.432 192.07 167.229 192.411 166.824C192.752 166.408 192.923 165.832 192.923 165.096V161.064H194.939V170.408C194.939 170.952 194.779 171.384 194.459 171.704C194.139 172.035 193.712 172.2 193.179 172.2H188.187ZM201.181 169V157.8H205.789C206.493 157.8 207.112 157.944 207.645 158.232C208.189 158.509 208.61 158.904 208.909 159.416C209.218 159.928 209.373 160.536 209.373 161.24V161.464C209.373 162.157 209.213 162.765 208.893 163.288C208.584 163.8 208.157 164.2 207.613 164.488C207.08 164.765 206.472 164.904 205.789 164.904H203.293V169H201.181ZM203.293 162.984H205.581C206.082 162.984 206.488 162.845 206.797 162.568C207.106 162.291 207.261 161.912 207.261 161.432V161.272C207.261 160.792 207.106 160.413 206.797 160.136C206.488 159.859 206.082 159.72 205.581 159.72H203.293V162.984ZM213.209 169.224C212.644 169.224 212.137 169.128 211.689 168.936C211.241 168.733 210.884 168.445 210.617 168.072C210.361 167.688 210.233 167.224 210.233 166.68C210.233 166.136 210.361 165.683 210.617 165.32C210.884 164.947 211.246 164.669 211.705 164.488C212.174 164.296 212.708 164.2 213.305 164.2H215.481V163.752C215.481 163.379 215.364 163.075 215.129 162.84C214.894 162.595 214.521 162.472 214.009 162.472C213.508 162.472 213.134 162.589 212.889 162.824C212.644 163.048 212.484 163.341 212.409 163.704L210.553 163.08C210.681 162.675 210.884 162.307 211.161 161.976C211.449 161.635 211.828 161.363 212.297 161.16C212.777 160.947 213.358 160.84 214.041 160.84C215.086 160.84 215.913 161.101 216.521 161.624C217.129 162.147 217.433 162.904 217.433 163.896V166.856C217.433 167.176 217.582 167.336 217.881 167.336H218.521V169H217.177C216.782 169 216.457 168.904 216.201 168.712C215.945 168.52 215.817 168.264 215.817 167.944V167.928H215.513C215.47 168.056 215.374 168.227 215.225 168.44C215.076 168.643 214.841 168.824 214.521 168.984C214.201 169.144 213.764 169.224 213.209 169.224ZM213.561 167.592C214.126 167.592 214.585 167.437 214.937 167.128C215.3 166.808 215.481 166.387 215.481 165.864V165.704H213.449C213.076 165.704 212.782 165.784 212.569 165.944C212.356 166.104 212.249 166.328 212.249 166.616C212.249 166.904 212.361 167.139 212.585 167.32C212.809 167.501 213.134 167.592 213.561 167.592ZM219.995 169V161.064H221.979V161.96H222.267C222.384 161.64 222.576 161.405 222.843 161.256C223.12 161.107 223.44 161.032 223.803 161.032H224.763V162.824H223.771C223.259 162.824 222.838 162.963 222.507 163.24C222.176 163.507 222.011 163.923 222.011 164.488V169H219.995ZM228.615 169.224C228.05 169.224 227.543 169.128 227.095 168.936C226.647 168.733 226.29 168.445 226.023 168.072C225.767 167.688 225.639 167.224 225.639 166.68C225.639 166.136 225.767 165.683 226.023 165.32C226.29 164.947 226.653 164.669 227.111 164.488C227.581 164.296 228.114 164.2 228.711 164.2H230.887V163.752C230.887 163.379 230.77 163.075 230.535 162.84C230.301 162.595 229.927 162.472 229.415 162.472C228.914 162.472 228.541 162.589 228.295 162.824C228.05 163.048 227.89 163.341 227.815 163.704L225.959 163.08C226.087 162.675 226.29 162.307 226.567 161.976C226.855 161.635 227.234 161.363 227.703 161.16C228.183 160.947 228.765 160.84 229.447 160.84C230.493 160.84 231.319 161.101 231.927 161.624C232.535 162.147 232.839 162.904 232.839 163.896V166.856C232.839 167.176 232.989 167.336 233.287 167.336H233.927V169H232.583C232.189 169 231.863 168.904 231.607 168.712C231.351 168.52 231.223 168.264 231.223 167.944V167.928H230.919C230.877 168.056 230.781 168.227 230.631 168.44C230.482 168.643 230.247 168.824 229.927 168.984C229.607 169.144 229.17 169.224 228.615 169.224ZM228.967 167.592C229.533 167.592 229.991 167.437 230.343 167.128C230.706 166.808 230.887 166.387 230.887 165.864V165.704H228.855C228.482 165.704 228.189 165.784 227.975 165.944C227.762 166.104 227.655 166.328 227.655 166.616C227.655 166.904 227.767 167.139 227.991 167.32C228.215 167.501 228.541 167.592 228.967 167.592ZM238.445 169.224C237.816 169.224 237.224 169.069 236.669 168.76C236.125 168.44 235.688 167.976 235.357 167.368C235.026 166.76 234.861 166.024 234.861 165.16V164.904C234.861 164.04 235.026 163.304 235.357 162.696C235.688 162.088 236.125 161.629 236.669 161.32C237.213 161 237.805 160.84 238.445 160.84C238.925 160.84 239.325 160.899 239.645 161.016C239.976 161.123 240.242 161.261 240.445 161.432C240.648 161.603 240.802 161.784 240.909 161.976H241.197V157.8H243.213V169H241.229V168.04H240.941C240.76 168.339 240.477 168.611 240.093 168.856C239.72 169.101 239.17 169.224 238.445 169.224ZM239.053 167.464C239.672 167.464 240.189 167.267 240.605 166.872C241.021 166.467 241.229 165.88 241.229 165.112V164.952C241.229 164.184 241.021 163.603 240.605 163.208C240.2 162.803 239.682 162.6 239.053 162.6C238.434 162.6 237.917 162.803 237.501 163.208C237.085 163.603 236.877 164.184 236.877 164.952V165.112C236.877 165.88 237.085 166.467 237.501 166.872C237.917 167.267 238.434 167.464 239.053 167.464ZM249.064 169.224C248.275 169.224 247.576 169.059 246.968 168.728C246.371 168.387 245.901 167.912 245.56 167.304C245.229 166.685 245.064 165.96 245.064 165.128V164.936C245.064 164.104 245.229 163.384 245.56 162.776C245.891 162.157 246.355 161.683 246.952 161.352C247.549 161.011 248.243 160.84 249.032 160.84C249.811 160.84 250.488 161.016 251.064 161.368C251.64 161.709 252.088 162.189 252.408 162.808C252.728 163.416 252.888 164.125 252.888 164.936V165.624H247.112C247.133 166.168 247.336 166.611 247.72 166.952C248.104 167.293 248.573 167.464 249.128 167.464C249.693 167.464 250.109 167.341 250.376 167.096C250.643 166.851 250.845 166.579 250.984 166.28L252.632 167.144C252.483 167.421 252.264 167.725 251.976 168.056C251.699 168.376 251.325 168.653 250.856 168.888C250.387 169.112 249.789 169.224 249.064 169.224ZM247.128 164.12H250.84C250.797 163.661 250.611 163.293 250.28 163.016C249.96 162.739 249.539 162.6 249.016 162.6C248.472 162.6 248.04 162.739 247.72 163.016C247.4 163.293 247.203 163.661 247.128 164.12ZM254.299 169V167.144H255.771V159.656H254.299V157.8H258.907C260.411 157.8 261.552 158.184 262.331 158.952C263.12 159.709 263.515 160.84 263.515 162.344V164.456C263.515 165.96 263.12 167.096 262.331 167.864C261.552 168.621 260.411 169 258.907 169H254.299ZM257.883 167.08H258.939C259.792 167.08 260.416 166.856 260.811 166.408C261.205 165.96 261.403 165.331 261.403 164.52V162.28C261.403 161.459 261.205 160.829 260.811 160.392C260.416 159.944 259.792 159.72 258.939 159.72H257.883V167.08ZM264.595 169V167.144H266.067V159.656H264.595V157.8H270.355C271.038 157.8 271.63 157.917 272.131 158.152C272.643 158.376 273.038 158.701 273.315 159.128C273.603 159.544 273.747 160.045 273.747 160.632V160.792C273.747 161.304 273.651 161.725 273.459 162.056C273.267 162.376 273.038 162.627 272.771 162.808C272.515 162.979 272.27 163.101 272.035 163.176V163.464C272.27 163.528 272.526 163.651 272.803 163.832C273.081 164.003 273.315 164.253 273.507 164.584C273.71 164.915 273.811 165.347 273.811 165.88V166.04C273.811 166.659 273.667 167.192 273.379 167.64C273.091 168.077 272.691 168.413 272.179 168.648C271.678 168.883 271.091 169 270.419 169H264.595ZM268.179 167.08H270.163C270.622 167.08 270.99 166.968 271.267 166.744C271.555 166.52 271.699 166.2 271.699 165.784V165.624C271.699 165.208 271.561 164.888 271.283 164.664C271.006 164.44 270.633 164.328 270.163 164.328H268.179V167.08ZM268.179 162.408H270.131C270.569 162.408 270.926 162.296 271.203 162.072C271.491 161.848 271.635 161.539 271.635 161.144V160.984C271.635 160.579 271.497 160.269 271.219 160.056C270.942 159.832 270.579 159.72 270.131 159.72H268.179V162.408Z" fill="#34D399" fill-opacity="0.7"/>
</svg>
