<svg width="500" height="250" viewBox="0 0 500 250" fill="none" xmlns="http://www.w3.org/2000/svg">
<mask id="mask0_128_18" style="mask-type:alpha" maskUnits="userSpaceOnUse" x="79" y="86" width="38" height="54">
<path d="M79.2271 86.0935H116.194V139.828H90.3873L79.2271 86.0935Z" fill="#D9D9D9"/>
</mask>
<g mask="url(#mask0_128_18)">
<path d="M71.9875 134.706C71.8564 135.012 71.733 135.303 71.6177 135.578H69.0015C69.3398 133.088 69.8043 129.842 70.3633 126.368C71.607 118.638 73.2232 110.426 74.81 106.551C76.486 102.459 78.8175 98.4467 81.5768 95.5312C84.3447 92.6064 87.1759 91.1455 89.974 91.1455C92.9073 91.1455 95.5303 92.437 98.0074 95.0705C100.549 97.7726 102.757 101.724 104.59 106.472C106.355 111.042 108.103 119.365 109.435 126.885C110.016 130.17 110.504 133.212 110.866 135.578H108.33C108.215 135.303 108.092 135.012 107.96 134.706C107.043 132.568 105.731 129.69 104.168 126.786C102.625 123.92 100.743 120.849 98.6547 118.437C96.7828 116.275 93.8039 113.523 89.974 113.523C86.1441 113.523 83.1651 116.275 81.2932 118.437C79.2045 120.849 77.3225 123.92 75.7799 126.786C74.2172 129.69 72.9047 132.568 71.9875 134.706Z" stroke="#34D399" stroke-width="8.5"/>
</g>
<mask id="mask1_128_18" style="mask-type:alpha" maskUnits="userSpaceOnUse" x="66" y="77" width="31" height="63">
<rect x="66" y="77" width="30.174" height="62.8281" fill="#D9D9D9"/>
</mask>
<g mask="url(#mask1_128_18)">
<path d="M45.7575 134.525C45.5648 134.899 45.3863 135.251 45.2229 135.578H40.6555C40.6602 135.542 40.665 135.507 40.6699 135.471C41.072 132.477 41.6513 128.383 42.3605 123.976C43.8116 114.956 45.7117 105.268 47.6041 100.647C49.3419 96.4041 51.6148 94.3652 54.2641 93.2158C57.174 91.9533 60.9356 91.5835 66 91.5835C71.3905 91.5835 74.7563 91.6441 77.4083 92.725C79.6126 93.6236 81.7894 95.4625 83.7606 100.568C85.8528 105.986 87.9066 115.786 89.462 124.569C90.2134 128.812 90.8304 132.709 91.264 135.578H86.777C86.6136 135.251 86.4351 134.899 86.2424 134.525C85.1655 132.432 83.6249 129.616 81.7907 126.776C79.9769 123.967 77.7726 120.972 75.3405 118.631C73.05 116.426 69.8256 114.084 66 114.084C62.1744 114.084 58.95 116.426 56.6594 118.631C54.2273 120.972 52.023 123.967 50.2092 126.776C48.375 129.616 46.8344 132.432 45.7575 134.525Z" stroke="#34D399" stroke-width="8.5"/>
<rect x="66" y="88.5735" width="7.44017" height="28.934" fill="#34D399"/>
</g>
<mask id="mask2_128_18" style="mask-type:alpha" maskUnits="userSpaceOnUse" x="93" y="86" width="63" height="55">
<path d="M93.6941 87.3335L156 86.0935V140.655H124.578L109.814 119.161L100.721 96.3796L93.6941 87.3335Z" fill="#D9D9D9"/>
</mask>
<g mask="url(#mask2_128_18)">
<path d="M87.5985 136.405C87.9382 133.866 88.4076 130.535 88.9736 126.968C90.2187 119.122 91.839 110.77 93.4335 106.823C95.1155 102.659 97.4551 98.5764 100.224 95.6102C103.004 92.6315 105.836 91.158 108.618 91.158C111.536 91.158 114.159 92.4599 116.648 95.1426C119.2 97.8931 121.415 101.914 123.255 106.743C124.692 110.518 127.673 113.16 130.712 114.995C133.55 116.708 136.778 117.927 139.774 118.799L135.619 120.848C135.161 120.69 134.622 120.505 134.016 120.3C131.995 119.617 129.22 118.703 126.207 117.788C123.203 116.876 119.921 115.948 116.897 115.244C113.966 114.562 110.95 114.01 108.618 114.01C106.604 114.01 104.868 114.786 103.517 115.686C102.16 116.59 100.956 117.775 99.9103 118.999C97.8223 121.444 95.9404 124.558 94.397 127.465C92.8336 130.41 91.5203 133.33 90.6024 135.5C90.468 135.817 90.3416 136.12 90.2238 136.405H87.5985Z" stroke="#34D399" stroke-width="8.5"/>
</g>
<path d="M178.5 136V101.2H184.7V104.2H185.6C186.167 103.233 187.05 102.383 188.25 101.65C189.45 100.883 191.167 100.5 193.4 100.5C195.4 100.5 197.25 101 198.95 102C200.65 102.967 202.017 104.4 203.05 106.3C204.083 108.2 204.6 110.5 204.6 113.2V114C204.6 116.7 204.083 119 203.05 120.9C202.017 122.8 200.65 124.25 198.95 125.25C197.25 126.217 195.4 126.7 193.4 126.7C191.9 126.7 190.633 126.517 189.6 126.15C188.6 125.817 187.783 125.383 187.15 124.85C186.55 124.283 186.067 123.717 185.7 123.15H184.8V136H178.5ZM191.5 121.2C193.467 121.2 195.083 120.583 196.35 119.35C197.65 118.083 198.3 116.25 198.3 113.85V113.35C198.3 110.95 197.65 109.133 196.35 107.9C195.05 106.633 193.433 106 191.5 106C189.567 106 187.95 106.633 186.65 107.9C185.35 109.133 184.7 110.95 184.7 113.35V113.85C184.7 116.25 185.35 118.083 186.65 119.35C187.95 120.583 189.567 121.2 191.5 121.2ZM209.185 113.7V112.9C209.185 110.3 209.701 108.083 210.735 106.25C211.768 104.383 213.135 102.967 214.835 102C216.568 101 218.451 100.5 220.485 100.5C222.751 100.5 224.468 100.9 225.635 101.7C226.801 102.5 227.651 103.333 228.185 104.2H229.085V101.2H235.285V130.4C235.285 132.1 234.785 133.45 233.785 134.45C232.785 135.483 231.451 136 229.785 136H213.185V130.5H227.585C228.518 130.5 228.985 130 228.985 129V122.55H228.085C227.751 123.083 227.285 123.633 226.685 124.2C226.085 124.733 225.285 125.183 224.285 125.55C223.285 125.917 222.018 126.1 220.485 126.1C218.451 126.1 216.568 125.617 214.835 124.65C213.135 123.65 211.768 122.233 210.735 120.4C209.701 118.533 209.185 116.3 209.185 113.7ZM222.285 120.6C224.218 120.6 225.835 119.983 227.135 118.75C228.435 117.517 229.085 115.783 229.085 113.55V113.05C229.085 110.783 228.435 109.05 227.135 107.85C225.868 106.617 224.251 106 222.285 106C220.351 106 218.735 106.617 217.435 107.85C216.135 109.05 215.485 110.783 215.485 113.05V113.55C215.485 115.783 216.135 117.517 217.435 118.75C218.735 119.983 220.351 120.6 222.285 120.6ZM242.02 134.1V128.4H266.52V134.1H242.02ZM283.575 126.7C280.342 126.7 277.692 126 275.625 124.6C273.559 123.2 272.309 121.2 271.875 118.6L277.675 117.1C277.909 118.267 278.292 119.183 278.825 119.85C279.392 120.517 280.075 121 280.875 121.3C281.709 121.567 282.609 121.7 283.575 121.7C285.042 121.7 286.125 121.45 286.825 120.95C287.525 120.417 287.875 119.767 287.875 119C287.875 118.233 287.542 117.65 286.875 117.25C286.209 116.817 285.142 116.467 283.675 116.2L282.275 115.95C280.542 115.617 278.959 115.167 277.525 114.6C276.092 114 274.942 113.183 274.075 112.15C273.209 111.117 272.775 109.783 272.775 108.15C272.775 105.683 273.675 103.8 275.475 102.5C277.275 101.167 279.642 100.5 282.575 100.5C285.342 100.5 287.642 101.117 289.475 102.35C291.309 103.583 292.509 105.2 293.075 107.2L287.225 109C286.959 107.733 286.409 106.833 285.575 106.3C284.775 105.767 283.775 105.5 282.575 105.5C281.375 105.5 280.459 105.717 279.825 106.15C279.192 106.55 278.875 107.117 278.875 107.85C278.875 108.65 279.209 109.25 279.875 109.65C280.542 110.017 281.442 110.3 282.575 110.5L283.975 110.75C285.842 111.083 287.525 111.533 289.025 112.1C290.559 112.633 291.759 113.417 292.625 114.45C293.525 115.45 293.975 116.817 293.975 118.55C293.975 121.15 293.025 123.167 291.125 124.6C289.259 126 286.742 126.7 283.575 126.7ZM310.796 126.7C308.329 126.7 306.146 126.183 304.246 125.15C302.379 124.083 300.913 122.6 299.846 120.7C298.813 118.767 298.296 116.5 298.296 113.9V113.3C298.296 110.7 298.813 108.45 299.846 106.55C300.879 104.617 302.329 103.133 304.196 102.1C306.063 101.033 308.229 100.5 310.696 100.5C313.129 100.5 315.246 101.05 317.046 102.15C318.846 103.217 320.246 104.717 321.246 106.65C322.246 108.55 322.746 110.767 322.746 113.3V115.45H304.696C304.763 117.15 305.396 118.533 306.596 119.6C307.796 120.667 309.263 121.2 310.996 121.2C312.763 121.2 314.063 120.817 314.896 120.05C315.729 119.283 316.363 118.433 316.796 117.5L321.946 120.2C321.479 121.067 320.796 122.017 319.896 123.05C319.029 124.05 317.863 124.917 316.396 125.65C314.929 126.35 313.063 126.7 310.796 126.7ZM304.746 110.75H316.346C316.213 109.317 315.629 108.167 314.596 107.3C313.596 106.433 312.279 106 310.646 106C308.946 106 307.596 106.433 306.596 107.3C305.596 108.167 304.979 109.317 304.746 110.75ZM336.054 126.7C334.287 126.7 332.704 126.4 331.304 125.8C329.904 125.167 328.787 124.267 327.954 123.1C327.154 121.9 326.754 120.45 326.754 118.75C326.754 117.05 327.154 115.633 327.954 114.5C328.787 113.333 329.92 112.467 331.354 111.9C332.82 111.3 334.487 111 336.354 111H343.154V109.6C343.154 108.433 342.787 107.483 342.054 106.75C341.32 105.983 340.154 105.6 338.554 105.6C336.987 105.6 335.82 105.967 335.054 106.7C334.287 107.4 333.787 108.317 333.554 109.45L327.754 107.5C328.154 106.233 328.787 105.083 329.654 104.05C330.554 102.983 331.737 102.133 333.204 101.5C334.704 100.833 336.52 100.5 338.654 100.5C341.92 100.5 344.504 101.317 346.404 102.95C348.304 104.583 349.254 106.95 349.254 110.05V119.3C349.254 120.3 349.72 120.8 350.654 120.8H352.654V126H348.454C347.22 126 346.204 125.7 345.404 125.1C344.604 124.5 344.204 123.7 344.204 122.7V122.65H343.254C343.12 123.05 342.82 123.583 342.354 124.25C341.887 124.883 341.154 125.45 340.154 125.95C339.154 126.45 337.787 126.7 336.054 126.7ZM337.154 121.6C338.92 121.6 340.354 121.117 341.454 120.15C342.587 119.15 343.154 117.833 343.154 116.2V115.7H336.804C335.637 115.7 334.72 115.95 334.054 116.45C333.387 116.95 333.054 117.65 333.054 118.55C333.054 119.45 333.404 120.183 334.104 120.75C334.804 121.317 335.82 121.6 337.154 121.6ZM357.26 126V101.2H363.46V104H364.36C364.726 103 365.326 102.267 366.16 101.8C367.026 101.333 368.026 101.1 369.16 101.1H372.16V106.7H369.06C367.46 106.7 366.143 107.133 365.11 108C364.076 108.833 363.56 110.133 363.56 111.9V126H357.26ZM387.855 126.7C385.455 126.7 383.272 126.2 381.305 125.2C379.372 124.2 377.838 122.75 376.705 120.85C375.572 118.95 375.005 116.65 375.005 113.95V113.25C375.005 110.55 375.572 108.25 376.705 106.35C377.838 104.45 379.372 103 381.305 102C383.272 101 385.455 100.5 387.855 100.5C390.222 100.5 392.255 100.917 393.955 101.75C395.655 102.583 397.022 103.733 398.055 105.2C399.122 106.633 399.822 108.267 400.155 110.1L394.055 111.4C393.922 110.4 393.622 109.5 393.155 108.7C392.688 107.9 392.022 107.267 391.155 106.8C390.322 106.333 389.272 106.1 388.005 106.1C386.738 106.1 385.588 106.383 384.555 106.95C383.555 107.483 382.755 108.3 382.155 109.4C381.588 110.467 381.305 111.783 381.305 113.35V113.85C381.305 115.417 381.588 116.75 382.155 117.85C382.755 118.917 383.555 119.733 384.555 120.3C385.588 120.833 386.738 121.1 388.005 121.1C389.905 121.1 391.338 120.617 392.305 119.65C393.305 118.65 393.938 117.35 394.205 115.75L400.305 117.2C399.872 118.967 399.122 120.583 398.055 122.05C397.022 123.483 395.655 124.617 393.955 125.45C392.255 126.283 390.222 126.7 387.855 126.7ZM405.502 126V91H411.802V104.25H412.702C412.969 103.717 413.385 103.183 413.952 102.65C414.519 102.117 415.269 101.683 416.202 101.35C417.169 100.983 418.385 100.8 419.852 100.8C421.785 100.8 423.469 101.25 424.902 102.15C426.369 103.017 427.502 104.233 428.302 105.8C429.102 107.333 429.502 109.133 429.502 111.2V126H423.202V111.7C423.202 109.833 422.735 108.433 421.802 107.5C420.902 106.567 419.602 106.1 417.902 106.1C415.969 106.1 414.469 106.75 413.402 108.05C412.335 109.317 411.802 111.1 411.802 113.4V126H405.502Z" fill="#34D399"/>
<path d="M180.888 169.224C180.173 169.224 179.624 169.101 179.24 168.856C178.856 168.611 178.573 168.339 178.392 168.04H178.104V169H176.12V157.8H178.136V161.976H178.424C178.541 161.784 178.696 161.603 178.888 161.432C179.091 161.261 179.352 161.123 179.672 161.016C180.003 160.899 180.408 160.84 180.888 160.84C181.528 160.84 182.12 161 182.664 161.32C183.208 161.629 183.645 162.088 183.976 162.696C184.307 163.304 184.472 164.04 184.472 164.904V165.16C184.472 166.024 184.307 166.76 183.976 167.368C183.645 167.976 183.208 168.44 182.664 168.76C182.12 169.069 181.528 169.224 180.888 169.224ZM180.28 167.464C180.899 167.464 181.416 167.267 181.832 166.872C182.248 166.467 182.456 165.88 182.456 165.112V164.952C182.456 164.184 182.248 163.603 181.832 163.208C181.427 162.803 180.909 162.6 180.28 162.6C179.661 162.6 179.144 162.803 178.728 163.208C178.312 163.603 178.104 164.184 178.104 164.952V165.112C178.104 165.88 178.312 166.467 178.728 166.872C179.144 167.267 179.661 167.464 180.28 167.464ZM187.187 172.2V170.44H191.507C191.806 170.44 191.955 170.28 191.955 169.96V167.96H191.667C191.582 168.141 191.448 168.323 191.267 168.504C191.086 168.685 190.84 168.835 190.531 168.952C190.222 169.069 189.827 169.128 189.347 169.128C188.728 169.128 188.184 168.989 187.715 168.712C187.256 168.424 186.899 168.029 186.643 167.528C186.387 167.027 186.259 166.451 186.259 165.8V161.064H188.275V165.64C188.275 166.237 188.419 166.685 188.707 166.984C189.006 167.283 189.427 167.432 189.971 167.432C190.59 167.432 191.07 167.229 191.411 166.824C191.752 166.408 191.923 165.832 191.923 165.096V161.064H193.939V170.408C193.939 170.952 193.779 171.384 193.459 171.704C193.139 172.035 192.712 172.2 192.179 172.2H187.187ZM200.181 169V157.8H204.789C205.493 157.8 206.112 157.944 206.645 158.232C207.189 158.509 207.61 158.904 207.909 159.416C208.218 159.928 208.373 160.536 208.373 161.24V161.464C208.373 162.157 208.213 162.765 207.893 163.288C207.584 163.8 207.157 164.2 206.613 164.488C206.08 164.765 205.472 164.904 204.789 164.904H202.293V169H200.181ZM202.293 162.984H204.581C205.082 162.984 205.488 162.845 205.797 162.568C206.106 162.291 206.261 161.912 206.261 161.432V161.272C206.261 160.792 206.106 160.413 205.797 160.136C205.488 159.859 205.082 159.72 204.581 159.72H202.293V162.984ZM212.209 169.224C211.644 169.224 211.137 169.128 210.689 168.936C210.241 168.733 209.884 168.445 209.617 168.072C209.361 167.688 209.233 167.224 209.233 166.68C209.233 166.136 209.361 165.683 209.617 165.32C209.884 164.947 210.246 164.669 210.705 164.488C211.174 164.296 211.708 164.2 212.305 164.2H214.481V163.752C214.481 163.379 214.364 163.075 214.129 162.84C213.894 162.595 213.521 162.472 213.009 162.472C212.508 162.472 212.134 162.589 211.889 162.824C211.644 163.048 211.484 163.341 211.409 163.704L209.553 163.08C209.681 162.675 209.884 162.307 210.161 161.976C210.449 161.635 210.828 161.363 211.297 161.16C211.777 160.947 212.358 160.84 213.041 160.84C214.086 160.84 214.913 161.101 215.521 161.624C216.129 162.147 216.433 162.904 216.433 163.896V166.856C216.433 167.176 216.582 167.336 216.881 167.336H217.521V169H216.177C215.782 169 215.457 168.904 215.201 168.712C214.945 168.52 214.817 168.264 214.817 167.944V167.928H214.513C214.47 168.056 214.374 168.227 214.225 168.44C214.076 168.643 213.841 168.824 213.521 168.984C213.201 169.144 212.764 169.224 212.209 169.224ZM212.561 167.592C213.126 167.592 213.585 167.437 213.937 167.128C214.3 166.808 214.481 166.387 214.481 165.864V165.704H212.449C212.076 165.704 211.782 165.784 211.569 165.944C211.356 166.104 211.249 166.328 211.249 166.616C211.249 166.904 211.361 167.139 211.585 167.32C211.809 167.501 212.134 167.592 212.561 167.592ZM218.995 169V161.064H220.979V161.96H221.267C221.384 161.64 221.576 161.405 221.843 161.256C222.12 161.107 222.44 161.032 222.803 161.032H223.763V162.824H222.771C222.259 162.824 221.838 162.963 221.507 163.24C221.176 163.507 221.011 163.923 221.011 164.488V169H218.995ZM227.615 169.224C227.05 169.224 226.543 169.128 226.095 168.936C225.647 168.733 225.29 168.445 225.023 168.072C224.767 167.688 224.639 167.224 224.639 166.68C224.639 166.136 224.767 165.683 225.023 165.32C225.29 164.947 225.653 164.669 226.111 164.488C226.581 164.296 227.114 164.2 227.711 164.2H229.887V163.752C229.887 163.379 229.77 163.075 229.535 162.84C229.301 162.595 228.927 162.472 228.415 162.472C227.914 162.472 227.541 162.589 227.295 162.824C227.05 163.048 226.89 163.341 226.815 163.704L224.959 163.08C225.087 162.675 225.29 162.307 225.567 161.976C225.855 161.635 226.234 161.363 226.703 161.16C227.183 160.947 227.765 160.84 228.447 160.84C229.493 160.84 230.319 161.101 230.927 161.624C231.535 162.147 231.839 162.904 231.839 163.896V166.856C231.839 167.176 231.989 167.336 232.287 167.336H232.927V169H231.583C231.189 169 230.863 168.904 230.607 168.712C230.351 168.52 230.223 168.264 230.223 167.944V167.928H229.919C229.877 168.056 229.781 168.227 229.631 168.44C229.482 168.643 229.247 168.824 228.927 168.984C228.607 169.144 228.17 169.224 227.615 169.224ZM227.967 167.592C228.533 167.592 228.991 167.437 229.343 167.128C229.706 166.808 229.887 166.387 229.887 165.864V165.704H227.855C227.482 165.704 227.189 165.784 226.975 165.944C226.762 166.104 226.655 166.328 226.655 166.616C226.655 166.904 226.767 167.139 226.991 167.32C227.215 167.501 227.541 167.592 227.967 167.592ZM237.445 169.224C236.816 169.224 236.224 169.069 235.669 168.76C235.125 168.44 234.688 167.976 234.357 167.368C234.026 166.76 233.861 166.024 233.861 165.16V164.904C233.861 164.04 234.026 163.304 234.357 162.696C234.688 162.088 235.125 161.629 235.669 161.32C236.213 161 236.805 160.84 237.445 160.84C237.925 160.84 238.325 160.899 238.645 161.016C238.976 161.123 239.242 161.261 239.445 161.432C239.648 161.603 239.802 161.784 239.909 161.976H240.197V157.8H242.213V169H240.229V168.04H239.941C239.76 168.339 239.477 168.611 239.093 168.856C238.72 169.101 238.17 169.224 237.445 169.224ZM238.053 167.464C238.672 167.464 239.189 167.267 239.605 166.872C240.021 166.467 240.229 165.88 240.229 165.112V164.952C240.229 164.184 240.021 163.603 239.605 163.208C239.2 162.803 238.682 162.6 238.053 162.6C237.434 162.6 236.917 162.803 236.501 163.208C236.085 163.603 235.877 164.184 235.877 164.952V165.112C235.877 165.88 236.085 166.467 236.501 166.872C236.917 167.267 237.434 167.464 238.053 167.464ZM248.064 169.224C247.275 169.224 246.576 169.059 245.968 168.728C245.371 168.387 244.901 167.912 244.56 167.304C244.229 166.685 244.064 165.96 244.064 165.128V164.936C244.064 164.104 244.229 163.384 244.56 162.776C244.891 162.157 245.355 161.683 245.952 161.352C246.549 161.011 247.243 160.84 248.032 160.84C248.811 160.84 249.488 161.016 250.064 161.368C250.64 161.709 251.088 162.189 251.408 162.808C251.728 163.416 251.888 164.125 251.888 164.936V165.624H246.112C246.133 166.168 246.336 166.611 246.72 166.952C247.104 167.293 247.573 167.464 248.128 167.464C248.693 167.464 249.109 167.341 249.376 167.096C249.643 166.851 249.845 166.579 249.984 166.28L251.632 167.144C251.483 167.421 251.264 167.725 250.976 168.056C250.699 168.376 250.325 168.653 249.856 168.888C249.387 169.112 248.789 169.224 248.064 169.224ZM246.128 164.12H249.84C249.797 163.661 249.611 163.293 249.28 163.016C248.96 162.739 248.539 162.6 248.016 162.6C247.472 162.6 247.04 162.739 246.72 163.016C246.4 163.293 246.203 163.661 246.128 164.12ZM253.299 169V167.144H254.771V159.656H253.299V157.8H257.907C259.411 157.8 260.552 158.184 261.331 158.952C262.12 159.709 262.515 160.84 262.515 162.344V164.456C262.515 165.96 262.12 167.096 261.331 167.864C260.552 168.621 259.411 169 257.907 169H253.299ZM256.883 167.08H257.939C258.792 167.08 259.416 166.856 259.811 166.408C260.205 165.96 260.403 165.331 260.403 164.52V162.28C260.403 161.459 260.205 160.829 259.811 160.392C259.416 159.944 258.792 159.72 257.939 159.72H256.883V167.08ZM263.595 169V167.144H265.067V159.656H263.595V157.8H269.355C270.038 157.8 270.63 157.917 271.131 158.152C271.643 158.376 272.038 158.701 272.315 159.128C272.603 159.544 272.747 160.045 272.747 160.632V160.792C272.747 161.304 272.651 161.725 272.459 162.056C272.267 162.376 272.038 162.627 271.771 162.808C271.515 162.979 271.27 163.101 271.035 163.176V163.464C271.27 163.528 271.526 163.651 271.803 163.832C272.081 164.003 272.315 164.253 272.507 164.584C272.71 164.915 272.811 165.347 272.811 165.88V166.04C272.811 166.659 272.667 167.192 272.379 167.64C272.091 168.077 271.691 168.413 271.179 168.648C270.678 168.883 270.091 169 269.419 169H263.595ZM267.179 167.08H269.163C269.622 167.08 269.99 166.968 270.267 166.744C270.555 166.52 270.699 166.2 270.699 165.784V165.624C270.699 165.208 270.561 164.888 270.283 164.664C270.006 164.44 269.633 164.328 269.163 164.328H267.179V167.08ZM267.179 162.408H269.131C269.569 162.408 269.926 162.296 270.203 162.072C270.491 161.848 270.635 161.539 270.635 161.144V160.984C270.635 160.579 270.497 160.269 270.219 160.056C269.942 159.832 269.579 159.72 269.131 159.72H267.179V162.408Z" fill="#34D399" fill-opacity="0.7"/>
</svg>
