<svg width="1200" height="400" viewBox="0 0 1200 400" fill="none" xmlns="http://www.w3.org/2000/svg">
<rect width="1200" height="400" fill="#F1F5F9"/>
<g clip-path="url(#clip0_169_2)">
<mask id="mask0_169_2" style="mask-type:alpha" maskUnits="userSpaceOnUse" x="350" y="151" width="500" height="99">
<path d="M850 151H350V249.473H850V151Z" fill="#D9D9D9"/>
</mask>
<g mask="url(#mask0_169_2)">
<path d="M491.03 187.664C496.427 187.664 501.023 189.721 504.817 193.836C508.664 197.897 510.588 202.893 510.588 208.824C510.588 214.756 508.664 219.779 504.817 223.893C501.023 227.954 496.427 229.985 491.03 229.985C485.42 229.985 481.092 228.034 478.046 224.133V244.893H467.706V188.786H478.046V193.515C481.092 189.614 485.42 187.664 491.03 187.664ZM481.172 217C483.256 219.084 485.901 220.126 489.107 220.126C492.313 220.126 494.958 219.084 497.042 217C499.179 214.862 500.248 212.137 500.248 208.824C500.248 205.511 499.179 202.813 497.042 200.729C494.958 198.591 492.313 197.523 489.107 197.523C485.901 197.523 483.256 198.591 481.172 200.729C479.088 202.813 478.046 205.511 478.046 208.824C478.046 212.137 479.088 214.862 481.172 217ZM548.579 188.786H558.678V226.939C558.678 233.137 556.621 237.866 552.506 241.126C548.445 244.385 543.529 246.015 537.758 246.015C533.43 246.015 529.609 245.187 526.296 243.53C523.037 241.874 520.525 239.443 518.762 236.237L527.579 231.187C529.609 234.927 533.109 236.798 538.079 236.798C541.338 236.798 543.903 235.943 545.773 234.233C547.643 232.523 548.579 230.091 548.579 226.939V222.611C545.533 226.672 541.258 228.702 535.754 228.702C530.09 228.702 525.334 226.725 521.487 222.771C517.693 218.763 515.796 213.901 515.796 208.183C515.796 202.519 517.72 197.683 521.567 193.675C525.414 189.668 530.143 187.664 535.754 187.664C541.258 187.664 545.533 189.695 548.579 193.756V188.786ZM529.262 216.118C531.399 218.149 534.098 219.164 537.357 219.164C540.617 219.164 543.288 218.149 545.372 216.118C547.51 214.034 548.579 211.389 548.579 208.183C548.579 205.03 547.51 202.439 545.372 200.408C543.288 198.324 540.617 197.282 537.357 197.282C534.098 197.282 531.399 198.324 529.262 200.408C527.178 202.439 526.136 205.03 526.136 208.183C526.136 211.389 527.178 214.034 529.262 216.118ZM565.969 242.569V232.63H602.439V242.569H565.969ZM616.729 200.168C616.729 201.237 617.424 202.118 618.813 202.813C620.256 203.454 621.992 204.042 624.023 204.576C626.053 205.057 628.084 205.698 630.114 206.5C632.145 207.248 633.855 208.53 635.244 210.347C636.687 212.164 637.408 214.435 637.408 217.16C637.408 221.275 635.859 224.454 632.759 226.698C629.714 228.889 625.893 229.985 621.298 229.985C613.069 229.985 607.458 226.805 604.466 220.446L613.443 215.397C614.618 218.87 617.237 220.607 621.298 220.607C624.985 220.607 626.828 219.458 626.828 217.16C626.828 216.091 626.107 215.237 624.664 214.595C623.275 213.901 621.565 213.286 619.534 212.752C617.504 212.217 615.473 211.55 613.443 210.748C611.412 209.946 609.676 208.691 608.233 206.981C606.843 205.217 606.149 203.027 606.149 200.408C606.149 196.454 607.592 193.355 610.477 191.111C613.416 188.813 617.05 187.664 621.378 187.664C624.637 187.664 627.603 188.412 630.275 189.908C632.947 191.351 635.057 193.435 636.607 196.16L627.79 200.969C626.508 198.244 624.37 196.882 621.378 196.882C620.042 196.882 618.92 197.175 618.011 197.763C617.156 198.351 616.729 199.153 616.729 200.168ZM652.247 213.072C653.636 218.095 657.403 220.607 663.548 220.607C667.502 220.607 670.495 219.271 672.525 216.599L680.861 221.408C676.907 227.126 671.082 229.985 663.388 229.985C656.762 229.985 651.445 227.981 647.437 223.973C643.43 219.966 641.426 214.916 641.426 208.824C641.426 202.786 643.403 197.763 647.357 193.756C651.311 189.695 656.388 187.664 662.586 187.664C668.464 187.664 673.3 189.695 677.094 193.756C680.941 197.817 682.865 202.84 682.865 208.824C682.865 210.16 682.731 211.576 682.464 213.072H652.247ZM652.086 205.057H672.525C671.937 202.332 670.708 200.301 668.838 198.966C667.021 197.63 664.937 196.962 662.586 196.962C659.808 196.962 657.51 197.683 655.693 199.126C653.876 200.515 652.674 202.492 652.086 205.057ZM720.227 188.786H730.567V228.862H720.227V224.133C717.128 228.034 712.773 229.985 707.163 229.985C701.819 229.985 697.224 227.954 693.376 223.893C689.582 219.779 687.685 214.756 687.685 208.824C687.685 202.893 689.582 197.897 693.376 193.836C697.224 189.721 701.819 187.664 707.163 187.664C712.773 187.664 717.128 189.614 720.227 193.515V188.786ZM701.151 217C703.235 219.084 705.88 220.126 709.086 220.126C712.292 220.126 714.937 219.084 717.021 217C719.159 214.862 720.227 212.137 720.227 208.824C720.227 205.511 719.159 202.813 717.021 200.729C714.937 198.591 712.292 197.523 709.086 197.523C705.88 197.523 703.235 198.591 701.151 200.729C699.067 202.813 698.025 205.511 698.025 208.824C698.025 212.137 699.067 214.862 701.151 217ZM750.283 195.679C751.245 193.114 752.821 191.191 755.012 189.908C757.256 188.626 759.741 187.985 762.466 187.985V199.527C759.314 199.153 756.482 199.794 753.97 201.45C751.512 203.107 750.283 205.859 750.283 209.706V228.862H739.943V188.786H750.283V195.679ZM786.102 229.985C780.064 229.985 775.014 227.954 770.953 223.893C766.946 219.832 764.942 214.809 764.942 208.824C764.942 202.84 766.946 197.817 770.953 193.756C775.014 189.695 780.064 187.664 786.102 187.664C790.003 187.664 793.556 188.599 796.763 190.469C799.969 192.34 802.4 194.851 804.056 198.004L795.159 203.214C794.358 201.557 793.129 200.248 791.472 199.286C789.869 198.324 788.053 197.843 786.022 197.843C782.923 197.843 780.358 198.885 778.327 200.969C776.297 203 775.282 205.618 775.282 208.824C775.282 211.977 776.297 214.595 778.327 216.679C780.358 218.71 782.923 219.725 786.022 219.725C788.106 219.725 789.95 219.271 791.553 218.362C793.209 217.401 794.438 216.091 795.24 214.435L804.217 219.565C802.453 222.717 799.969 225.256 796.763 227.179C793.556 229.05 790.003 229.985 786.102 229.985ZM831.968 187.664C836.35 187.664 839.956 189.133 842.788 192.072C845.674 195.011 847.117 199.072 847.117 204.256V228.862H836.777V205.538C836.777 202.866 836.056 200.836 834.613 199.446C833.17 198.004 831.247 197.282 828.842 197.282C826.17 197.282 824.033 198.111 822.43 199.767C820.827 201.424 820.025 203.908 820.025 207.221V228.862H809.685V172.756H820.025V193.275C822.537 189.534 826.517 187.664 831.968 187.664Z" fill="#1E1B4B"/>
<path fill-rule="evenodd" clip-rule="evenodd" d="M402.831 172.374H387.769V229.101H402.831V172.374Z" fill="#4F46E5"/>
<path fill-rule="evenodd" clip-rule="evenodd" d="M385.474 172.374H370.412V229.101H385.474V172.374Z" fill="#4F46E5"/>
<path fill-rule="evenodd" clip-rule="evenodd" d="M368.115 172.374H353.053V229.101H368.115V172.374Z" fill="#4F46E5"/>
<path fill-rule="evenodd" clip-rule="evenodd" d="M405.127 172.379V209.105C405.127 214.422 407.238 219.475 410.995 223.234C414.753 226.991 419.807 229.102 425.124 229.102H433.929V214.04H425.124C423.813 214.04 422.57 213.509 421.645 212.584C420.72 211.659 420.189 210.416 420.189 209.105V187.796C420.189 179.435 413.444 172.571 405.127 172.38V172.379Z" fill="#4F46E5"/>
</g>
</g>
<defs>
<clipPath id="clip0_169_2">
<rect width="500" height="98.4733" fill="white" transform="translate(350 151)"/>
</clipPath>
</defs>
</svg>
