<svg width="367" height="96" viewBox="0 0 367 96" fill="none" xmlns="http://www.w3.org/2000/svg">
<mask id="mask0_77_15" style="mask-type:alpha" maskUnits="userSpaceOnUse" x="13" y="9" width="38" height="54">
<path d="M13.227 9.09351H50.194V62.8281H24.3872L13.227 9.09351Z" fill="#D9D9D9"/>
</mask>
<g mask="url(#mask0_77_15)">
<path d="M5.98738 57.7063C5.85627 58.0119 5.73288 58.3031 5.61764 58.5781H3.00142C3.33971 56.0883 3.80425 52.842 4.36321 49.3678C5.60687 41.6378 7.22312 33.4259 8.80986 29.5514C10.4859 25.4589 12.8174 21.4467 15.5767 18.5312C18.3446 15.6064 21.1758 14.1455 23.9739 14.1455C26.9072 14.1455 29.5302 15.437 32.0073 18.0705C34.5488 20.7726 36.7567 24.7236 38.59 29.4716C40.3548 34.0418 42.1029 42.3654 43.4344 49.8849C44.0161 53.1697 44.5036 56.2124 44.8655 58.5781H42.3301C42.2149 58.3031 42.0915 58.0119 41.9604 57.7063C41.0432 55.5685 39.7307 52.6896 38.168 49.7862C36.6254 46.9202 34.7434 43.8493 32.6546 41.437C30.7827 39.2751 27.8038 36.5228 23.9739 36.5228C20.144 36.5228 17.165 39.2751 15.2931 41.437C13.2044 43.8493 11.3224 46.9202 9.77982 49.7862C8.21707 52.6896 6.90456 55.5685 5.98738 57.7063Z" stroke="#34D399" stroke-width="8.5"/>
</g>
<mask id="mask1_77_15" style="mask-type:alpha" maskUnits="userSpaceOnUse" x="0" y="0" width="31" height="63">
<rect width="30.174" height="62.8281" fill="#D9D9D9"/>
</mask>
<g mask="url(#mask1_77_15)">
<path d="M-20.2425 57.5247C-20.4352 57.899 -20.6137 58.2514 -20.7771 58.5782H-25.3445C-25.3397 58.5426 -25.3349 58.5068 -25.3301 58.4709C-24.928 55.4774 -24.3487 51.3836 -23.6395 46.9757C-22.1884 37.9564 -20.2883 28.2685 -18.3958 23.6475C-16.6581 19.4042 -14.3852 17.3653 -11.7359 16.2159C-8.82592 14.9534 -5.06433 14.5836 0 14.5836C5.39057 14.5836 8.75638 14.6442 11.4083 15.7252C13.6127 16.6237 15.7894 18.4626 17.7606 23.5677C19.8529 28.9862 21.9067 38.7858 23.4621 47.5692C24.2134 51.8119 24.8304 55.709 25.264 58.5782H20.7771C20.6137 58.2514 20.4352 57.899 20.2425 57.5247C19.1656 55.4325 17.6249 52.616 15.7908 49.7757C13.977 46.967 11.7727 43.972 9.34054 41.6308C7.04999 39.4259 3.82559 37.0843 0 37.0843C-3.82559 37.0843 -7.04999 39.4259 -9.34053 41.6308C-11.7727 43.972 -13.977 46.967 -15.7908 49.7757C-17.6249 52.616 -19.1656 55.4325 -20.2425 57.5247Z" stroke="#34D399" stroke-width="8.5"/>
<rect y="11.5736" width="7.44017" height="28.934" fill="#34D399"/>
</g>
<mask id="mask2_77_15" style="mask-type:alpha" maskUnits="userSpaceOnUse" x="27" y="9" width="63" height="55">
<path d="M27.694 10.3335L90 9.09351V63.6548H58.5781L43.8144 42.1609L34.7208 19.3796L27.694 10.3335Z" fill="#D9D9D9"/>
</mask>
<g mask="url(#mask2_77_15)">
<path d="M24.6023 58.4995C24.4678 58.8173 24.3414 59.1198 24.2236 59.4049H21.5983C21.9381 56.8656 22.4074 53.5351 22.9735 49.9681C24.2186 42.1217 25.8389 33.77 27.4333 29.8225C29.1153 25.6585 31.455 21.5764 34.2237 18.6102C37.0042 15.6315 39.8359 14.158 42.6178 14.158C45.5357 14.158 48.159 15.4599 50.6477 18.1426C53.1994 20.8931 55.4153 24.9144 57.2544 29.7434C58.692 33.5181 61.6728 36.1597 64.712 37.9948C67.55 39.7085 70.7777 40.9266 73.7739 41.7993L69.6192 43.8483C69.1608 43.69 68.6216 43.5052 68.0155 43.3001C65.9951 42.6167 63.2194 41.7035 60.2073 40.7883C57.2032 39.8757 53.9204 38.9477 50.8964 38.2442C47.9662 37.5624 44.9499 37.0103 42.6178 37.0103C40.6035 37.0103 38.8676 37.7857 37.5167 38.6862C36.1602 39.5903 34.9558 40.7751 33.9101 41.9995C31.8222 44.4444 29.9403 47.5575 28.3969 50.4648C26.8334 53.4099 25.5201 56.3305 24.6023 58.4995Z" stroke="#34D399" stroke-width="8.5"/>
</g>
<path d="M112.5 59V24.2H118.7V27.2H119.6C120.167 26.2333 121.05 25.3833 122.25 24.65C123.45 23.8833 125.167 23.5 127.4 23.5C129.4 23.5 131.25 24 132.95 25C134.65 25.9667 136.017 27.4 137.05 29.3C138.083 31.2 138.6 33.5 138.6 36.2V37C138.6 39.7 138.083 42 137.05 43.9C136.017 45.8 134.65 47.25 132.95 48.25C131.25 49.2167 129.4 49.7 127.4 49.7C125.9 49.7 124.633 49.5167 123.6 49.15C122.6 48.8167 121.783 48.3833 121.15 47.85C120.55 47.2833 120.067 46.7167 119.7 46.15H118.8V59H112.5ZM125.5 44.2C127.467 44.2 129.083 43.5833 130.35 42.35C131.65 41.0833 132.3 39.25 132.3 36.85V36.35C132.3 33.95 131.65 32.1333 130.35 30.9C129.05 29.6333 127.433 29 125.5 29C123.567 29 121.95 29.6333 120.65 30.9C119.35 32.1333 118.7 33.95 118.7 36.35V36.85C118.7 39.25 119.35 41.0833 120.65 42.35C121.95 43.5833 123.567 44.2 125.5 44.2ZM143.185 36.7V35.9C143.185 33.3 143.701 31.0833 144.735 29.25C145.768 27.3833 147.135 25.9667 148.835 25C150.568 24 152.451 23.5 154.485 23.5C156.751 23.5 158.468 23.9 159.635 24.7C160.801 25.5 161.651 26.3333 162.185 27.2H163.085V24.2H169.285V53.4C169.285 55.1 168.785 56.45 167.785 57.45C166.785 58.4833 165.451 59 163.785 59H147.185V53.5H161.585C162.518 53.5 162.985 53 162.985 52V45.55H162.085C161.751 46.0833 161.285 46.6333 160.685 47.2C160.085 47.7333 159.285 48.1833 158.285 48.55C157.285 48.9167 156.018 49.1 154.485 49.1C152.451 49.1 150.568 48.6167 148.835 47.65C147.135 46.65 145.768 45.2333 144.735 43.4C143.701 41.5333 143.185 39.3 143.185 36.7ZM156.285 43.6C158.218 43.6 159.835 42.9833 161.135 41.75C162.435 40.5167 163.085 38.7833 163.085 36.55V36.05C163.085 33.7833 162.435 32.05 161.135 30.85C159.868 29.6167 158.251 29 156.285 29C154.351 29 152.735 29.6167 151.435 30.85C150.135 32.05 149.485 33.7833 149.485 36.05V36.55C149.485 38.7833 150.135 40.5167 151.435 41.75C152.735 42.9833 154.351 43.6 156.285 43.6ZM176.02 57.1V51.4H200.52V57.1H176.02ZM217.575 49.7C214.342 49.7 211.692 49 209.625 47.6C207.559 46.2 206.309 44.2 205.875 41.6L211.675 40.1C211.909 41.2667 212.292 42.1833 212.825 42.85C213.392 43.5167 214.075 44 214.875 44.3C215.709 44.5667 216.609 44.7 217.575 44.7C219.042 44.7 220.125 44.45 220.825 43.95C221.525 43.4167 221.875 42.7667 221.875 42C221.875 41.2333 221.542 40.65 220.875 40.25C220.209 39.8167 219.142 39.4667 217.675 39.2L216.275 38.95C214.542 38.6167 212.959 38.1667 211.525 37.6C210.092 37 208.942 36.1833 208.075 35.15C207.209 34.1167 206.775 32.7833 206.775 31.15C206.775 28.6833 207.675 26.8 209.475 25.5C211.275 24.1667 213.642 23.5 216.575 23.5C219.342 23.5 221.642 24.1167 223.475 25.35C225.309 26.5833 226.509 28.2 227.075 30.2L221.225 32C220.959 30.7333 220.409 29.8333 219.575 29.3C218.775 28.7667 217.775 28.5 216.575 28.5C215.375 28.5 214.459 28.7167 213.825 29.15C213.192 29.55 212.875 30.1167 212.875 30.85C212.875 31.65 213.209 32.25 213.875 32.65C214.542 33.0167 215.442 33.3 216.575 33.5L217.975 33.75C219.842 34.0833 221.525 34.5333 223.025 35.1C224.559 35.6333 225.759 36.4167 226.625 37.45C227.525 38.45 227.975 39.8167 227.975 41.55C227.975 44.15 227.025 46.1667 225.125 47.6C223.259 49 220.742 49.7 217.575 49.7ZM244.796 49.7C242.329 49.7 240.146 49.1833 238.246 48.15C236.379 47.0833 234.913 45.6 233.846 43.7C232.813 41.7667 232.296 39.5 232.296 36.9V36.3C232.296 33.7 232.813 31.45 233.846 29.55C234.879 27.6167 236.329 26.1333 238.196 25.1C240.063 24.0333 242.229 23.5 244.696 23.5C247.129 23.5 249.246 24.05 251.046 25.15C252.846 26.2167 254.246 27.7167 255.246 29.65C256.246 31.55 256.746 33.7667 256.746 36.3V38.45H238.696C238.763 40.15 239.396 41.5333 240.596 42.6C241.796 43.6667 243.263 44.2 244.996 44.2C246.763 44.2 248.063 43.8167 248.896 43.05C249.729 42.2833 250.363 41.4333 250.796 40.5L255.946 43.2C255.479 44.0667 254.796 45.0167 253.896 46.05C253.029 47.05 251.863 47.9167 250.396 48.65C248.929 49.35 247.063 49.7 244.796 49.7ZM238.746 33.75H250.346C250.213 32.3167 249.629 31.1667 248.596 30.3C247.596 29.4333 246.279 29 244.646 29C242.946 29 241.596 29.4333 240.596 30.3C239.596 31.1667 238.979 32.3167 238.746 33.75ZM270.054 49.7C268.287 49.7 266.704 49.4 265.304 48.8C263.904 48.1667 262.787 47.2667 261.954 46.1C261.154 44.9 260.754 43.45 260.754 41.75C260.754 40.05 261.154 38.6333 261.954 37.5C262.787 36.3333 263.92 35.4667 265.354 34.9C266.82 34.3 268.487 34 270.354 34H277.154V32.6C277.154 31.4333 276.787 30.4833 276.054 29.75C275.32 28.9833 274.154 28.6 272.554 28.6C270.987 28.6 269.82 28.9667 269.054 29.7C268.287 30.4 267.787 31.3167 267.554 32.45L261.754 30.5C262.154 29.2333 262.787 28.0833 263.654 27.05C264.554 25.9833 265.737 25.1333 267.204 24.5C268.704 23.8333 270.52 23.5 272.654 23.5C275.92 23.5 278.504 24.3167 280.404 25.95C282.304 27.5833 283.254 29.95 283.254 33.05V42.3C283.254 43.3 283.72 43.8 284.654 43.8H286.654V49H282.454C281.22 49 280.204 48.7 279.404 48.1C278.604 47.5 278.204 46.7 278.204 45.7V45.65H277.254C277.12 46.05 276.82 46.5833 276.354 47.25C275.887 47.8833 275.154 48.45 274.154 48.95C273.154 49.45 271.787 49.7 270.054 49.7ZM271.154 44.6C272.92 44.6 274.354 44.1167 275.454 43.15C276.587 42.15 277.154 40.8333 277.154 39.2V38.7H270.804C269.637 38.7 268.72 38.95 268.054 39.45C267.387 39.95 267.054 40.65 267.054 41.55C267.054 42.45 267.404 43.1833 268.104 43.75C268.804 44.3167 269.82 44.6 271.154 44.6ZM291.26 49V24.2H297.46V27H298.36C298.726 26 299.326 25.2667 300.16 24.8C301.026 24.3333 302.026 24.1 303.16 24.1H306.16V29.7H303.06C301.46 29.7 300.143 30.1333 299.11 31C298.076 31.8333 297.56 33.1333 297.56 34.9V49H291.26ZM321.855 49.7C319.455 49.7 317.272 49.2 315.305 48.2C313.372 47.2 311.838 45.75 310.705 43.85C309.572 41.95 309.005 39.65 309.005 36.95V36.25C309.005 33.55 309.572 31.25 310.705 29.35C311.838 27.45 313.372 26 315.305 25C317.272 24 319.455 23.5 321.855 23.5C324.222 23.5 326.255 23.9167 327.955 24.75C329.655 25.5833 331.022 26.7333 332.055 28.2C333.122 29.6333 333.822 31.2667 334.155 33.1L328.055 34.4C327.922 33.4 327.622 32.5 327.155 31.7C326.688 30.9 326.022 30.2667 325.155 29.8C324.322 29.3333 323.272 29.1 322.005 29.1C320.738 29.1 319.588 29.3833 318.555 29.95C317.555 30.4833 316.755 31.3 316.155 32.4C315.588 33.4667 315.305 34.7833 315.305 36.35V36.85C315.305 38.4167 315.588 39.75 316.155 40.85C316.755 41.9167 317.555 42.7333 318.555 43.3C319.588 43.8333 320.738 44.1 322.005 44.1C323.905 44.1 325.338 43.6167 326.305 42.65C327.305 41.65 327.938 40.35 328.205 38.75L334.305 40.2C333.872 41.9667 333.122 43.5833 332.055 45.05C331.022 46.4833 329.655 47.6167 327.955 48.45C326.255 49.2833 324.222 49.7 321.855 49.7ZM339.502 49V14H345.802V27.25H346.702C346.969 26.7167 347.385 26.1833 347.952 25.65C348.519 25.1167 349.269 24.6833 350.202 24.35C351.169 23.9833 352.385 23.8 353.852 23.8C355.785 23.8 357.469 24.25 358.902 25.15C360.369 26.0167 361.502 27.2333 362.302 28.8C363.102 30.3333 363.502 32.1333 363.502 34.2V49H357.202V34.7C357.202 32.8333 356.735 31.4333 355.802 30.5C354.902 29.5667 353.602 29.1 351.902 29.1C349.969 29.1 348.469 29.75 347.402 31.05C346.335 32.3167 345.802 34.1 345.802 36.4V49H339.502Z" fill="#34D399"/>
<path d="M114.888 92.224C114.173 92.224 113.624 92.1013 113.24 91.856C112.856 91.6107 112.573 91.3387 112.392 91.04H112.104V92H110.12V80.8H112.136V84.976H112.424C112.541 84.784 112.696 84.6027 112.888 84.432C113.091 84.2613 113.352 84.1227 113.672 84.016C114.003 83.8987 114.408 83.84 114.888 83.84C115.528 83.84 116.12 84 116.664 84.32C117.208 84.6293 117.645 85.088 117.976 85.696C118.307 86.304 118.472 87.04 118.472 87.904V88.16C118.472 89.024 118.307 89.76 117.976 90.368C117.645 90.976 117.208 91.44 116.664 91.76C116.12 92.0693 115.528 92.224 114.888 92.224ZM114.28 90.464C114.899 90.464 115.416 90.2667 115.832 89.872C116.248 89.4667 116.456 88.88 116.456 88.112V87.952C116.456 87.184 116.248 86.6027 115.832 86.208C115.427 85.8027 114.909 85.6 114.28 85.6C113.661 85.6 113.144 85.8027 112.728 86.208C112.312 86.6027 112.104 87.184 112.104 87.952V88.112C112.104 88.88 112.312 89.4667 112.728 89.872C113.144 90.2667 113.661 90.464 114.28 90.464ZM121.187 95.2V93.44H125.507C125.806 93.44 125.955 93.28 125.955 92.96V90.96H125.667C125.582 91.1413 125.448 91.3227 125.267 91.504C125.086 91.6853 124.84 91.8347 124.531 91.952C124.222 92.0693 123.827 92.128 123.347 92.128C122.728 92.128 122.184 91.9893 121.715 91.712C121.256 91.424 120.899 91.0293 120.643 90.528C120.387 90.0267 120.259 89.4507 120.259 88.8V84.064H122.275V88.64C122.275 89.2373 122.419 89.6853 122.707 89.984C123.006 90.2827 123.427 90.432 123.971 90.432C124.59 90.432 125.07 90.2293 125.411 89.824C125.752 89.408 125.923 88.832 125.923 88.096V84.064H127.939V93.408C127.939 93.952 127.779 94.384 127.459 94.704C127.139 95.0347 126.712 95.2 126.179 95.2H121.187ZM134.181 92V80.8H138.789C139.493 80.8 140.112 80.944 140.645 81.232C141.189 81.5093 141.61 81.904 141.909 82.416C142.218 82.928 142.373 83.536 142.373 84.24V84.464C142.373 85.1573 142.213 85.7653 141.893 86.288C141.584 86.8 141.157 87.2 140.613 87.488C140.08 87.7653 139.472 87.904 138.789 87.904H136.293V92H134.181ZM136.293 85.984H138.581C139.082 85.984 139.488 85.8453 139.797 85.568C140.106 85.2907 140.261 84.912 140.261 84.432V84.272C140.261 83.792 140.106 83.4133 139.797 83.136C139.488 82.8587 139.082 82.72 138.581 82.72H136.293V85.984ZM146.209 92.224C145.644 92.224 145.137 92.128 144.689 91.936C144.241 91.7333 143.884 91.4453 143.617 91.072C143.361 90.688 143.233 90.224 143.233 89.68C143.233 89.136 143.361 88.6827 143.617 88.32C143.884 87.9467 144.246 87.6693 144.705 87.488C145.174 87.296 145.708 87.2 146.305 87.2H148.481V86.752C148.481 86.3787 148.364 86.0747 148.129 85.84C147.894 85.5947 147.521 85.472 147.009 85.472C146.508 85.472 146.134 85.5893 145.889 85.824C145.644 86.048 145.484 86.3413 145.409 86.704L143.553 86.08C143.681 85.6747 143.884 85.3067 144.161 84.976C144.449 84.6347 144.828 84.3627 145.297 84.16C145.777 83.9467 146.358 83.84 147.041 83.84C148.086 83.84 148.913 84.1013 149.521 84.624C150.129 85.1467 150.433 85.904 150.433 86.896V89.856C150.433 90.176 150.582 90.336 150.881 90.336H151.521V92H150.177C149.782 92 149.457 91.904 149.201 91.712C148.945 91.52 148.817 91.264 148.817 90.944V90.928H148.513C148.47 91.056 148.374 91.2267 148.225 91.44C148.076 91.6427 147.841 91.824 147.521 91.984C147.201 92.144 146.764 92.224 146.209 92.224ZM146.561 90.592C147.126 90.592 147.585 90.4373 147.937 90.128C148.3 89.808 148.481 89.3867 148.481 88.864V88.704H146.449C146.076 88.704 145.782 88.784 145.569 88.944C145.356 89.104 145.249 89.328 145.249 89.616C145.249 89.904 145.361 90.1387 145.585 90.32C145.809 90.5013 146.134 90.592 146.561 90.592ZM152.995 92V84.064H154.979V84.96H155.267C155.384 84.64 155.576 84.4053 155.843 84.256C156.12 84.1067 156.44 84.032 156.803 84.032H157.763V85.824H156.771C156.259 85.824 155.838 85.9627 155.507 86.24C155.176 86.5067 155.011 86.9227 155.011 87.488V92H152.995ZM161.615 92.224C161.05 92.224 160.543 92.128 160.095 91.936C159.647 91.7333 159.29 91.4453 159.023 91.072C158.767 90.688 158.639 90.224 158.639 89.68C158.639 89.136 158.767 88.6827 159.023 88.32C159.29 87.9467 159.653 87.6693 160.111 87.488C160.581 87.296 161.114 87.2 161.711 87.2H163.887V86.752C163.887 86.3787 163.77 86.0747 163.535 85.84C163.301 85.5947 162.927 85.472 162.415 85.472C161.914 85.472 161.541 85.5893 161.295 85.824C161.05 86.048 160.89 86.3413 160.815 86.704L158.959 86.08C159.087 85.6747 159.29 85.3067 159.567 84.976C159.855 84.6347 160.234 84.3627 160.703 84.16C161.183 83.9467 161.765 83.84 162.447 83.84C163.493 83.84 164.319 84.1013 164.927 84.624C165.535 85.1467 165.839 85.904 165.839 86.896V89.856C165.839 90.176 165.989 90.336 166.287 90.336H166.927V92H165.583C165.189 92 164.863 91.904 164.607 91.712C164.351 91.52 164.223 91.264 164.223 90.944V90.928H163.919C163.877 91.056 163.781 91.2267 163.631 91.44C163.482 91.6427 163.247 91.824 162.927 91.984C162.607 92.144 162.17 92.224 161.615 92.224ZM161.967 90.592C162.533 90.592 162.991 90.4373 163.343 90.128C163.706 89.808 163.887 89.3867 163.887 88.864V88.704H161.855C161.482 88.704 161.189 88.784 160.975 88.944C160.762 89.104 160.655 89.328 160.655 89.616C160.655 89.904 160.767 90.1387 160.991 90.32C161.215 90.5013 161.541 90.592 161.967 90.592ZM171.445 92.224C170.816 92.224 170.224 92.0693 169.669 91.76C169.125 91.44 168.688 90.976 168.357 90.368C168.026 89.76 167.861 89.024 167.861 88.16V87.904C167.861 87.04 168.026 86.304 168.357 85.696C168.688 85.088 169.125 84.6293 169.669 84.32C170.213 84 170.805 83.84 171.445 83.84C171.925 83.84 172.325 83.8987 172.645 84.016C172.976 84.1227 173.242 84.2613 173.445 84.432C173.648 84.6027 173.802 84.784 173.909 84.976H174.197V80.8H176.213V92H174.229V91.04H173.941C173.76 91.3387 173.477 91.6107 173.093 91.856C172.72 92.1013 172.17 92.224 171.445 92.224ZM172.053 90.464C172.672 90.464 173.189 90.2667 173.605 89.872C174.021 89.4667 174.229 88.88 174.229 88.112V87.952C174.229 87.184 174.021 86.6027 173.605 86.208C173.2 85.8027 172.682 85.6 172.053 85.6C171.434 85.6 170.917 85.8027 170.501 86.208C170.085 86.6027 169.877 87.184 169.877 87.952V88.112C169.877 88.88 170.085 89.4667 170.501 89.872C170.917 90.2667 171.434 90.464 172.053 90.464ZM182.064 92.224C181.275 92.224 180.576 92.0587 179.968 91.728C179.371 91.3867 178.901 90.912 178.56 90.304C178.229 89.6853 178.064 88.96 178.064 88.128V87.936C178.064 87.104 178.229 86.384 178.56 85.776C178.891 85.1573 179.355 84.6827 179.952 84.352C180.549 84.0107 181.243 83.84 182.032 83.84C182.811 83.84 183.488 84.016 184.064 84.368C184.64 84.7093 185.088 85.1893 185.408 85.808C185.728 86.416 185.888 87.1253 185.888 87.936V88.624H180.112C180.133 89.168 180.336 89.6107 180.72 89.952C181.104 90.2933 181.573 90.464 182.128 90.464C182.693 90.464 183.109 90.3413 183.376 90.096C183.643 89.8507 183.845 89.5787 183.984 89.28L185.632 90.144C185.483 90.4213 185.264 90.7253 184.976 91.056C184.699 91.376 184.325 91.6533 183.856 91.888C183.387 92.112 182.789 92.224 182.064 92.224ZM180.128 87.12H183.84C183.797 86.6613 183.611 86.2933 183.28 86.016C182.96 85.7387 182.539 85.6 182.016 85.6C181.472 85.6 181.04 85.7387 180.72 86.016C180.4 86.2933 180.203 86.6613 180.128 87.12ZM187.299 92V90.144H188.771V82.656H187.299V80.8H191.907C193.411 80.8 194.552 81.184 195.331 81.952C196.12 82.7093 196.515 83.84 196.515 85.344V87.456C196.515 88.96 196.12 90.096 195.331 90.864C194.552 91.6213 193.411 92 191.907 92H187.299ZM190.883 90.08H191.939C192.792 90.08 193.416 89.856 193.811 89.408C194.205 88.96 194.403 88.3307 194.403 87.52V85.28C194.403 84.4587 194.205 83.8293 193.811 83.392C193.416 82.944 192.792 82.72 191.939 82.72H190.883V90.08ZM197.595 92V90.144H199.067V82.656H197.595V80.8H203.355C204.038 80.8 204.63 80.9173 205.131 81.152C205.643 81.376 206.038 81.7013 206.315 82.128C206.603 82.544 206.747 83.0453 206.747 83.632V83.792C206.747 84.304 206.651 84.7253 206.459 85.056C206.267 85.376 206.038 85.6267 205.771 85.808C205.515 85.9787 205.27 86.1013 205.035 86.176V86.464C205.27 86.528 205.526 86.6507 205.803 86.832C206.081 87.0027 206.315 87.2533 206.507 87.584C206.71 87.9147 206.811 88.3467 206.811 88.88V89.04C206.811 89.6587 206.667 90.192 206.379 90.64C206.091 91.0773 205.691 91.4133 205.179 91.648C204.678 91.8827 204.091 92 203.419 92H197.595ZM201.179 90.08H203.163C203.622 90.08 203.99 89.968 204.267 89.744C204.555 89.52 204.699 89.2 204.699 88.784V88.624C204.699 88.208 204.561 87.888 204.283 87.664C204.006 87.44 203.633 87.328 203.163 87.328H201.179V90.08ZM201.179 85.408H203.131C203.569 85.408 203.926 85.296 204.203 85.072C204.491 84.848 204.635 84.5387 204.635 84.144V83.984C204.635 83.5787 204.497 83.2693 204.219 83.056C203.942 82.832 203.579 82.72 203.131 82.72H201.179V85.408Z" fill="#34D399" fill-opacity="0.7"/>
</svg>
