<svg width="1200" height="400" viewBox="0 0 1200 400" fill="none" xmlns="http://www.w3.org/2000/svg">
<g clip-path="url(#clip0_169_2)">
<mask id="mask0_169_2" style="mask-type:alpha" maskUnits="userSpaceOnUse" x="272" y="135" width="655" height="129">
<path d="M927 135H272V264H927V135Z" fill="#D9D9D9"/>
</mask>
<g mask="url(#mask0_169_2)">
<path d="M456.75 183.03C463.82 183.03 469.84 185.725 474.81 191.115C479.85 196.435 482.37 202.98 482.37 210.75C482.37 218.52 479.85 225.1 474.81 230.49C469.84 235.81 463.82 238.47 456.75 238.47C449.4 238.47 443.73 235.915 439.74 230.805V258H426.195V184.5H439.74V190.695C443.73 185.585 449.4 183.03 456.75 183.03ZM443.835 221.46C446.565 224.19 450.03 225.555 454.23 225.555C458.43 225.555 461.895 224.19 464.625 221.46C467.425 218.66 468.825 215.09 468.825 210.75C468.825 206.41 467.425 202.875 464.625 200.145C461.895 197.345 458.43 195.945 454.23 195.945C450.03 195.945 446.565 197.345 443.835 200.145C441.105 202.875 439.74 206.41 439.74 210.75C439.74 215.09 441.105 218.66 443.835 221.46ZM532.138 184.5H545.368V234.48C545.368 242.6 542.673 248.795 537.283 253.065C531.963 257.335 525.523 259.47 517.963 259.47C512.293 259.47 507.288 258.385 502.948 256.215C498.678 254.045 495.388 250.86 493.078 246.66L504.628 240.045C507.288 244.945 511.873 247.395 518.383 247.395C522.653 247.395 526.013 246.275 528.463 244.035C530.913 241.795 532.138 238.61 532.138 234.48V228.81C528.148 234.13 522.548 236.79 515.338 236.79C507.918 236.79 501.688 234.2 496.648 229.02C491.678 223.77 489.193 217.4 489.193 209.91C489.193 202.49 491.713 196.155 496.753 190.905C501.793 185.655 507.988 183.03 515.338 183.03C522.548 183.03 528.148 185.69 532.138 191.01V184.5ZM506.833 220.305C509.633 222.965 513.168 224.295 517.438 224.295C521.708 224.295 525.208 222.965 527.938 220.305C530.738 217.575 532.138 214.11 532.138 209.91C532.138 205.78 530.738 202.385 527.938 199.725C525.208 196.995 521.708 195.63 517.438 195.63C513.168 195.63 509.633 196.995 506.833 199.725C504.103 202.385 502.738 205.78 502.738 209.91C502.738 214.11 504.103 217.575 506.833 220.305ZM554.92 254.955V241.935H602.695V254.955H554.92ZM621.415 199.41C621.415 200.81 622.325 201.965 624.145 202.875C626.035 203.715 628.31 204.485 630.97 205.185C633.63 205.815 636.29 206.655 638.95 207.705C641.61 208.685 643.85 210.365 645.67 212.745C647.56 215.125 648.505 218.1 648.505 221.67C648.505 227.06 646.475 231.225 642.415 234.165C638.425 237.035 633.42 238.47 627.4 238.47C616.62 238.47 609.27 234.305 605.35 225.975L617.11 219.36C618.65 223.91 622.08 226.185 627.4 226.185C632.23 226.185 634.645 224.68 634.645 221.67C634.645 220.27 633.7 219.15 631.81 218.31C629.99 217.4 627.75 216.595 625.09 215.895C622.43 215.195 619.77 214.32 617.11 213.27C614.45 212.22 612.175 210.575 610.285 208.335C608.465 206.025 607.555 203.155 607.555 199.725C607.555 194.545 609.445 190.485 613.225 187.545C617.075 184.535 621.835 183.03 627.505 183.03C631.775 183.03 635.66 184.01 639.16 185.97C642.66 187.86 645.425 190.59 647.455 194.16L635.905 200.46C634.225 196.89 631.425 195.105 627.505 195.105C625.755 195.105 624.285 195.49 623.095 196.26C621.975 197.03 621.415 198.08 621.415 199.41ZM667.943 216.315C669.763 222.895 674.698 226.185 682.748 226.185C687.928 226.185 691.848 224.435 694.508 220.935L705.428 227.235C700.248 234.725 692.618 238.47 682.538 238.47C673.858 238.47 666.893 235.845 661.643 230.595C656.393 225.345 653.768 218.73 653.768 210.75C653.768 202.84 656.358 196.26 661.538 191.01C666.718 185.69 673.368 183.03 681.488 183.03C689.188 183.03 695.523 185.69 700.493 191.01C705.533 196.33 708.053 202.91 708.053 210.75C708.053 212.5 707.878 214.355 707.528 216.315H667.943ZM667.733 205.815H694.508C693.738 202.245 692.128 199.585 689.678 197.835C687.298 196.085 684.568 195.21 681.488 195.21C677.848 195.21 674.838 196.155 672.458 198.045C670.078 199.865 668.503 202.455 667.733 205.815ZM756.998 184.5H770.543V237H756.998V230.805C752.938 235.915 747.233 238.47 739.883 238.47C732.883 238.47 726.863 235.81 721.823 230.49C716.853 225.1 714.368 218.52 714.368 210.75C714.368 202.98 716.853 196.435 721.823 191.115C726.863 185.725 732.883 183.03 739.883 183.03C747.233 183.03 752.938 185.585 756.998 190.695V184.5ZM732.008 221.46C734.738 224.19 738.203 225.555 742.403 225.555C746.603 225.555 750.068 224.19 752.798 221.46C755.598 218.66 756.998 215.09 756.998 210.75C756.998 206.41 755.598 202.875 752.798 200.145C750.068 197.345 746.603 195.945 742.403 195.945C738.203 195.945 734.738 197.345 732.008 200.145C729.278 202.875 727.913 206.41 727.913 210.75C727.913 215.09 729.278 218.66 732.008 221.46ZM796.371 193.53C797.631 190.17 799.696 187.65 802.566 185.97C805.506 184.29 808.761 183.45 812.331 183.45V198.57C808.201 198.08 804.491 198.92 801.201 201.09C797.981 203.26 796.371 206.865 796.371 211.905V237H782.826V184.5H796.371V193.53ZM843.294 238.47C835.384 238.47 828.769 235.81 823.449 230.49C818.199 225.17 815.574 218.59 815.574 210.75C815.574 202.91 818.199 196.33 823.449 191.01C828.769 185.69 835.384 183.03 843.294 183.03C848.404 183.03 853.059 184.255 857.259 186.705C861.459 189.155 864.644 192.445 866.814 196.575L855.159 203.4C854.109 201.23 852.499 199.515 850.329 198.255C848.229 196.995 845.849 196.365 843.189 196.365C839.129 196.365 835.769 197.73 833.109 200.46C830.449 203.12 829.119 206.55 829.119 210.75C829.119 214.88 830.449 218.31 833.109 221.04C835.769 223.7 839.129 225.03 843.189 225.03C845.919 225.03 848.334 224.435 850.434 223.245C852.604 221.985 854.214 220.27 855.264 218.1L867.024 224.82C864.714 228.95 861.459 232.275 857.259 234.795C853.059 237.245 848.404 238.47 843.294 238.47ZM903.378 183.03C909.118 183.03 913.843 184.955 917.553 188.805C921.333 192.655 923.223 197.975 923.223 204.765V237H909.678V206.445C909.678 202.945 908.733 200.285 906.843 198.465C904.953 196.575 902.433 195.63 899.283 195.63C895.783 195.63 892.983 196.715 890.883 198.885C888.783 201.055 887.733 204.31 887.733 208.65V237H874.188V163.5H887.733V190.38C891.023 185.48 896.238 183.03 903.378 183.03Z" fill="#4F46E5"/>
<path fill-rule="evenodd" clip-rule="evenodd" d="M341.209 163H321.478V237.312H341.209V163Z" fill="#4F46E5"/>
<path fill-rule="evenodd" clip-rule="evenodd" d="M318.471 163H298.739V237.312H318.471V163Z" fill="#4F46E5"/>
<path fill-rule="evenodd" clip-rule="evenodd" d="M295.732 163H276V237.312H295.732V163Z" fill="#4F46E5"/>
<path fill-rule="evenodd" clip-rule="evenodd" d="M344.217 163.006V211.117C344.217 218.083 346.982 224.702 351.905 229.626C356.827 234.548 363.447 237.314 370.413 237.314H381.947V217.582H370.413C368.696 217.582 367.067 216.887 365.855 215.675C364.644 214.464 363.948 212.835 363.948 211.117V183.203C363.948 172.25 355.112 163.259 344.217 163.007V163.006Z" fill="#4F46E5"/>
</g>
</g>
<defs>
<clipPath id="clip0_169_2">
<rect width="655" height="129" fill="white" transform="translate(272 135)"/>
</clipPath>
</defs>
</svg>
