<svg width="276" height="276" viewBox="0 0 276 276" fill="none" xmlns="http://www.w3.org/2000/svg">
<path d="M0 70C0 31.3401 31.3401 0 70 0H206C244.66 0 276 31.3401 276 70V206C276 244.66 244.66 276 206 276H70C31.3401 276 0 244.66 0 206V70Z" fill="#34D399" fill-opacity="0.05"/>
<path d="M70 1.5H206C243.831 1.5 274.5 32.1685 274.5 70V206C274.5 243.831 243.831 274.5 206 274.5H70C32.1685 274.5 1.5 243.831 1.5 206V70C1.5 32.1685 32.1685 1.5 70 1.5Z" stroke="#34D399" stroke-opacity="0.25" stroke-width="3"/>
<path d="M88.3633 69.0312H137.494C147.279 69.0312 155.746 70.4961 162.895 73.4258C170.102 76.3555 175.639 80.6914 179.506 86.4336C183.373 92.1758 185.307 99.2656 185.307 107.703C185.307 114.734 184.164 120.711 181.879 125.633C179.594 130.555 176.371 134.627 172.211 137.85C168.109 141.072 163.305 143.68 157.797 145.672L148.48 150.77H106.645L106.469 128.533H137.582C141.859 128.533 145.404 127.771 148.217 126.248C151.029 124.725 153.139 122.586 154.545 119.832C156.01 117.02 156.742 113.738 156.742 109.988C156.742 106.121 156.01 102.781 154.545 99.9688C153.08 97.1562 150.912 95.0176 148.041 93.5527C145.229 92.0293 141.713 91.2676 137.494 91.2676H117.016V197H88.3633V69.0312ZM159.203 197L130.463 140.135L160.697 140.047L189.877 195.682V197H159.203Z" fill="#34D399" fill-opacity="0.8"/>
<path d="M0 206C-8.03636e-07 215.193 1.8106 224.295 5.32843 232.788C8.84626 241.281 14.0024 248.997 20.5025 255.497C27.0026 261.998 34.7194 267.154 43.2122 270.672C51.7049 274.189 60.8075 276 70 276L70 262C62.646 262 55.364 260.552 48.5697 257.737C41.7755 254.923 35.6021 250.798 30.402 245.598C25.2019 240.398 21.077 234.225 18.2627 227.43C15.4485 220.636 14 213.354 14 206L0 206Z" fill="#34D399" fill-opacity="0.8"/>
<path d="M276 70C276 60.8075 274.189 51.705 270.672 43.2122C267.154 34.7194 261.998 27.0026 255.497 20.5025C248.997 14.0024 241.281 8.84626 232.788 5.32843C224.295 1.8106 215.193 4.01818e-07 206 0L206 14C213.354 14 220.636 15.4485 227.43 18.2627C234.225 21.077 240.398 25.2019 245.598 30.402C250.798 35.6021 254.923 41.7755 257.737 48.5697C260.552 55.364 262 62.646 262 70L276 70Z" fill="#34D399" fill-opacity="0.8"/>
<path d="M70 0C60.8075 -8.03636e-07 51.705 1.8106 43.2122 5.32843C34.7194 8.84626 27.0026 14.0024 20.5025 20.5025C14.0024 27.0026 8.84626 34.7194 5.32843 43.2122C1.8106 51.7049 4.01818e-07 60.8075 0 70L14 70C14 62.646 15.4485 55.364 18.2627 48.5697C21.077 41.7755 25.2019 35.6021 30.402 30.402C35.6021 25.2019 41.7755 21.077 48.5697 18.2627C55.364 15.4485 62.646 14 70 14L70 0Z" fill="#34D399" fill-opacity="0.8"/>
<path d="M206 275C215.193 275 224.295 273.189 232.788 269.672C241.281 266.154 248.997 260.998 255.497 254.497C261.998 247.997 267.154 240.281 270.672 231.788C274.189 223.295 276 214.193 276 205L262 205C262 212.354 260.552 219.636 257.737 226.43C254.923 233.225 250.798 239.398 245.598 244.598C240.398 249.798 234.225 253.923 227.43 256.737C220.636 259.552 213.354 261 206 261L206 275Z" fill="#34D399" fill-opacity="0.8"/>
</svg>
