<svg width="368" height="77" viewBox="0 0 368 77" fill="none" xmlns="http://www.w3.org/2000/svg">
<mask id="mask0_51_8" style="mask-type:alpha" maskUnits="userSpaceOnUse" x="16" y="11" width="45" height="65">
<path d="M16 11H60.7171V76H29.5L16 11Z" fill="#D9D9D9"/>
</mask>
<g mask="url(#mask0_51_8)">
<path d="M7.83171 70.0571C7.60977 70.5744 7.40622 71.0576 7.22248 71.4999H2.89723C3.31315 68.4041 3.91204 64.1721 4.64509 59.6159C6.14679 50.282 8.11112 40.2716 10.0637 35.5039C12.1107 30.5054 14.9686 25.5768 18.3768 21.9756C21.7941 18.3647 25.3757 16.4701 29 16.4701C32.7676 16.4701 36.0995 18.1399 39.1845 21.4198C42.3378 24.7723 45.0453 29.6361 47.2784 35.4194C49.4388 41.0145 51.5622 51.1432 53.1716 60.2314C53.9384 64.5616 54.57 68.5438 55.0175 71.4999H50.7775C50.5938 71.0576 50.3902 70.5744 50.1683 70.0571C49.0634 67.4817 47.4839 64.0176 45.6054 60.5276C43.7483 57.0772 41.4977 53.4099 39.0161 50.5438C36.764 47.9429 33.3276 44.8208 29 44.8208C24.6724 44.8208 21.236 47.9429 18.9839 50.5438C16.5023 53.4099 14.2517 57.0772 12.3946 60.5276C10.5161 64.0176 8.93665 67.4817 7.83171 70.0571Z" stroke="#34D399" stroke-width="9"/>
</g>
<mask id="mask1_51_8" style="mask-type:alpha" maskUnits="userSpaceOnUse" x="0" y="0" width="37" height="76">
<rect width="36.5" height="76" fill="#D9D9D9"/>
</mask>
<g mask="url(#mask1_51_8)">
<path d="M-23.9164 69.878C-24.2197 70.4673 -24.4938 71.0114 -24.7361 71.5H-31.3902C-31.3535 71.2238 -31.3154 70.9383 -31.2758 70.6439C-30.7889 67.019 -30.0874 62.0612 -29.2284 56.7223C-27.4757 45.8287 -25.168 34.0329 -22.8457 28.3621C-20.6871 23.0914 -17.8255 20.4913 -14.4514 19.0275C-10.8014 17.4439 -6.13591 17 0 17C6.48134 17 10.6936 17.0634 14.042 18.4283C16.9165 19.6 19.6536 21.9883 22.0821 28.2777C24.6387 34.8989 27.1319 46.813 29.0121 57.4302C29.9389 62.6641 30.6969 67.4633 31.2233 70.9549C31.2513 71.1403 31.2786 71.3221 31.3052 71.5H24.7361C24.4938 71.0114 24.2197 70.4673 23.9164 69.878C22.6197 67.3588 20.7665 63.9714 18.5628 60.5588C16.3806 57.1796 13.7451 53.6033 10.8542 50.8205C8.11321 48.182 4.36919 45.5 0 45.5C-4.36919 45.5 -8.11321 48.182 -10.8542 50.8205C-13.7451 53.6033 -16.3806 57.1796 -18.5628 60.5588C-20.7665 63.9714 -22.6197 67.3588 -23.9164 69.878Z" stroke="#34D399" stroke-width="9"/>
<rect y="14" width="9" height="35" fill="#34D399"/>
</g>
<mask id="mask2_51_8" style="mask-type:alpha" maskUnits="userSpaceOnUse" x="33" y="11" width="76" height="66">
<path d="M33.5 12.5L108.868 11V77H70.859L53 51L42 23.4426L33.5 12.5Z" fill="#D9D9D9"/>
</mask>
<g mask="url(#mask2_51_8)">
<path d="M25.3944 72.5C25.3979 72.4733 25.4015 72.4464 25.4051 72.4194C25.8217 69.2747 26.422 64.974 27.1568 60.3433C28.6603 50.8685 30.6292 40.6899 32.5904 35.8346C34.6441 30.7502 37.5112 25.7371 40.9301 22.0744C44.3614 18.3984 47.9444 16.4851 51.5526 16.4851C55.3048 16.4851 58.6378 18.1707 61.7358 21.5101C64.9005 24.9215 67.6171 29.8702 69.8568 35.7509C71.5251 40.1315 74.9985 43.2308 78.6101 45.4116C82.2523 47.6108 86.453 49.1322 90.2868 50.1931C90.5355 50.262 90.7835 50.3291 91.0304 50.3945L84.2582 53.7343C83.6542 53.525 82.916 53.2715 82.0694 52.9851C79.6298 52.1598 76.2788 51.0574 72.6434 49.9529C69.0164 48.8509 65.0604 47.7329 61.4216 46.8863C57.8821 46.0628 54.2947 45.4105 51.5526 45.4105C49.2833 45.4105 47.3065 46.2843 45.7375 47.33C44.1627 48.3797 42.7492 49.7661 41.5068 51.2208C39.0256 54.1262 36.7747 57.8447 34.9164 61.3452C33.0368 64.8858 31.4563 68.4004 30.3504 71.0136C30.1246 71.5473 29.9178 72.0452 29.7316 72.5H25.3944Z" stroke="#34D399" stroke-width="9"/>
</g>
<path d="M138.3 61V26H152.7C154.9 26 156.833 26.45 158.5 27.35C160.2 28.2167 161.517 29.45 162.45 31.05C163.417 32.65 163.9 34.55 163.9 36.75V37.45C163.9 39.6167 163.4 41.5167 162.4 43.15C161.433 44.75 160.1 46 158.4 46.9C156.733 47.7667 154.833 48.2 152.7 48.2H144.9V61H138.3ZM144.9 42.2H152.05C153.617 42.2 154.883 41.7667 155.85 40.9C156.817 40.0333 157.3 38.85 157.3 37.35V36.85C157.3 35.35 156.817 34.1667 155.85 33.3C154.883 32.4333 153.617 32 152.05 32H144.9V42.2ZM175.936 61.7C174.17 61.7 172.586 61.4 171.186 60.8C169.786 60.1667 168.67 59.2667 167.836 58.1C167.036 56.9 166.636 55.45 166.636 53.75C166.636 52.05 167.036 50.6333 167.836 49.5C168.67 48.3333 169.803 47.4667 171.236 46.9C172.703 46.3 174.37 46 176.236 46H183.036V44.6C183.036 43.4333 182.67 42.4833 181.936 41.75C181.203 40.9833 180.036 40.6 178.436 40.6C176.87 40.6 175.703 40.9667 174.936 41.7C174.17 42.4 173.67 43.3167 173.436 44.45L167.636 42.5C168.036 41.2333 168.67 40.0833 169.536 39.05C170.436 37.9833 171.62 37.1333 173.086 36.5C174.586 35.8333 176.403 35.5 178.536 35.5C181.803 35.5 184.386 36.3167 186.286 37.95C188.186 39.5833 189.136 41.95 189.136 45.05V54.3C189.136 55.3 189.603 55.8 190.536 55.8H192.536V61H188.336C187.103 61 186.086 60.7 185.286 60.1C184.486 59.5 184.086 58.7 184.086 57.7V57.65H183.136C183.003 58.05 182.703 58.5833 182.236 59.25C181.77 59.8833 181.036 60.45 180.036 60.95C179.036 61.45 177.67 61.7 175.936 61.7ZM177.036 56.6C178.803 56.6 180.236 56.1167 181.336 55.15C182.47 54.15 183.036 52.8333 183.036 51.2V50.7H176.686C175.52 50.7 174.603 50.95 173.936 51.45C173.27 51.95 172.936 52.65 172.936 53.55C172.936 54.45 173.286 55.1833 173.986 55.75C174.686 56.3167 175.703 56.6 177.036 56.6ZM197.143 61V36.2H203.343V39H204.243C204.609 38 205.209 37.2667 206.043 36.8C206.909 36.3333 207.909 36.1 209.043 36.1H212.043V41.7H208.943C207.343 41.7 206.026 42.1333 204.993 43C203.959 43.8333 203.443 45.1333 203.443 46.9V61H197.143ZM224.081 61.7C222.314 61.7 220.731 61.4 219.331 60.8C217.931 60.1667 216.814 59.2667 215.981 58.1C215.181 56.9 214.781 55.45 214.781 53.75C214.781 52.05 215.181 50.6333 215.981 49.5C216.814 48.3333 217.948 47.4667 219.381 46.9C220.848 46.3 222.514 46 224.381 46H231.181V44.6C231.181 43.4333 230.814 42.4833 230.081 41.75C229.348 40.9833 228.181 40.6 226.581 40.6C225.014 40.6 223.848 40.9667 223.081 41.7C222.314 42.4 221.814 43.3167 221.581 44.45L215.781 42.5C216.181 41.2333 216.814 40.0833 217.681 39.05C218.581 37.9833 219.764 37.1333 221.231 36.5C222.731 35.8333 224.548 35.5 226.681 35.5C229.948 35.5 232.531 36.3167 234.431 37.95C236.331 39.5833 237.281 41.95 237.281 45.05V54.3C237.281 55.3 237.748 55.8 238.681 55.8H240.681V61H236.481C235.248 61 234.231 60.7 233.431 60.1C232.631 59.5 232.231 58.7 232.231 57.7V57.65H231.281C231.148 58.05 230.848 58.5833 230.381 59.25C229.914 59.8833 229.181 60.45 228.181 60.95C227.181 61.45 225.814 61.7 224.081 61.7ZM225.181 56.6C226.948 56.6 228.381 56.1167 229.481 55.15C230.614 54.15 231.181 52.8333 231.181 51.2V50.7H224.831C223.664 50.7 222.748 50.95 222.081 51.45C221.414 51.95 221.081 52.65 221.081 53.55C221.081 54.45 221.431 55.1833 222.131 55.75C222.831 56.3167 223.848 56.6 225.181 56.6ZM254.799 61.7C252.832 61.7 250.982 61.2167 249.249 60.25C247.549 59.25 246.182 57.8 245.149 55.9C244.115 54 243.599 51.7 243.599 49V48.2C243.599 45.5 244.115 43.2 245.149 41.3C246.182 39.4 247.549 37.9667 249.249 37C250.949 36 252.799 35.5 254.799 35.5C256.299 35.5 257.549 35.6833 258.549 36.05C259.582 36.3833 260.415 36.8167 261.049 37.35C261.682 37.8833 262.165 38.45 262.499 39.05H263.399V26H269.699V61H263.499V58H262.599C262.032 58.9333 261.149 59.7833 259.949 60.55C258.782 61.3167 257.065 61.7 254.799 61.7ZM256.699 56.2C258.632 56.2 260.249 55.5833 261.549 54.35C262.849 53.0833 263.499 51.25 263.499 48.85V48.35C263.499 45.95 262.849 44.1333 261.549 42.9C260.282 41.6333 258.665 41 256.699 41C254.765 41 253.149 41.6333 251.849 42.9C250.549 44.1333 249.899 45.95 249.899 48.35V48.85C249.899 51.25 250.549 53.0833 251.849 54.35C253.149 55.5833 254.765 56.2 256.699 56.2ZM287.984 61.7C285.517 61.7 283.334 61.1833 281.434 60.15C279.567 59.0833 278.1 57.6 277.034 55.7C276 53.7667 275.484 51.5 275.484 48.9V48.3C275.484 45.7 276 43.45 277.034 41.55C278.067 39.6167 279.517 38.1333 281.384 37.1C283.25 36.0333 285.417 35.5 287.884 35.5C290.317 35.5 292.434 36.05 294.234 37.15C296.034 38.2167 297.434 39.7167 298.434 41.65C299.434 43.55 299.934 45.7667 299.934 48.3V50.45H281.884C281.95 52.15 282.584 53.5333 283.784 54.6C284.984 55.6667 286.45 56.2 288.184 56.2C289.95 56.2 291.25 55.8167 292.084 55.05C292.917 54.2833 293.55 53.4333 293.984 52.5L299.134 55.2C298.667 56.0667 297.984 57.0167 297.084 58.05C296.217 59.05 295.05 59.9167 293.584 60.65C292.117 61.35 290.25 61.7 287.984 61.7ZM281.934 45.75H293.534C293.4 44.3167 292.817 43.1667 291.784 42.3C290.784 41.4333 289.467 41 287.834 41C286.134 41 284.784 41.4333 283.784 42.3C282.784 43.1667 282.167 44.3167 281.934 45.75ZM304.341 61V55.2H308.941V31.8H304.341V26H318.741C323.441 26 327.008 27.2 329.441 29.6C331.908 31.9667 333.141 35.5 333.141 40.2V46.8C333.141 51.5 331.908 55.05 329.441 57.45C327.008 59.8167 323.441 61 318.741 61H304.341ZM315.541 55H318.841C321.508 55 323.458 54.3 324.691 52.9C325.924 51.5 326.541 49.5333 326.541 47V40C326.541 37.4333 325.924 35.4667 324.691 34.1C323.458 32.7 321.508 32 318.841 32H315.541V55ZM336.519 61V55.2H341.119V31.8H336.519V26H354.519C356.652 26 358.502 26.3667 360.069 27.1C361.669 27.8 362.902 28.8167 363.769 30.15C364.669 31.45 365.119 33.0167 365.119 34.85V35.35C365.119 36.95 364.819 38.2667 364.219 39.3C363.619 40.3 362.902 41.0833 362.069 41.65C361.269 42.1833 360.502 42.5667 359.769 42.8V43.7C360.502 43.9 361.302 44.2833 362.169 44.85C363.035 45.3833 363.769 46.1667 364.369 47.2C365.002 48.2333 365.319 49.5833 365.319 51.25V51.75C365.319 53.6833 364.869 55.35 363.969 56.75C363.069 58.1167 361.819 59.1667 360.219 59.9C358.652 60.6333 356.819 61 354.719 61H336.519ZM347.719 55H353.919C355.352 55 356.502 54.65 357.369 53.95C358.269 53.25 358.719 52.25 358.719 50.95V50.45C358.719 49.15 358.285 48.15 357.419 47.45C356.552 46.75 355.385 46.4 353.919 46.4H347.719V55ZM347.719 40.4H353.819C355.185 40.4 356.302 40.05 357.169 39.35C358.069 38.65 358.519 37.6833 358.519 36.45V35.95C358.519 34.6833 358.085 33.7167 357.219 33.05C356.352 32.35 355.219 32 353.819 32H347.719V40.4Z" fill="#F5F5F5"/>
</svg>
