<svg width="276" height="276" viewBox="0 0 276 276" fill="none" xmlns="http://www.w3.org/2000/svg">
<path d="M0 0H276V276H0V0Z" fill="#34D399" fill-opacity="0.15"/>
<path d="M121.029 95.72V130.28C121.029 131.36 121.509 131.9 122.469 131.9H131.109C139.509 131.9 145.929 130.16 150.369 126.68C154.809 123.08 157.029 118.1 157.029 111.74C157.029 99.26 148.809 93.02 132.369 93.02C128.649 93.02 125.409 93.26 122.649 93.74C121.569 93.98 121.029 94.64 121.029 95.72ZM101.229 203C98.4691 203 96.0691 201.98 94.0291 199.94C91.9891 197.9 90.9691 195.5 90.9691 192.74V82.76C90.9691 79.76 91.9291 77.18 93.8491 75.02C95.8891 72.86 98.3491 71.66 101.229 71.42C111.909 70.34 122.889 69.8 134.169 69.8C152.169 69.8 165.549 73.22 174.309 80.06C183.189 86.78 187.629 96.38 187.629 108.86C187.629 116.9 185.289 124.16 180.609 130.64C175.929 137 169.809 141.56 162.249 144.32C162.129 144.32 162.069 144.38 162.069 144.5C162.069 144.74 162.189 144.86 162.429 144.86C168.309 148.22 173.289 155.3 177.369 166.1L187.629 193.46C188.469 195.74 188.169 197.9 186.729 199.94C185.289 201.98 183.369 203 180.969 203H169.989C166.869 203 164.049 202.1 161.529 200.3C159.009 198.5 157.269 196.16 156.309 193.28L147.309 167.36C145.629 162.32 143.589 158.9 141.189 157.1C138.789 155.3 135.069 154.4 130.029 154.4H122.469C121.509 154.4 121.029 154.94 121.029 156.02V192.74C121.029 195.5 120.009 197.9 117.969 199.94C115.929 201.98 113.529 203 110.769 203H101.229Z" fill="#34D399"/>
<path d="M10 70V10H70" stroke="#34D399" stroke-width="20"/>
<path d="M206 10L266 10V70" stroke="#34D399" stroke-width="20"/>
<path d="M266 206V266H206" stroke="#34D399" stroke-width="20"/>
<path d="M70 266H10L10 206" stroke="#34D399" stroke-width="20"/>
</svg>
