<svg width="1600" height="400" viewBox="0 0 1600 400" fill="none" xmlns="http://www.w3.org/2000/svg">
<rect width="1600" height="400" fill="#F1F5F9"/>
<g clip-path="url(#clip0_182_56)">
<mask id="mask0_182_56" style="mask-type:alpha" maskUnits="userSpaceOnUse" x="550" y="168" width="500" height="65">
<path d="M1050 168H550V232.163H1050V168Z" fill="#D9D9D9"/>
</mask>
<g mask="url(#mask0_182_56)">
<path d="M692.59 171.521C698.122 171.521 702.778 173.383 706.557 177.108C710.337 180.832 712.226 185.406 712.226 190.829C712.226 196.251 710.337 200.825 706.557 204.549C702.778 208.274 698.122 210.136 692.59 210.136H682.485V229.033H671.146V171.521H692.59ZM692.59 199.537C695 199.537 696.999 198.716 698.588 197.073C700.176 195.375 700.97 193.293 700.97 190.829C700.97 188.309 700.176 186.228 698.588 184.584C696.999 182.941 695 182.12 692.59 182.12H682.485V199.537H692.59ZM747.607 187.953H758.206V229.033H747.607V224.185C744.431 228.184 739.967 230.183 734.215 230.183C728.738 230.183 724.028 228.102 720.084 223.939C716.195 219.721 714.251 214.573 714.251 208.493C714.251 202.413 716.195 197.292 720.084 193.129C724.028 188.911 728.738 186.803 734.215 186.803C739.967 186.803 744.431 188.802 747.607 192.8V187.953ZM728.053 216.873C730.19 219.009 732.901 220.077 736.187 220.077C739.474 220.077 742.185 219.009 744.321 216.873C746.512 214.682 747.607 211.889 747.607 208.493C747.607 205.097 746.512 202.331 744.321 200.195C742.185 198.004 739.474 196.908 736.187 196.908C732.901 196.908 730.19 198.004 728.053 200.195C725.917 202.331 724.849 205.097 724.849 208.493C724.849 211.889 725.917 214.682 728.053 216.873ZM778.416 195.019C779.402 192.39 781.017 190.418 783.263 189.103C785.564 187.789 788.11 187.131 790.904 187.131V198.962C787.672 198.579 784.769 199.236 782.195 200.934C779.675 202.632 778.416 205.453 778.416 209.397V229.033H767.817V187.953H778.416V195.019ZM826.798 187.953H837.397V229.033H826.798V224.185C823.621 228.184 819.157 230.183 813.406 230.183C807.929 230.183 803.218 228.102 799.275 223.939C795.386 219.721 793.441 214.573 793.441 208.493C793.441 202.413 795.386 197.292 799.275 193.129C803.218 188.911 807.929 186.803 813.406 186.803C819.157 186.803 823.621 188.802 826.798 192.8V187.953ZM807.244 216.873C809.38 219.009 812.092 220.077 815.378 220.077C818.664 220.077 821.376 219.009 823.512 216.873C825.703 214.682 826.798 211.889 826.798 208.493C826.798 205.097 825.703 202.331 823.512 200.195C821.376 198.004 818.664 196.908 815.378 196.908C812.092 196.908 809.38 198.004 807.244 200.195C805.108 202.331 804.04 205.097 804.04 208.493C804.04 211.889 805.108 214.682 807.244 216.873ZM878.146 171.521H888.745V229.033H878.146V224.185C875.024 228.184 870.588 230.183 864.837 230.183C859.305 230.183 854.567 228.102 850.623 223.939C846.734 219.721 844.79 214.573 844.79 208.493C844.79 202.413 846.734 197.292 850.623 193.129C854.567 188.911 859.305 186.803 864.837 186.803C870.588 186.803 875.024 188.802 878.146 192.8V171.521ZM858.593 216.873C860.783 219.009 863.522 220.077 866.808 220.077C870.095 220.077 872.806 219.009 874.942 216.873C877.078 214.682 878.146 211.889 878.146 208.493C878.146 205.097 877.078 202.331 874.942 200.195C872.806 198.004 870.095 196.908 866.808 196.908C863.522 196.908 860.783 198.004 858.593 200.195C856.456 202.331 855.388 205.097 855.388 208.493C855.388 211.889 856.456 214.682 858.593 216.873ZM907.393 212.847C908.817 217.996 912.679 220.57 918.977 220.57C923.031 220.57 926.098 219.201 928.179 216.462L936.724 221.392C932.671 227.253 926.7 230.183 918.813 230.183C912.021 230.183 906.571 228.129 902.463 224.021C898.355 219.913 896.301 214.737 896.301 208.493C896.301 202.303 898.328 197.155 902.381 193.047C906.434 188.884 911.638 186.803 917.992 186.803C924.017 186.803 928.974 188.884 932.862 193.047C936.806 197.21 938.778 202.358 938.778 208.493C938.778 209.862 938.641 211.314 938.367 212.847H907.393ZM907.229 204.631H928.179C927.577 201.838 926.317 199.757 924.4 198.387C922.538 197.018 920.402 196.333 917.992 196.333C915.143 196.333 912.788 197.073 910.926 198.552C909.064 199.976 907.831 202.002 907.229 204.631ZM969.51 171.521C977.398 171.521 983.97 174.287 989.229 179.819C994.542 185.351 997.198 192.17 997.198 200.277C997.198 208.383 994.542 215.203 989.229 220.735C983.97 226.267 977.398 229.033 969.51 229.033H946.67V171.521H969.51ZM969.51 218.188C974.495 218.188 978.548 216.544 981.67 213.258C984.792 209.917 986.353 205.59 986.353 200.277C986.353 194.964 984.792 190.664 981.67 187.378C978.548 184.037 974.495 182.366 969.51 182.366H958.008V218.188H969.51ZM1039.99 199.209C1045.03 202.112 1047.55 206.494 1047.55 212.354C1047.55 217.229 1045.83 221.228 1042.38 224.35C1038.93 227.472 1034.68 229.033 1029.64 229.033H1005.24V171.521H1027.92C1032.85 171.521 1036.98 173.055 1040.32 176.122C1043.72 179.134 1045.42 182.996 1045.42 187.706C1045.42 192.472 1043.61 196.306 1039.99 199.209ZM1027.92 182.12H1016.58V194.772H1027.92C1029.67 194.772 1031.12 194.17 1032.27 192.965C1033.48 191.76 1034.08 190.253 1034.08 188.446C1034.08 186.638 1033.5 185.132 1032.35 183.927C1031.2 182.722 1029.72 182.12 1027.92 182.12ZM1029.64 218.434C1031.56 218.434 1033.15 217.804 1034.41 216.544C1035.67 215.23 1036.3 213.587 1036.3 211.615C1036.3 209.698 1035.67 208.109 1034.41 206.85C1033.15 205.535 1031.56 204.878 1029.64 204.878H1016.58V218.434H1029.64Z" fill="#1E1B4B"/>
<path fill-rule="evenodd" clip-rule="evenodd" d="M604.154 171.13H588.715V229.277H604.154V171.13Z" fill="#4F46E5"/>
<path fill-rule="evenodd" clip-rule="evenodd" d="M586.362 171.13H570.923V229.277H586.362V171.13Z" fill="#4F46E5"/>
<path fill-rule="evenodd" clip-rule="evenodd" d="M568.569 171.13H553.13V229.277H568.569V171.13Z" fill="#4F46E5"/>
<path fill-rule="evenodd" clip-rule="evenodd" d="M606.508 171.135V208.78C606.508 214.231 608.672 219.41 612.523 223.263C616.375 227.115 621.555 229.278 627.006 229.278H636.031V213.839H627.006C625.662 213.839 624.387 213.295 623.439 212.347C622.491 211.399 621.947 210.124 621.947 208.78V186.938C621.947 178.368 615.033 171.332 606.508 171.136V171.135Z" fill="#4F46E5"/>
</g>
</g>
<defs>
<clipPath id="clip0_182_56">
<rect width="500" height="64.1628" fill="white" transform="translate(550 168)"/>
</clipPath>
</defs>
</svg>
