<svg width="1600" height="300" viewBox="0 0 1600 300" fill="none" xmlns="http://www.w3.org/2000/svg">
<rect width="1600" height="300" fill="#F1F5F9"/>
<g clip-path="url(#clip0_182_56)">
<mask id="mask0_182_56" style="mask-type:alpha" maskUnits="userSpaceOnUse" x="687" y="136" width="225" height="29">
<path d="M912 136H687V164.873H912V136Z" fill="#D9D9D9"/>
</mask>
<g mask="url(#mask0_182_56)">
<path d="M751.166 137.585C753.655 137.585 755.75 138.423 757.451 140.099C759.152 141.775 760.002 143.833 760.002 146.273C760.002 148.713 759.152 150.772 757.451 152.448C755.75 154.124 753.655 154.962 751.166 154.962H746.618V163.465H741.516V137.585H751.166ZM751.166 150.192C752.25 150.192 753.15 149.823 753.865 149.083C754.579 148.319 754.937 147.383 754.937 146.273C754.937 145.14 754.579 144.203 753.865 143.463C753.15 142.724 752.25 142.354 751.166 142.354H746.618V150.192H751.166ZM775.924 144.979H780.693V163.465H775.924V161.284C774.494 163.083 772.485 163.983 769.897 163.983C767.432 163.983 765.313 163.046 763.538 161.173C761.788 159.275 760.913 156.958 760.913 154.222C760.913 151.486 761.788 149.182 763.538 147.309C765.313 145.411 767.432 144.462 769.897 144.462C772.485 144.462 774.494 145.361 775.924 147.161V144.979ZM767.124 157.993C768.085 158.955 769.306 159.435 770.784 159.435C772.263 159.435 773.483 158.955 774.445 157.993C775.431 157.008 775.924 155.75 775.924 154.222C775.924 152.694 775.431 151.449 774.445 150.488C773.483 149.502 772.263 149.009 770.784 149.009C769.306 149.009 768.085 149.502 767.124 150.488C766.163 151.449 765.682 152.694 765.682 154.222C765.682 155.75 766.163 157.008 767.124 157.993ZM789.787 148.159C790.231 146.976 790.958 146.088 791.969 145.497C793.004 144.905 794.15 144.61 795.407 144.61V149.934C793.953 149.761 792.646 150.057 791.488 150.821C790.354 151.585 789.787 152.854 789.787 154.629V163.465H785.018V144.979H789.787V148.159ZM811.559 144.979H816.329V163.465H811.559V161.284C810.13 163.083 808.121 163.983 805.533 163.983C803.068 163.983 800.949 163.046 799.174 161.173C797.424 159.275 796.549 156.958 796.549 154.222C796.549 151.486 797.424 149.182 799.174 147.309C800.949 145.411 803.068 144.462 805.533 144.462C808.121 144.462 810.13 145.361 811.559 147.161V144.979ZM802.76 157.993C803.721 158.955 804.941 159.435 806.42 159.435C807.899 159.435 809.119 158.955 810.081 157.993C811.066 157.008 811.559 155.75 811.559 154.222C811.559 152.694 811.066 151.449 810.081 150.488C809.119 149.502 807.899 149.009 806.42 149.009C804.941 149.009 803.721 149.502 802.76 150.488C801.799 151.449 801.318 152.694 801.318 154.222C801.318 155.75 801.799 157.008 802.76 157.993ZM834.666 137.585H839.435V163.465H834.666V161.284C833.261 163.083 831.265 163.983 828.677 163.983C826.187 163.983 824.055 163.046 822.281 161.173C820.531 159.275 819.656 156.958 819.656 154.222C819.656 151.486 820.531 149.182 822.281 147.309C824.055 145.411 826.187 144.462 828.677 144.462C831.265 144.462 833.261 145.361 834.666 147.161V137.585ZM825.867 157.993C826.853 158.955 828.085 159.435 829.564 159.435C831.043 159.435 832.263 158.955 833.224 157.993C834.185 157.008 834.666 155.75 834.666 154.222C834.666 152.694 834.185 151.449 833.224 150.488C832.263 149.502 831.043 149.009 829.564 149.009C828.085 149.009 826.853 149.502 825.867 150.488C824.906 151.449 824.425 152.694 824.425 154.222C824.425 155.75 824.906 157.008 825.867 157.993ZM847.827 156.182C848.468 158.499 850.206 159.657 853.04 159.657C854.864 159.657 856.244 159.041 857.181 157.809L861.026 160.027C859.202 162.664 856.515 163.983 852.966 163.983C849.91 163.983 847.457 163.059 845.609 161.21C843.76 159.361 842.836 157.032 842.836 154.222C842.836 151.437 843.748 149.12 845.572 147.272C847.396 145.398 849.737 144.462 852.596 144.462C855.308 144.462 857.538 145.398 859.288 147.272C861.063 149.145 861.95 151.462 861.95 154.222C861.95 154.838 861.889 155.492 861.765 156.182H847.827ZM847.753 152.485H857.181C856.91 151.228 856.343 150.291 855.48 149.675C854.642 149.059 853.681 148.75 852.596 148.75C851.315 148.75 850.255 149.083 849.417 149.749C848.579 150.39 848.024 151.302 847.753 152.485ZM875.78 137.585C879.329 137.585 882.287 138.83 884.653 141.319C887.044 143.809 888.239 146.877 888.239 150.525C888.239 154.173 887.044 157.242 884.653 159.731C882.287 162.221 879.329 163.465 875.78 163.465H865.502V137.585H875.78ZM875.78 158.585C878.023 158.585 879.847 157.846 881.252 156.367C882.657 154.863 883.359 152.916 883.359 150.525C883.359 148.134 882.657 146.199 881.252 144.721C879.847 143.217 878.023 142.465 875.78 142.465H870.604V158.585H875.78ZM907.498 150.044C909.765 151.351 910.899 153.323 910.899 155.96C910.899 158.154 910.123 159.953 908.57 161.358C907.017 162.763 905.107 163.465 902.839 163.465H891.859V137.585H902.063C904.281 137.585 906.142 138.275 907.646 139.655C909.174 141.011 909.938 142.749 909.938 144.868C909.938 147.013 909.125 148.738 907.498 150.044ZM902.063 142.354H896.961V148.048H902.063C902.852 148.048 903.505 147.777 904.022 147.235C904.565 146.692 904.836 146.015 904.836 145.201C904.836 144.388 904.577 143.71 904.059 143.168C903.542 142.625 902.876 142.354 902.063 142.354ZM902.839 158.696C903.702 158.696 904.417 158.412 904.984 157.846C905.551 157.254 905.834 156.515 905.834 155.627C905.834 154.765 905.551 154.05 904.984 153.483C904.417 152.891 903.702 152.596 902.839 152.596H896.961V158.696H902.839Z" fill="#1E1B4B"/>
<path fill-rule="evenodd" clip-rule="evenodd" d="M711.37 137.409H704.422V163.575H711.37V137.409Z" fill="#4F46E5"/>
<path fill-rule="evenodd" clip-rule="evenodd" d="M703.363 137.409H696.416V163.575H703.363V137.409Z" fill="#4F46E5"/>
<path fill-rule="evenodd" clip-rule="evenodd" d="M695.356 137.409H688.409V163.575H695.356V137.409Z" fill="#4F46E5"/>
<path fill-rule="evenodd" clip-rule="evenodd" d="M712.429 137.411V154.351C712.429 156.804 713.402 159.135 715.136 160.868C716.869 162.602 719.2 163.575 721.653 163.575H725.714V156.628H721.653C721.048 156.628 720.475 156.383 720.048 155.956C719.621 155.529 719.376 154.956 719.376 154.351V144.522C719.376 140.666 716.265 137.5 712.429 137.411V137.411Z" fill="#4F46E5"/>
</g>
</g>
<defs>
<clipPath id="clip0_182_56">
<rect width="225" height="28.8732" fill="white" transform="translate(687 136)"/>
</clipPath>
</defs>
</svg>
