<svg width="1600" height="300" viewBox="0 0 1600 300" fill="none" xmlns="http://www.w3.org/2000/svg">
<rect width="1600" height="300" fill="#F1F5F9"/>
<g clip-path="url(#clip0_182_56)">
<mask id="mask0_182_56" style="mask-type:alpha" maskUnits="userSpaceOnUse" x="650" y="131" width="300" height="39">
<path d="M950 131H650V169.498H950V131Z" fill="#D9D9D9"/>
</mask>
<g mask="url(#mask0_182_56)">
<path d="M735.554 133.113C738.873 133.113 741.667 134.23 743.934 136.465C746.202 138.7 747.336 141.444 747.336 144.697C747.336 147.951 746.202 150.695 743.934 152.93C741.667 155.164 738.873 156.282 735.554 156.282H729.491V167.62H722.688V133.113H735.554ZM735.554 149.923C737 149.923 738.2 149.43 739.153 148.444C740.106 147.425 740.582 146.176 740.582 144.697C740.582 143.186 740.106 141.937 739.153 140.951C738.2 139.965 737 139.472 735.554 139.472H729.491V149.923H735.554ZM768.565 142.972H774.924V167.62H768.565V164.711C766.658 167.11 763.98 168.31 760.529 168.31C757.243 168.31 754.417 167.061 752.05 164.564C749.717 162.033 748.55 158.944 748.55 155.296C748.55 151.648 749.717 148.575 752.05 146.078C754.417 143.547 757.243 142.282 760.529 142.282C763.98 142.282 766.658 143.481 768.565 145.88V142.972ZM756.832 160.324C758.114 161.606 759.741 162.247 761.712 162.247C763.684 162.247 765.311 161.606 766.593 160.324C767.907 159.01 768.565 157.333 768.565 155.296C768.565 153.258 767.907 151.599 766.593 150.317C765.311 149.002 763.684 148.345 761.712 148.345C759.741 148.345 758.114 149.002 756.832 150.317C755.55 151.599 754.91 153.258 754.91 155.296C754.91 157.333 755.55 159.01 756.832 160.324ZM787.049 147.211C787.641 145.634 788.611 144.451 789.958 143.662C791.338 142.873 792.866 142.479 794.542 142.479V149.578C792.603 149.348 790.862 149.742 789.317 150.761C787.805 151.779 787.049 153.472 787.049 155.838V167.62H780.69V142.972H787.049V147.211ZM816.079 142.972H822.438V167.62H816.079V164.711C814.173 167.11 811.495 168.31 808.044 168.31C804.757 168.31 801.931 167.061 799.565 164.564C797.232 162.033 796.065 158.944 796.065 155.296C796.065 151.648 797.232 148.575 799.565 146.078C801.931 143.547 804.757 142.282 808.044 142.282C811.495 142.282 814.173 143.481 816.079 145.88V142.972ZM804.347 160.324C805.628 161.606 807.255 162.247 809.227 162.247C811.199 162.247 812.826 161.606 814.107 160.324C815.422 159.01 816.079 157.333 816.079 155.296C816.079 153.258 815.422 151.599 814.107 150.317C812.826 149.002 811.199 148.345 809.227 148.345C807.255 148.345 805.628 149.002 804.347 150.317C803.065 151.599 802.424 153.258 802.424 155.296C802.424 157.333 803.065 159.01 804.347 160.324ZM846.888 133.113H853.247V167.62H846.888V164.711C845.015 167.11 842.353 168.31 838.902 168.31C835.583 168.31 832.74 167.061 830.374 164.564C828.041 162.033 826.874 158.944 826.874 155.296C826.874 151.648 828.041 148.575 830.374 146.078C832.74 143.547 835.583 142.282 838.902 142.282C842.353 142.282 845.015 143.481 846.888 145.88V133.113ZM835.156 160.324C836.47 161.606 838.113 162.247 840.085 162.247C842.057 162.247 843.684 161.606 844.965 160.324C846.247 159.01 846.888 157.333 846.888 155.296C846.888 153.258 846.247 151.599 844.965 150.317C843.684 149.002 842.057 148.345 840.085 148.345C838.113 148.345 836.47 149.002 835.156 150.317C833.874 151.599 833.233 153.258 833.233 155.296C833.233 157.333 833.874 159.01 835.156 160.324ZM864.436 157.909C865.29 160.998 867.607 162.542 871.387 162.542C873.819 162.542 875.659 161.721 876.908 160.078L882.034 163.035C879.603 166.552 876.02 168.31 871.288 168.31C867.213 168.31 863.943 167.078 861.478 164.613C859.013 162.148 857.781 159.042 857.781 155.296C857.781 151.582 858.997 148.493 861.429 146.028C863.861 143.531 866.983 142.282 870.795 142.282C874.41 142.282 877.384 143.531 879.718 146.028C882.084 148.526 883.267 151.615 883.267 155.296C883.267 156.117 883.185 156.988 883.02 157.909H864.436ZM864.337 152.979H876.908C876.546 151.303 875.79 150.054 874.64 149.233C873.523 148.411 872.241 148 870.795 148C869.086 148 867.673 148.444 866.556 149.331C865.438 150.186 864.699 151.402 864.337 152.979ZM901.706 133.113C906.439 133.113 910.382 134.772 913.537 138.092C916.725 141.411 918.319 145.502 918.319 150.366C918.319 155.23 916.725 159.322 913.537 162.641C910.382 165.96 906.439 167.62 901.706 167.62H888.002V133.113H901.706ZM901.706 161.113C904.697 161.113 907.129 160.127 909.002 158.155C910.875 156.15 911.812 153.554 911.812 150.366C911.812 147.179 910.875 144.599 909.002 142.627C907.129 140.622 904.697 139.62 901.706 139.62H894.805V161.113H901.706ZM943.997 149.725C947.02 151.467 948.532 154.096 948.532 157.613C948.532 160.538 947.497 162.937 945.426 164.81C943.356 166.683 940.809 167.62 937.786 167.62H923.145V133.113H936.75C939.708 133.113 942.189 134.033 944.194 135.873C946.232 137.681 947.25 139.998 947.25 142.824C947.25 145.683 946.166 147.984 943.997 149.725ZM936.75 139.472H929.948V147.064H936.75C937.802 147.064 938.673 146.702 939.363 145.979C940.086 145.256 940.448 144.352 940.448 143.268C940.448 142.183 940.103 141.279 939.412 140.556C938.722 139.833 937.835 139.472 936.75 139.472ZM937.786 161.261C938.936 161.261 939.889 160.883 940.645 160.127C941.401 159.338 941.779 158.352 941.779 157.169C941.779 156.019 941.401 155.066 940.645 154.31C939.889 153.521 938.936 153.127 937.786 153.127H929.948V161.261H937.786Z" fill="#1E1B4B"/>
<path fill-rule="evenodd" clip-rule="evenodd" d="M682.493 132.878H673.229V167.766H682.493V132.878Z" fill="#4F46E5"/>
<path fill-rule="evenodd" clip-rule="evenodd" d="M671.817 132.878H662.554V167.766H671.817V132.878Z" fill="#4F46E5"/>
<path fill-rule="evenodd" clip-rule="evenodd" d="M661.142 132.878H651.878V167.766H661.142V132.878Z" fill="#4F46E5"/>
<path fill-rule="evenodd" clip-rule="evenodd" d="M683.905 132.881V155.468C683.905 158.739 685.203 161.846 687.514 164.158C689.825 166.469 692.933 167.767 696.204 167.767H701.618V158.503H696.204C695.397 158.503 694.633 158.177 694.064 157.608C693.495 157.039 693.168 156.275 693.168 155.468V142.363C693.168 137.221 689.02 132.999 683.905 132.881V132.881Z" fill="#4F46E5"/>
</g>
</g>
<defs>
<clipPath id="clip0_182_56">
<rect width="300" height="38.4977" fill="white" transform="translate(650 131)"/>
</clipPath>
</defs>
</svg>
