<svg width="600" height="315" viewBox="0 0 600 315" fill="none" xmlns="http://www.w3.org/2000/svg">
<mask id="mask0_71_15" style="mask-type:alpha" maskUnits="userSpaceOnUse" x="132" y="130" width="45" height="65">
<path d="M132 130H176.717V195H145.5L132 130Z" fill="#D9D9D9"/>
</mask>
<g mask="url(#mask0_71_15)">
<path d="M123.832 189.057C123.61 189.574 123.406 190.058 123.223 190.5H118.897C119.313 187.404 119.912 183.172 120.645 178.616C122.147 169.282 124.111 159.272 126.064 154.504C128.111 149.505 130.969 144.577 134.377 140.976C137.794 137.365 141.376 135.47 145 135.47C148.768 135.47 152.1 137.14 155.185 140.42C158.338 143.772 161.045 148.636 163.278 154.419C165.439 160.015 167.562 170.143 169.172 179.232C169.938 183.562 170.57 187.544 171.018 190.5H166.778C166.594 190.058 166.39 189.574 166.168 189.057C165.063 186.482 163.484 183.018 161.605 179.528C159.748 176.077 157.498 172.41 155.016 169.544C152.764 166.943 149.328 163.821 145 163.821C140.672 163.821 137.236 166.943 134.984 169.544C132.502 172.41 130.252 176.077 128.395 179.528C126.516 183.018 124.937 186.482 123.832 189.057Z" stroke="#34D399" stroke-width="9"/>
</g>
<mask id="mask1_71_15" style="mask-type:alpha" maskUnits="userSpaceOnUse" x="116" y="119" width="37" height="76">
<rect x="116" y="119" width="36.5" height="76" fill="#D9D9D9"/>
</mask>
<g mask="url(#mask1_71_15)">
<path d="M92.0836 188.878C91.7803 189.467 91.5062 190.011 91.2639 190.5H84.6098C84.6465 190.224 84.6846 189.938 84.7242 189.644C85.2111 186.019 85.9126 181.061 86.7716 175.722C88.5243 164.829 90.832 153.033 93.1543 147.362C95.3129 142.091 98.1745 139.491 101.549 138.027C105.199 136.444 109.864 136 116 136C122.481 136 126.694 136.063 130.042 137.428C132.916 138.6 135.654 140.988 138.082 147.278C140.639 153.899 143.132 165.813 145.012 176.43C145.939 181.664 146.697 186.463 147.223 189.955C147.251 190.14 147.279 190.322 147.305 190.5H140.736C140.494 190.011 140.22 189.467 139.916 188.878C138.62 186.359 136.767 182.971 134.563 179.559C132.381 176.18 129.745 172.603 126.854 169.82C124.113 167.182 120.369 164.5 116 164.5C111.631 164.5 107.887 167.182 105.146 169.82C102.255 172.603 99.6194 176.18 97.4372 179.559C95.2335 182.971 93.3803 186.359 92.0836 188.878Z" stroke="#34D399" stroke-width="9"/>
<rect x="116" y="133" width="9" height="35" fill="#34D399"/>
</g>
<mask id="mask2_71_15" style="mask-type:alpha" maskUnits="userSpaceOnUse" x="149" y="130" width="76" height="66">
<path d="M149.5 131.5L224.868 130V196H186.859L169 170L158 142.443L149.5 131.5Z" fill="#D9D9D9"/>
</mask>
<g mask="url(#mask2_71_15)">
<path d="M146.351 190.014C146.125 190.547 145.918 191.045 145.732 191.5H141.394C141.398 191.473 141.402 191.446 141.405 191.419C141.822 188.275 142.422 183.974 143.157 179.343C144.66 169.868 146.629 159.69 148.59 154.835C150.644 149.75 153.511 144.737 156.93 141.074C160.361 137.398 163.944 135.485 167.553 135.485C171.305 135.485 174.638 137.171 177.736 140.51C180.901 143.921 183.617 148.87 185.857 154.751C187.525 159.131 190.999 162.231 194.61 164.412C198.252 166.611 202.453 168.132 206.287 169.193C206.536 169.262 206.784 169.329 207.03 169.394L200.258 172.734C199.654 172.525 198.916 172.271 198.07 171.985C195.63 171.16 192.279 170.057 188.643 168.953C185.017 167.851 181.06 166.733 177.422 165.886C173.882 165.063 170.295 164.41 167.553 164.41C165.283 164.41 163.307 165.284 161.738 166.33C160.163 167.38 158.749 168.766 157.507 170.221C155.026 173.126 152.775 176.845 150.916 180.345C149.037 183.886 147.456 187.4 146.351 190.014Z" stroke="#34D399" stroke-width="9"/>
</g>
<path d="M254.3 180V145H268.7C270.9 145 272.833 145.45 274.5 146.35C276.2 147.217 277.517 148.45 278.45 150.05C279.417 151.65 279.9 153.55 279.9 155.75V156.45C279.9 158.617 279.4 160.517 278.4 162.15C277.433 163.75 276.1 165 274.4 165.9C272.733 166.767 270.833 167.2 268.7 167.2H260.9V180H254.3ZM260.9 161.2H268.05C269.617 161.2 270.883 160.767 271.85 159.9C272.817 159.033 273.3 157.85 273.3 156.35V155.85C273.3 154.35 272.817 153.167 271.85 152.3C270.883 151.433 269.617 151 268.05 151H260.9V161.2ZM291.936 180.7C290.17 180.7 288.586 180.4 287.186 179.8C285.786 179.167 284.67 178.267 283.836 177.1C283.036 175.9 282.636 174.45 282.636 172.75C282.636 171.05 283.036 169.633 283.836 168.5C284.67 167.333 285.803 166.467 287.236 165.9C288.703 165.3 290.37 165 292.236 165H299.036V163.6C299.036 162.433 298.67 161.483 297.936 160.75C297.203 159.983 296.036 159.6 294.436 159.6C292.87 159.6 291.703 159.967 290.936 160.7C290.17 161.4 289.67 162.317 289.436 163.45L283.636 161.5C284.036 160.233 284.67 159.083 285.536 158.05C286.436 156.983 287.62 156.133 289.086 155.5C290.586 154.833 292.403 154.5 294.536 154.5C297.803 154.5 300.386 155.317 302.286 156.95C304.186 158.583 305.136 160.95 305.136 164.05V173.3C305.136 174.3 305.603 174.8 306.536 174.8H308.536V180H304.336C303.103 180 302.086 179.7 301.286 179.1C300.486 178.5 300.086 177.7 300.086 176.7V176.65H299.136C299.003 177.05 298.703 177.583 298.236 178.25C297.77 178.883 297.036 179.45 296.036 179.95C295.036 180.45 293.67 180.7 291.936 180.7ZM293.036 175.6C294.803 175.6 296.236 175.117 297.336 174.15C298.47 173.15 299.036 171.833 299.036 170.2V169.7H292.686C291.52 169.7 290.603 169.95 289.936 170.45C289.27 170.95 288.936 171.65 288.936 172.55C288.936 173.45 289.286 174.183 289.986 174.75C290.686 175.317 291.703 175.6 293.036 175.6ZM313.143 180V155.2H319.343V158H320.243C320.609 157 321.209 156.267 322.043 155.8C322.909 155.333 323.909 155.1 325.043 155.1H328.043V160.7H324.943C323.343 160.7 322.026 161.133 320.993 162C319.959 162.833 319.443 164.133 319.443 165.9V180H313.143ZM340.081 180.7C338.314 180.7 336.731 180.4 335.331 179.8C333.931 179.167 332.814 178.267 331.981 177.1C331.181 175.9 330.781 174.45 330.781 172.75C330.781 171.05 331.181 169.633 331.981 168.5C332.814 167.333 333.948 166.467 335.381 165.9C336.848 165.3 338.514 165 340.381 165H347.181V163.6C347.181 162.433 346.814 161.483 346.081 160.75C345.348 159.983 344.181 159.6 342.581 159.6C341.014 159.6 339.848 159.967 339.081 160.7C338.314 161.4 337.814 162.317 337.581 163.45L331.781 161.5C332.181 160.233 332.814 159.083 333.681 158.05C334.581 156.983 335.764 156.133 337.231 155.5C338.731 154.833 340.548 154.5 342.681 154.5C345.948 154.5 348.531 155.317 350.431 156.95C352.331 158.583 353.281 160.95 353.281 164.05V173.3C353.281 174.3 353.748 174.8 354.681 174.8H356.681V180H352.481C351.248 180 350.231 179.7 349.431 179.1C348.631 178.5 348.231 177.7 348.231 176.7V176.65H347.281C347.148 177.05 346.848 177.583 346.381 178.25C345.914 178.883 345.181 179.45 344.181 179.95C343.181 180.45 341.814 180.7 340.081 180.7ZM341.181 175.6C342.948 175.6 344.381 175.117 345.481 174.15C346.614 173.15 347.181 171.833 347.181 170.2V169.7H340.831C339.664 169.7 338.748 169.95 338.081 170.45C337.414 170.95 337.081 171.65 337.081 172.55C337.081 173.45 337.431 174.183 338.131 174.75C338.831 175.317 339.848 175.6 341.181 175.6ZM370.799 180.7C368.832 180.7 366.982 180.217 365.249 179.25C363.549 178.25 362.182 176.8 361.149 174.9C360.115 173 359.599 170.7 359.599 168V167.2C359.599 164.5 360.115 162.2 361.149 160.3C362.182 158.4 363.549 156.967 365.249 156C366.949 155 368.799 154.5 370.799 154.5C372.299 154.5 373.549 154.683 374.549 155.05C375.582 155.383 376.415 155.817 377.049 156.35C377.682 156.883 378.165 157.45 378.499 158.05H379.399V145H385.699V180H379.499V177H378.599C378.032 177.933 377.149 178.783 375.949 179.55C374.782 180.317 373.065 180.7 370.799 180.7ZM372.699 175.2C374.632 175.2 376.249 174.583 377.549 173.35C378.849 172.083 379.499 170.25 379.499 167.85V167.35C379.499 164.95 378.849 163.133 377.549 161.9C376.282 160.633 374.665 160 372.699 160C370.765 160 369.149 160.633 367.849 161.9C366.549 163.133 365.899 164.95 365.899 167.35V167.85C365.899 170.25 366.549 172.083 367.849 173.35C369.149 174.583 370.765 175.2 372.699 175.2ZM403.984 180.7C401.517 180.7 399.334 180.183 397.434 179.15C395.567 178.083 394.1 176.6 393.034 174.7C392 172.767 391.484 170.5 391.484 167.9V167.3C391.484 164.7 392 162.45 393.034 160.55C394.067 158.617 395.517 157.133 397.384 156.1C399.25 155.033 401.417 154.5 403.884 154.5C406.317 154.5 408.434 155.05 410.234 156.15C412.034 157.217 413.434 158.717 414.434 160.65C415.434 162.55 415.934 164.767 415.934 167.3V169.45H397.884C397.95 171.15 398.584 172.533 399.784 173.6C400.984 174.667 402.45 175.2 404.184 175.2C405.95 175.2 407.25 174.817 408.084 174.05C408.917 173.283 409.55 172.433 409.984 171.5L415.134 174.2C414.667 175.067 413.984 176.017 413.084 177.05C412.217 178.05 411.05 178.917 409.584 179.65C408.117 180.35 406.25 180.7 403.984 180.7ZM397.934 164.75H409.534C409.4 163.317 408.817 162.167 407.784 161.3C406.784 160.433 405.467 160 403.834 160C402.134 160 400.784 160.433 399.784 161.3C398.784 162.167 398.167 163.317 397.934 164.75ZM420.341 180V174.2H424.941V150.8H420.341V145H434.741C439.441 145 443.008 146.2 445.441 148.6C447.908 150.967 449.141 154.5 449.141 159.2V165.8C449.141 170.5 447.908 174.05 445.441 176.45C443.008 178.817 439.441 180 434.741 180H420.341ZM431.541 174H434.841C437.508 174 439.458 173.3 440.691 171.9C441.924 170.5 442.541 168.533 442.541 166V159C442.541 156.433 441.924 154.467 440.691 153.1C439.458 151.7 437.508 151 434.841 151H431.541V174ZM452.519 180V174.2H457.119V150.8H452.519V145H470.519C472.652 145 474.502 145.367 476.069 146.1C477.669 146.8 478.902 147.817 479.769 149.15C480.669 150.45 481.119 152.017 481.119 153.85V154.35C481.119 155.95 480.819 157.267 480.219 158.3C479.619 159.3 478.902 160.083 478.069 160.65C477.269 161.183 476.502 161.567 475.769 161.8V162.7C476.502 162.9 477.302 163.283 478.169 163.85C479.035 164.383 479.769 165.167 480.369 166.2C481.002 167.233 481.319 168.583 481.319 170.25V170.75C481.319 172.683 480.869 174.35 479.969 175.75C479.069 177.117 477.819 178.167 476.219 178.9C474.652 179.633 472.819 180 470.719 180H452.519ZM463.719 174H469.919C471.352 174 472.502 173.65 473.369 172.95C474.269 172.25 474.719 171.25 474.719 169.95V169.45C474.719 168.15 474.285 167.15 473.419 166.45C472.552 165.75 471.385 165.4 469.919 165.4H463.719V174ZM463.719 159.4H469.819C471.185 159.4 472.302 159.05 473.169 158.35C474.069 157.65 474.519 156.683 474.519 155.45V154.95C474.519 153.683 474.085 152.717 473.219 152.05C472.352 151.35 471.219 151 469.819 151H463.719V159.4Z" fill="#34D399"/>
</svg>
