<svg width="1200" height="400" viewBox="0 0 1200 400" fill="none" xmlns="http://www.w3.org/2000/svg">
<rect width="1200" height="400" fill="#F1F5F9"/>
<g clip-path="url(#clip0_182_56)">
<mask id="mask0_182_56" style="mask-type:alpha" maskUnits="userSpaceOnUse" x="350" y="168" width="500" height="65">
<path d="M850 168H350V232.163H850V168Z" fill="#D9D9D9"/>
</mask>
<g mask="url(#mask0_182_56)">
<path d="M492.59 171.521C498.122 171.521 502.778 173.383 506.557 177.108C510.337 180.832 512.226 185.406 512.226 190.829C512.226 196.251 510.337 200.825 506.557 204.549C502.778 208.274 498.122 210.136 492.59 210.136H482.485V229.033H471.146V171.521H492.59ZM492.59 199.537C495 199.537 496.999 198.716 498.588 197.073C500.176 195.375 500.97 193.293 500.97 190.829C500.97 188.309 500.176 186.228 498.588 184.584C496.999 182.941 495 182.12 492.59 182.12H482.485V199.537H492.59ZM547.607 187.953H558.206V229.033H547.607V224.185C544.431 228.184 539.967 230.183 534.215 230.183C528.738 230.183 524.028 228.102 520.084 223.939C516.195 219.721 514.251 214.573 514.251 208.493C514.251 202.413 516.195 197.292 520.084 193.129C524.028 188.911 528.738 186.803 534.215 186.803C539.967 186.803 544.431 188.802 547.607 192.8V187.953ZM528.053 216.873C530.19 219.009 532.901 220.077 536.187 220.077C539.474 220.077 542.185 219.009 544.321 216.873C546.512 214.682 547.607 211.889 547.607 208.493C547.607 205.097 546.512 202.331 544.321 200.195C542.185 198.004 539.474 196.908 536.187 196.908C532.901 196.908 530.19 198.004 528.053 200.195C525.917 202.331 524.849 205.097 524.849 208.493C524.849 211.889 525.917 214.682 528.053 216.873ZM578.416 195.019C579.402 192.39 581.017 190.418 583.263 189.103C585.564 187.789 588.11 187.131 590.904 187.131V198.962C587.672 198.579 584.769 199.236 582.195 200.934C579.675 202.632 578.416 205.453 578.416 209.397V229.033H567.817V187.953H578.416V195.019ZM626.798 187.953H637.397V229.033H626.798V224.185C623.621 228.184 619.157 230.183 613.406 230.183C607.929 230.183 603.218 228.102 599.275 223.939C595.386 219.721 593.441 214.573 593.441 208.493C593.441 202.413 595.386 197.292 599.275 193.129C603.218 188.911 607.929 186.803 613.406 186.803C619.157 186.803 623.621 188.802 626.798 192.8V187.953ZM607.244 216.873C609.38 219.009 612.092 220.077 615.378 220.077C618.664 220.077 621.376 219.009 623.512 216.873C625.703 214.682 626.798 211.889 626.798 208.493C626.798 205.097 625.703 202.331 623.512 200.195C621.376 198.004 618.664 196.908 615.378 196.908C612.092 196.908 609.38 198.004 607.244 200.195C605.108 202.331 604.04 205.097 604.04 208.493C604.04 211.889 605.108 214.682 607.244 216.873ZM678.146 171.521H688.745V229.033H678.146V224.185C675.024 228.184 670.588 230.183 664.837 230.183C659.305 230.183 654.567 228.102 650.623 223.939C646.734 219.721 644.79 214.573 644.79 208.493C644.79 202.413 646.734 197.292 650.623 193.129C654.567 188.911 659.305 186.803 664.837 186.803C670.588 186.803 675.024 188.802 678.146 192.8V171.521ZM658.593 216.873C660.783 219.009 663.522 220.077 666.808 220.077C670.095 220.077 672.806 219.009 674.942 216.873C677.078 214.682 678.146 211.889 678.146 208.493C678.146 205.097 677.078 202.331 674.942 200.195C672.806 198.004 670.095 196.908 666.808 196.908C663.522 196.908 660.783 198.004 658.593 200.195C656.456 202.331 655.388 205.097 655.388 208.493C655.388 211.889 656.456 214.682 658.593 216.873ZM707.393 212.847C708.817 217.996 712.679 220.57 718.977 220.57C723.031 220.57 726.098 219.201 728.179 216.462L736.724 221.392C732.671 227.253 726.7 230.183 718.813 230.183C712.021 230.183 706.571 228.129 702.463 224.021C698.355 219.913 696.301 214.737 696.301 208.493C696.301 202.303 698.328 197.155 702.381 193.047C706.434 188.884 711.638 186.803 717.992 186.803C724.017 186.803 728.974 188.884 732.862 193.047C736.806 197.21 738.778 202.358 738.778 208.493C738.778 209.862 738.641 211.314 738.367 212.847H707.393ZM707.229 204.631H728.179C727.577 201.838 726.317 199.757 724.4 198.387C722.538 197.018 720.402 196.333 717.992 196.333C715.143 196.333 712.788 197.073 710.926 198.552C709.064 199.976 707.831 202.002 707.229 204.631ZM769.51 171.521C777.398 171.521 783.97 174.287 789.229 179.819C794.542 185.351 797.198 192.17 797.198 200.277C797.198 208.383 794.542 215.203 789.229 220.735C783.97 226.267 777.398 229.033 769.51 229.033H746.67V171.521H769.51ZM769.51 218.188C774.495 218.188 778.548 216.544 781.67 213.258C784.792 209.917 786.353 205.59 786.353 200.277C786.353 194.964 784.792 190.664 781.67 187.378C778.548 184.037 774.495 182.366 769.51 182.366H758.008V218.188H769.51ZM839.995 199.209C845.034 202.112 847.553 206.494 847.553 212.354C847.553 217.229 845.828 221.228 842.377 224.35C838.927 227.472 834.682 229.033 829.643 229.033H805.241V171.521H827.917C832.847 171.521 836.982 173.055 840.323 176.122C843.719 179.134 845.417 182.996 845.417 187.706C845.417 192.472 843.61 196.306 839.995 199.209ZM827.917 182.12H816.579V194.772H827.917C829.67 194.772 831.121 194.17 832.272 192.965C833.477 191.76 834.079 190.253 834.079 188.446C834.079 186.638 833.504 185.132 832.354 183.927C831.204 182.722 829.725 182.12 827.917 182.12ZM829.643 218.434C831.56 218.434 833.148 217.804 834.408 216.544C835.668 215.23 836.297 213.587 836.297 211.615C836.297 209.698 835.668 208.109 834.408 206.85C833.148 205.535 831.56 204.878 829.643 204.878H816.579V218.434H829.643Z" fill="#1E1B4B"/>
<path fill-rule="evenodd" clip-rule="evenodd" d="M404.154 171.13H388.715V229.277H404.154V171.13Z" fill="#4F46E5"/>
<path fill-rule="evenodd" clip-rule="evenodd" d="M386.362 171.13H370.923V229.277H386.362V171.13Z" fill="#4F46E5"/>
<path fill-rule="evenodd" clip-rule="evenodd" d="M368.569 171.13H353.13V229.277H368.569V171.13Z" fill="#4F46E5"/>
<path fill-rule="evenodd" clip-rule="evenodd" d="M406.508 171.135V208.78C406.508 214.231 408.672 219.41 412.523 223.263C416.375 227.115 421.555 229.278 427.006 229.278H436.031V213.839H427.006C425.662 213.839 424.387 213.295 423.439 212.347C422.491 211.399 421.947 210.124 421.947 208.78V186.938C421.947 178.368 415.033 171.332 406.508 171.136V171.135Z" fill="#4F46E5"/>
</g>
</g>
<defs>
<clipPath id="clip0_182_56">
<rect width="500" height="64.1628" fill="white" transform="translate(350 168)"/>
</clipPath>
</defs>
</svg>
