<svg width="680" height="339" viewBox="0 0 680 339" fill="none" xmlns="http://www.w3.org/2000/svg">
<mask id="mask0_31_2" style="mask-type:alpha" maskUnits="userSpaceOnUse" x="172" y="142" width="45" height="65">
<path d="M172 142H216.717V207H185.5L172 142Z" fill="#D9D9D9"/>
</mask>
<g mask="url(#mask0_31_2)">
<path d="M163.832 201.057C163.61 201.574 163.406 202.058 163.222 202.5H158.897C159.313 199.404 159.912 195.172 160.645 190.616C162.147 181.282 164.111 171.272 166.064 166.504C168.111 161.505 170.969 156.577 174.377 152.976C177.794 149.365 181.376 147.47 185 147.47C188.768 147.47 192.1 149.14 195.185 152.42C198.338 155.772 201.045 160.636 203.278 166.419C205.439 172.014 207.562 182.143 209.172 191.231C209.938 195.562 210.57 199.544 211.018 202.5H206.778C206.594 202.058 206.39 201.574 206.168 201.057C205.063 198.482 203.484 195.018 201.605 191.528C199.748 188.077 197.498 184.41 195.016 181.544C192.764 178.943 189.328 175.821 185 175.821C180.672 175.821 177.236 178.943 174.984 181.544C172.502 184.41 170.252 188.077 168.395 191.528C166.516 195.018 164.937 198.482 163.832 201.057Z" stroke="#34D399" stroke-width="9"/>
</g>
<mask id="mask1_31_2" style="mask-type:alpha" maskUnits="userSpaceOnUse" x="156" y="131" width="37" height="76">
<rect x="156" y="131" width="36.5" height="76" fill="#D9D9D9"/>
</mask>
<g mask="url(#mask1_31_2)">
<path d="M132.084 200.878C131.78 201.467 131.506 202.011 131.264 202.5H124.61C124.646 202.224 124.685 201.938 124.724 201.644C125.211 198.019 125.913 193.061 126.772 187.722C128.524 176.829 130.832 165.033 133.154 159.362C135.313 154.091 138.175 151.491 141.549 150.027C145.199 148.444 149.864 148 156 148C162.481 148 166.694 148.063 170.042 149.428C172.916 150.6 175.654 152.988 178.082 159.278C180.639 165.899 183.132 177.813 185.012 188.43C185.939 193.664 186.697 198.463 187.223 201.955C187.251 202.14 187.279 202.322 187.305 202.5H180.736C180.494 202.011 180.22 201.467 179.916 200.878C178.62 198.359 176.767 194.971 174.563 191.559C172.381 188.18 169.745 184.603 166.854 181.82C164.113 179.182 160.369 176.5 156 176.5C151.631 176.5 147.887 179.182 145.146 181.82C142.255 184.603 139.619 188.18 137.437 191.559C135.233 194.971 133.38 198.359 132.084 200.878Z" stroke="#34D399" stroke-width="9"/>
<rect x="156" y="145" width="9" height="35" fill="#34D399"/>
</g>
<mask id="mask2_31_2" style="mask-type:alpha" maskUnits="userSpaceOnUse" x="189" y="142" width="76" height="66">
<path d="M189.5 143.5L264.868 142V208H226.859L209 182L198 154.443L189.5 143.5Z" fill="#D9D9D9"/>
</mask>
<g mask="url(#mask2_31_2)">
<path d="M186.35 202.014C186.125 202.547 185.918 203.045 185.732 203.5H181.394C181.398 203.473 181.401 203.446 181.405 203.419C181.822 200.275 182.422 195.974 183.157 191.343C184.66 181.869 186.629 171.69 188.59 166.835C190.644 161.75 193.511 156.737 196.93 153.074C200.361 149.398 203.944 147.485 207.553 147.485C211.305 147.485 214.638 149.171 217.736 152.51C220.901 155.921 223.617 160.87 225.857 166.751C227.525 171.132 230.998 174.231 234.61 176.412C238.252 178.611 242.453 180.132 246.287 181.193C246.535 181.262 246.783 181.329 247.03 181.394L240.258 184.734C239.654 184.525 238.916 184.272 238.069 183.985C235.63 183.16 232.279 182.057 228.643 180.953C225.016 179.851 221.06 178.733 217.422 177.886C213.882 177.063 210.295 176.41 207.553 176.41C205.283 176.41 203.306 177.284 201.738 178.33C200.163 179.38 198.749 180.766 197.507 182.221C195.026 185.126 192.775 188.845 190.916 192.345C189.037 195.886 187.456 199.4 186.35 202.014Z" stroke="#34D399" stroke-width="9"/>
</g>
<path d="M294.3 192V157H308.7C310.9 157 312.833 157.45 314.5 158.35C316.2 159.217 317.517 160.45 318.45 162.05C319.417 163.65 319.9 165.55 319.9 167.75V168.45C319.9 170.617 319.4 172.517 318.4 174.15C317.433 175.75 316.1 177 314.4 177.9C312.733 178.767 310.833 179.2 308.7 179.2H300.9V192H294.3ZM300.9 173.2H308.05C309.617 173.2 310.883 172.767 311.85 171.9C312.817 171.033 313.3 169.85 313.3 168.35V167.85C313.3 166.35 312.817 165.167 311.85 164.3C310.883 163.433 309.617 163 308.05 163H300.9V173.2ZM331.936 192.7C330.17 192.7 328.586 192.4 327.186 191.8C325.786 191.167 324.67 190.267 323.836 189.1C323.036 187.9 322.636 186.45 322.636 184.75C322.636 183.05 323.036 181.633 323.836 180.5C324.67 179.333 325.803 178.467 327.236 177.9C328.703 177.3 330.37 177 332.236 177H339.036V175.6C339.036 174.433 338.67 173.483 337.936 172.75C337.203 171.983 336.036 171.6 334.436 171.6C332.87 171.6 331.703 171.967 330.936 172.7C330.17 173.4 329.67 174.317 329.436 175.45L323.636 173.5C324.036 172.233 324.67 171.083 325.536 170.05C326.436 168.983 327.62 168.133 329.086 167.5C330.586 166.833 332.403 166.5 334.536 166.5C337.803 166.5 340.386 167.317 342.286 168.95C344.186 170.583 345.136 172.95 345.136 176.05V185.3C345.136 186.3 345.603 186.8 346.536 186.8H348.536V192H344.336C343.103 192 342.086 191.7 341.286 191.1C340.486 190.5 340.086 189.7 340.086 188.7V188.65H339.136C339.003 189.05 338.703 189.583 338.236 190.25C337.77 190.883 337.036 191.45 336.036 191.95C335.036 192.45 333.67 192.7 331.936 192.7ZM333.036 187.6C334.803 187.6 336.236 187.117 337.336 186.15C338.47 185.15 339.036 183.833 339.036 182.2V181.7H332.686C331.52 181.7 330.603 181.95 329.936 182.45C329.27 182.95 328.936 183.65 328.936 184.55C328.936 185.45 329.286 186.183 329.986 186.75C330.686 187.317 331.703 187.6 333.036 187.6ZM353.143 192V167.2H359.343V170H360.243C360.609 169 361.209 168.267 362.043 167.8C362.909 167.333 363.909 167.1 365.043 167.1H368.043V172.7H364.943C363.343 172.7 362.026 173.133 360.993 174C359.959 174.833 359.443 176.133 359.443 177.9V192H353.143ZM380.081 192.7C378.314 192.7 376.731 192.4 375.331 191.8C373.931 191.167 372.814 190.267 371.981 189.1C371.181 187.9 370.781 186.45 370.781 184.75C370.781 183.05 371.181 181.633 371.981 180.5C372.814 179.333 373.948 178.467 375.381 177.9C376.848 177.3 378.514 177 380.381 177H387.181V175.6C387.181 174.433 386.814 173.483 386.081 172.75C385.348 171.983 384.181 171.6 382.581 171.6C381.014 171.6 379.848 171.967 379.081 172.7C378.314 173.4 377.814 174.317 377.581 175.45L371.781 173.5C372.181 172.233 372.814 171.083 373.681 170.05C374.581 168.983 375.764 168.133 377.231 167.5C378.731 166.833 380.548 166.5 382.681 166.5C385.948 166.5 388.531 167.317 390.431 168.95C392.331 170.583 393.281 172.95 393.281 176.05V185.3C393.281 186.3 393.748 186.8 394.681 186.8H396.681V192H392.481C391.248 192 390.231 191.7 389.431 191.1C388.631 190.5 388.231 189.7 388.231 188.7V188.65H387.281C387.148 189.05 386.848 189.583 386.381 190.25C385.914 190.883 385.181 191.45 384.181 191.95C383.181 192.45 381.814 192.7 380.081 192.7ZM381.181 187.6C382.948 187.6 384.381 187.117 385.481 186.15C386.614 185.15 387.181 183.833 387.181 182.2V181.7H380.831C379.664 181.7 378.748 181.95 378.081 182.45C377.414 182.95 377.081 183.65 377.081 184.55C377.081 185.45 377.431 186.183 378.131 186.75C378.831 187.317 379.848 187.6 381.181 187.6ZM410.799 192.7C408.832 192.7 406.982 192.217 405.249 191.25C403.549 190.25 402.182 188.8 401.149 186.9C400.115 185 399.599 182.7 399.599 180V179.2C399.599 176.5 400.115 174.2 401.149 172.3C402.182 170.4 403.549 168.967 405.249 168C406.949 167 408.799 166.5 410.799 166.5C412.299 166.5 413.549 166.683 414.549 167.05C415.582 167.383 416.415 167.817 417.049 168.35C417.682 168.883 418.165 169.45 418.499 170.05H419.399V157H425.699V192H419.499V189H418.599C418.032 189.933 417.149 190.783 415.949 191.55C414.782 192.317 413.065 192.7 410.799 192.7ZM412.699 187.2C414.632 187.2 416.249 186.583 417.549 185.35C418.849 184.083 419.499 182.25 419.499 179.85V179.35C419.499 176.95 418.849 175.133 417.549 173.9C416.282 172.633 414.665 172 412.699 172C410.765 172 409.149 172.633 407.849 173.9C406.549 175.133 405.899 176.95 405.899 179.35V179.85C405.899 182.25 406.549 184.083 407.849 185.35C409.149 186.583 410.765 187.2 412.699 187.2ZM443.984 192.7C441.517 192.7 439.334 192.183 437.434 191.15C435.567 190.083 434.1 188.6 433.034 186.7C432 184.767 431.484 182.5 431.484 179.9V179.3C431.484 176.7 432 174.45 433.034 172.55C434.067 170.617 435.517 169.133 437.384 168.1C439.25 167.033 441.417 166.5 443.884 166.5C446.317 166.5 448.434 167.05 450.234 168.15C452.034 169.217 453.434 170.717 454.434 172.65C455.434 174.55 455.934 176.767 455.934 179.3V181.45H437.884C437.95 183.15 438.584 184.533 439.784 185.6C440.984 186.667 442.45 187.2 444.184 187.2C445.95 187.2 447.25 186.817 448.084 186.05C448.917 185.283 449.55 184.433 449.984 183.5L455.134 186.2C454.667 187.067 453.984 188.017 453.084 189.05C452.217 190.05 451.05 190.917 449.584 191.65C448.117 192.35 446.25 192.7 443.984 192.7ZM437.934 176.75H449.534C449.4 175.317 448.817 174.167 447.784 173.3C446.784 172.433 445.467 172 443.834 172C442.134 172 440.784 172.433 439.784 173.3C438.784 174.167 438.167 175.317 437.934 176.75ZM460.341 192V186.2H464.941V162.8H460.341V157H474.741C479.441 157 483.008 158.2 485.441 160.6C487.908 162.967 489.141 166.5 489.141 171.2V177.8C489.141 182.5 487.908 186.05 485.441 188.45C483.008 190.817 479.441 192 474.741 192H460.341ZM471.541 186H474.841C477.508 186 479.458 185.3 480.691 183.9C481.924 182.5 482.541 180.533 482.541 178V171C482.541 168.433 481.924 166.467 480.691 165.1C479.458 163.7 477.508 163 474.841 163H471.541V186ZM492.519 192V186.2H497.119V162.8H492.519V157H510.519C512.652 157 514.502 157.367 516.069 158.1C517.669 158.8 518.902 159.817 519.769 161.15C520.669 162.45 521.119 164.017 521.119 165.85V166.35C521.119 167.95 520.819 169.267 520.219 170.3C519.619 171.3 518.902 172.083 518.069 172.65C517.269 173.183 516.502 173.567 515.769 173.8V174.7C516.502 174.9 517.302 175.283 518.169 175.85C519.035 176.383 519.769 177.167 520.369 178.2C521.002 179.233 521.319 180.583 521.319 182.25V182.75C521.319 184.683 520.869 186.35 519.969 187.75C519.069 189.117 517.819 190.167 516.219 190.9C514.652 191.633 512.819 192 510.719 192H492.519ZM503.719 186H509.919C511.352 186 512.502 185.65 513.369 184.95C514.269 184.25 514.719 183.25 514.719 181.95V181.45C514.719 180.15 514.285 179.15 513.419 178.45C512.552 177.75 511.385 177.4 509.919 177.4H503.719V186ZM503.719 171.4H509.819C511.185 171.4 512.302 171.05 513.169 170.35C514.069 169.65 514.519 168.683 514.519 167.45V166.95C514.519 165.683 514.085 164.717 513.219 164.05C512.352 163.35 511.219 163 509.819 163H503.719V171.4Z" fill="#34D399"/>
</svg>
