<svg width="150" height="150" viewBox="0 0 150 150" fill="none" xmlns="http://www.w3.org/2000/svg">
<rect width="150" height="150" rx="20" fill="#34D399"/>
<mask id="mask0_82_15" style="mask-type:alpha" maskUnits="userSpaceOnUse" x="46" y="48" width="45" height="65">
<path d="M46 48H90.7171V113H59.5L46 48Z" fill="#D9D9D9"/>
</mask>
<g mask="url(#mask0_82_15)">
<path d="M37.8317 107.057C37.6098 107.574 37.4062 108.058 37.2225 108.5H32.8972C33.3131 105.404 33.912 101.172 34.6451 96.6159C36.1468 87.2821 38.1111 77.2717 40.0637 72.5039C42.1107 67.5054 44.9686 62.5768 48.3768 58.9756C51.7941 55.3648 55.3757 53.4701 59 53.4701C62.7676 53.4701 66.0995 55.14 69.1845 58.4198C72.3378 61.7723 75.0453 66.6361 77.2784 72.4194C79.4388 78.0145 81.5622 88.1432 83.1716 97.2315C83.9384 101.562 84.57 105.544 85.0175 108.5H80.7775C80.5938 108.058 80.3902 107.574 80.1683 107.057C79.0634 104.482 77.4839 101.018 75.6054 97.5277C73.7483 94.0773 71.4977 90.4099 69.0161 87.5438C66.764 84.943 63.3276 81.8209 59 81.8209C54.6724 81.8209 51.236 84.943 48.9839 87.5438C46.5023 90.4099 44.2517 94.0773 42.3946 97.5277C40.5161 101.018 38.9366 104.482 37.8317 107.057Z" stroke="#0A0A0A" stroke-width="9"/>
</g>
<mask id="mask1_82_15" style="mask-type:alpha" maskUnits="userSpaceOnUse" x="30" y="37" width="37" height="76">
<rect x="30" y="37" width="36.5" height="76" fill="#D9D9D9"/>
</mask>
<g mask="url(#mask1_82_15)">
<path d="M6.08364 106.878C5.78031 107.467 5.50621 108.011 5.26394 108.5H-1.39018C-1.35351 108.224 -1.31539 107.938 -1.27584 107.644C-0.788902 104.019 -0.0873599 99.0612 0.771616 93.7223C2.52425 82.8287 4.83197 71.0329 7.15431 65.3621C9.31285 60.0914 12.1745 57.4913 15.5486 56.0275C19.1986 54.4439 23.8641 54 30 54C36.4813 54 40.6936 54.0634 44.042 55.4283C46.9165 56.6 49.6536 58.9883 52.0821 65.2777C54.6387 71.8989 57.1319 83.813 59.0121 94.4302C59.9389 99.6641 60.6969 104.463 61.2233 107.955C61.2513 108.14 61.2786 108.322 61.3052 108.5H54.7361C54.4938 108.011 54.2197 107.467 53.9164 106.878C52.6197 104.359 50.7665 100.971 48.5628 97.5588C46.3806 94.1796 43.7451 90.6033 40.8542 87.8205C38.1132 85.182 34.3692 82.5 30 82.5C25.6308 82.5 21.8868 85.182 19.1458 87.8205C16.2549 90.6033 13.6194 94.1796 11.4372 97.5588C9.23347 100.971 7.38035 104.359 6.08364 106.878Z" stroke="#0A0A0A" stroke-width="9"/>
<rect x="30" y="51" width="9" height="35" fill="#0A0A0A"/>
</g>
<mask id="mask2_82_15" style="mask-type:alpha" maskUnits="userSpaceOnUse" x="63" y="48" width="76" height="66">
<path d="M63.5 49.5L138.868 48V114H100.859L83 88L72 60.4426L63.5 49.5Z" fill="#D9D9D9"/>
</mask>
<g mask="url(#mask2_82_15)">
<path d="M55.3944 109.5C55.398 109.473 55.4015 109.446 55.4051 109.419C55.8217 106.275 56.422 101.974 57.1568 97.3433C58.6603 87.8685 60.6293 77.6898 62.5904 72.8346C64.6441 67.7502 67.5112 62.737 70.9301 59.0743C74.3614 55.3984 77.9444 53.4851 81.5526 53.4851C85.3048 53.4851 88.6379 55.1706 91.7359 58.5101C94.9005 61.9215 97.6172 66.8701 99.8568 72.7508C101.525 77.1315 104.998 80.2308 108.61 82.4116C112.252 84.6108 116.453 86.1322 120.287 87.1931C120.536 87.2619 120.783 87.329 121.03 87.3944L114.258 90.7343C113.654 90.525 112.916 90.2715 112.069 89.9851C109.63 89.1598 106.279 88.0573 102.643 86.9528C99.0165 85.8509 95.0604 84.7329 91.4216 83.8863C87.8821 83.0628 84.2947 82.4104 81.5526 82.4104C79.2834 82.4104 77.3065 83.2842 75.7376 84.33C74.1627 85.3797 72.7492 86.7661 71.5068 88.2208C69.0256 91.1262 66.7748 94.8447 64.9164 98.3452C63.0368 101.886 61.4563 105.4 60.3505 108.014C60.1246 108.547 59.9179 109.045 59.7316 109.5H55.3944Z" stroke="#0A0A0A" stroke-width="9"/>
</g>
</svg>
