<svg width="400" height="90" viewBox="0 0 400 90" fill="none" xmlns="http://www.w3.org/2000/svg">
<mask id="mask0_71_15" style="mask-type:alpha" maskUnits="userSpaceOnUse" x="32" y="17" width="45" height="65">
<path d="M32 17H76.7171V82H45.5L32 17Z" fill="#D9D9D9"/>
</mask>
<g mask="url(#mask0_71_15)">
<path d="M23.8318 76.0571C23.6098 76.5744 23.4063 77.0577 23.2225 77.5H18.8973C19.3132 74.4041 19.9121 70.1722 20.6452 65.6159C22.1469 56.2821 24.1112 46.2717 26.0637 41.5039C28.1108 36.5054 30.9687 31.5768 34.3768 27.9757C37.7941 24.3648 41.3757 22.4702 45.0001 22.4702C48.7676 22.4702 52.0996 24.14 55.1846 27.4199C58.3378 30.7723 61.0453 35.6361 63.2785 41.4195C65.4389 47.0145 67.5623 57.1433 69.1717 66.2315C69.9385 70.5617 70.5701 74.5439 71.0176 77.5H66.7776C66.5939 77.0577 66.3903 76.5744 66.1684 76.0571C65.0634 73.4817 63.484 70.0177 61.6055 66.5277C59.7483 63.0773 57.4978 59.41 55.0161 56.5439C52.7641 53.943 49.3277 50.8209 45.0001 50.8209C40.6724 50.8209 37.236 53.943 34.984 56.5439C32.5023 59.41 30.2518 63.0773 28.3947 66.5277C26.5162 70.0177 24.9367 73.4817 23.8318 76.0571Z" stroke="#34D399" stroke-width="9"/>
</g>
<mask id="mask1_71_15" style="mask-type:alpha" maskUnits="userSpaceOnUse" x="16" y="6" width="37" height="76">
<rect x="16" y="6" width="36.5" height="76" fill="#D9D9D9"/>
</mask>
<g mask="url(#mask1_71_15)">
<path d="M-7.91636 75.878C-8.21969 76.4673 -8.49379 77.0114 -8.73606 77.5H-15.3902C-15.3535 77.2238 -15.3154 76.9383 -15.2758 76.6439C-14.7889 73.019 -14.0874 68.0612 -13.2284 62.7223C-11.4757 51.8287 -9.16803 40.0329 -6.84569 34.3621C-4.68715 29.0914 -1.82547 26.4913 1.54856 25.0275C5.19858 23.4439 9.86409 23 16 23C22.4813 23 26.6936 23.0634 30.042 24.4283C32.9165 25.6 35.6536 27.9883 38.0821 34.2777C40.6387 40.8989 43.1319 52.813 45.0121 63.4302C45.9389 68.6641 46.6969 73.4633 47.2233 76.9549C47.2513 77.1403 47.2786 77.3221 47.3052 77.5H40.7361C40.4938 77.0114 40.2197 76.4673 39.9164 75.878C38.6197 73.3588 36.7665 69.9714 34.5628 66.5588C32.3806 63.1796 29.7451 59.6033 26.8542 56.8205C24.1132 54.182 20.3692 51.5 16 51.5C11.6308 51.5 7.88679 54.182 5.14577 56.8205C2.25487 59.6033 -0.380621 63.1796 -2.56279 66.5588C-4.76653 69.9714 -6.61965 73.3588 -7.91636 75.878Z" stroke="#34D399" stroke-width="9"/>
<rect x="16" y="20" width="9" height="35" fill="#34D399"/>
</g>
<mask id="mask2_71_15" style="mask-type:alpha" maskUnits="userSpaceOnUse" x="49" y="17" width="76" height="66">
<path d="M49.5 18.5L124.868 17V83H86.859L69 57L58 29.4426L49.5 18.5Z" fill="#D9D9D9"/>
</mask>
<g mask="url(#mask2_71_15)">
<path d="M41.3945 78.5C41.398 78.4732 41.4016 78.4464 41.4051 78.4194C41.8218 75.2746 42.422 70.9739 43.1568 66.3433C44.6603 56.8685 46.6293 46.6898 48.5904 41.8346C50.6442 36.7502 53.5113 31.737 56.9302 28.0743C60.3614 24.3984 63.9444 22.4851 67.5527 22.4851C71.3049 22.4851 74.6379 24.1706 77.7359 27.5101C80.9006 30.9215 83.6172 35.8701 85.8568 41.7508C87.5252 46.1315 90.9986 49.2308 94.6102 51.4116C98.2523 53.6108 102.453 55.1322 106.287 56.1931C106.536 56.2619 106.784 56.329 107.03 56.3944L100.258 59.7343C99.6543 59.525 98.916 59.2715 98.0695 58.9851C95.6298 58.1598 92.2789 57.0573 88.6435 55.9528C85.0165 54.8509 81.0605 53.7329 77.4216 52.8863C73.8822 52.0628 70.2948 51.4104 67.5527 51.4104C65.2834 51.4104 63.3066 52.2842 61.7376 53.33C60.1628 54.3797 58.7492 55.7661 57.5069 57.2208C55.0257 60.1262 52.7748 63.8447 50.9165 67.3452C49.0369 70.8858 47.4563 74.4003 46.3505 77.0136C46.1247 77.5472 45.9179 78.0451 45.7317 78.5H41.3945Z" stroke="#34D399" stroke-width="9"/>
</g>
<path d="M154.3 67V32H168.7C170.9 32 172.833 32.45 174.5 33.35C176.2 34.2167 177.517 35.45 178.45 37.05C179.417 38.65 179.9 40.55 179.9 42.75V43.45C179.9 45.6167 179.4 47.5167 178.4 49.15C177.433 50.75 176.1 52 174.4 52.9C172.733 53.7667 170.833 54.2 168.7 54.2H160.9V67H154.3ZM160.9 48.2H168.05C169.617 48.2 170.883 47.7667 171.85 46.9C172.817 46.0333 173.3 44.85 173.3 43.35V42.85C173.3 41.35 172.817 40.1667 171.85 39.3C170.883 38.4333 169.617 38 168.05 38H160.9V48.2ZM191.936 67.7C190.17 67.7 188.586 67.4 187.186 66.8C185.786 66.1667 184.67 65.2667 183.836 64.1C183.036 62.9 182.636 61.45 182.636 59.75C182.636 58.05 183.036 56.6333 183.836 55.5C184.67 54.3333 185.803 53.4667 187.236 52.9C188.703 52.3 190.37 52 192.236 52H199.036V50.6C199.036 49.4333 198.67 48.4833 197.936 47.75C197.203 46.9833 196.036 46.6 194.436 46.6C192.87 46.6 191.703 46.9667 190.936 47.7C190.17 48.4 189.67 49.3167 189.436 50.45L183.636 48.5C184.036 47.2333 184.67 46.0833 185.536 45.05C186.436 43.9833 187.62 43.1333 189.086 42.5C190.586 41.8333 192.403 41.5 194.536 41.5C197.803 41.5 200.386 42.3167 202.286 43.95C204.186 45.5833 205.136 47.95 205.136 51.05V60.3C205.136 61.3 205.603 61.8 206.536 61.8H208.536V67H204.336C203.103 67 202.086 66.7 201.286 66.1C200.486 65.5 200.086 64.7 200.086 63.7V63.65H199.136C199.003 64.05 198.703 64.5833 198.236 65.25C197.77 65.8833 197.036 66.45 196.036 66.95C195.036 67.45 193.67 67.7 191.936 67.7ZM193.036 62.6C194.803 62.6 196.236 62.1167 197.336 61.15C198.47 60.15 199.036 58.8333 199.036 57.2V56.7H192.686C191.52 56.7 190.603 56.95 189.936 57.45C189.27 57.95 188.936 58.65 188.936 59.55C188.936 60.45 189.286 61.1833 189.986 61.75C190.686 62.3167 191.703 62.6 193.036 62.6ZM213.143 67V42.2H219.343V45H220.243C220.609 44 221.209 43.2667 222.043 42.8C222.909 42.3333 223.909 42.1 225.043 42.1H228.043V47.7H224.943C223.343 47.7 222.026 48.1333 220.993 49C219.959 49.8333 219.443 51.1333 219.443 52.9V67H213.143ZM240.081 67.7C238.314 67.7 236.731 67.4 235.331 66.8C233.931 66.1667 232.814 65.2667 231.981 64.1C231.181 62.9 230.781 61.45 230.781 59.75C230.781 58.05 231.181 56.6333 231.981 55.5C232.814 54.3333 233.948 53.4667 235.381 52.9C236.848 52.3 238.514 52 240.381 52H247.181V50.6C247.181 49.4333 246.814 48.4833 246.081 47.75C245.348 46.9833 244.181 46.6 242.581 46.6C241.014 46.6 239.848 46.9667 239.081 47.7C238.314 48.4 237.814 49.3167 237.581 50.45L231.781 48.5C232.181 47.2333 232.814 46.0833 233.681 45.05C234.581 43.9833 235.764 43.1333 237.231 42.5C238.731 41.8333 240.548 41.5 242.681 41.5C245.948 41.5 248.531 42.3167 250.431 43.95C252.331 45.5833 253.281 47.95 253.281 51.05V60.3C253.281 61.3 253.748 61.8 254.681 61.8H256.681V67H252.481C251.248 67 250.231 66.7 249.431 66.1C248.631 65.5 248.231 64.7 248.231 63.7V63.65H247.281C247.148 64.05 246.848 64.5833 246.381 65.25C245.914 65.8833 245.181 66.45 244.181 66.95C243.181 67.45 241.814 67.7 240.081 67.7ZM241.181 62.6C242.948 62.6 244.381 62.1167 245.481 61.15C246.614 60.15 247.181 58.8333 247.181 57.2V56.7H240.831C239.664 56.7 238.748 56.95 238.081 57.45C237.414 57.95 237.081 58.65 237.081 59.55C237.081 60.45 237.431 61.1833 238.131 61.75C238.831 62.3167 239.848 62.6 241.181 62.6ZM270.799 67.7C268.832 67.7 266.982 67.2167 265.249 66.25C263.549 65.25 262.182 63.8 261.149 61.9C260.115 60 259.599 57.7 259.599 55V54.2C259.599 51.5 260.115 49.2 261.149 47.3C262.182 45.4 263.549 43.9667 265.249 43C266.949 42 268.799 41.5 270.799 41.5C272.299 41.5 273.549 41.6833 274.549 42.05C275.582 42.3833 276.415 42.8167 277.049 43.35C277.682 43.8833 278.165 44.45 278.499 45.05H279.399V32H285.699V67H279.499V64H278.599C278.032 64.9333 277.149 65.7833 275.949 66.55C274.782 67.3167 273.065 67.7 270.799 67.7ZM272.699 62.2C274.632 62.2 276.249 61.5833 277.549 60.35C278.849 59.0833 279.499 57.25 279.499 54.85V54.35C279.499 51.95 278.849 50.1333 277.549 48.9C276.282 47.6333 274.665 47 272.699 47C270.765 47 269.149 47.6333 267.849 48.9C266.549 50.1333 265.899 51.95 265.899 54.35V54.85C265.899 57.25 266.549 59.0833 267.849 60.35C269.149 61.5833 270.765 62.2 272.699 62.2ZM303.984 67.7C301.517 67.7 299.334 67.1833 297.434 66.15C295.567 65.0833 294.1 63.6 293.034 61.7C292 59.7667 291.484 57.5 291.484 54.9V54.3C291.484 51.7 292 49.45 293.034 47.55C294.067 45.6167 295.517 44.1333 297.384 43.1C299.25 42.0333 301.417 41.5 303.884 41.5C306.317 41.5 308.434 42.05 310.234 43.15C312.034 44.2167 313.434 45.7167 314.434 47.65C315.434 49.55 315.934 51.7667 315.934 54.3V56.45H297.884C297.95 58.15 298.584 59.5333 299.784 60.6C300.984 61.6667 302.45 62.2 304.184 62.2C305.95 62.2 307.25 61.8167 308.084 61.05C308.917 60.2833 309.55 59.4333 309.984 58.5L315.134 61.2C314.667 62.0667 313.984 63.0167 313.084 64.05C312.217 65.05 311.05 65.9167 309.584 66.65C308.117 67.35 306.25 67.7 303.984 67.7ZM297.934 51.75H309.534C309.4 50.3167 308.817 49.1667 307.784 48.3C306.784 47.4333 305.467 47 303.834 47C302.134 47 300.784 47.4333 299.784 48.3C298.784 49.1667 298.167 50.3167 297.934 51.75ZM320.341 67V61.2H324.941V37.8H320.341V32H334.741C339.441 32 343.008 33.2 345.441 35.6C347.908 37.9667 349.141 41.5 349.141 46.2V52.8C349.141 57.5 347.908 61.05 345.441 63.45C343.008 65.8167 339.441 67 334.741 67H320.341ZM331.541 61H334.841C337.508 61 339.458 60.3 340.691 58.9C341.924 57.5 342.541 55.5333 342.541 53V46C342.541 43.4333 341.924 41.4667 340.691 40.1C339.458 38.7 337.508 38 334.841 38H331.541V61ZM352.519 67V61.2H357.119V37.8H352.519V32H370.519C372.652 32 374.502 32.3667 376.069 33.1C377.669 33.8 378.902 34.8167 379.769 36.15C380.669 37.45 381.119 39.0167 381.119 40.85V41.35C381.119 42.95 380.819 44.2667 380.219 45.3C379.619 46.3 378.902 47.0833 378.069 47.65C377.269 48.1833 376.502 48.5667 375.769 48.8V49.7C376.502 49.9 377.302 50.2833 378.169 50.85C379.035 51.3833 379.769 52.1667 380.369 53.2C381.002 54.2333 381.319 55.5833 381.319 57.25V57.75C381.319 59.6833 380.869 61.35 379.969 62.75C379.069 64.1167 377.819 65.1667 376.219 65.9C374.652 66.6333 372.819 67 370.719 67H352.519ZM363.719 61H369.919C371.352 61 372.502 60.65 373.369 59.95C374.269 59.25 374.719 58.25 374.719 56.95V56.45C374.719 55.15 374.285 54.15 373.419 53.45C372.552 52.75 371.385 52.4 369.919 52.4H363.719V61ZM363.719 46.4H369.819C371.185 46.4 372.302 46.05 373.169 45.35C374.069 44.65 374.519 43.6833 374.519 42.45V41.95C374.519 40.6833 374.085 39.7167 373.219 39.05C372.352 38.35 371.219 38 369.819 38H363.719V46.4Z" fill="#34D399"/>
</svg>
